%
M48
M72
T01C0.02000
T02C0.02165
T03C0.02756
T04C0.03346
T05C0.04000
%
T01
X52546Y21400
X66146Y41800
X59746Y47000
X59746Y53400
X82546Y46200
X85746Y49800
X91346Y45800
X86346Y56300
X99346Y56300
X108146Y82600
X57346Y79300
T02
X80846Y63800
X88846Y70300
X95846Y64300
X98346Y75300
X110346Y88800
X102846Y97300
X115346Y98300
X127346Y66800
X134346Y52800
X96846Y24300
X71346Y19800
T03
X76846Y15300
X96846Y15300
T04
X30008Y61820
X30008Y76780
T05
X24346Y12800
X34346Y12800
X44346Y12800
X54346Y12800
X42346Y29800
X32346Y29800
X22346Y29800
X22346Y39800
X32346Y39800
X42346Y39800
X122046Y27200
X122046Y9400
X147646Y9400
X147646Y27200
X145846Y39300
X145846Y49300
X145846Y59300
X140846Y105800
X150846Y105800
X130846Y105800
X120846Y105800
X110846Y105800
X100846Y105800
X90846Y105800
X80846Y105800
X70846Y105800
X60846Y105800
X50846Y105800
X40846Y105800
X30846Y105800
X20846Y105800
M30
