G75*
%MOIN*%
%OFA0B0*%
%FSLAX25Y25*%
%IPPOS*%
%LPD*%
%AMOC8*
5,1,8,0,0,1.08239X$1,22.5*
%
%ADD10R,0.08200X0.08200*%
%ADD11OC8,0.08200*%
%ADD12C,0.04146*%
%ADD13C,0.07200*%
%ADD14C,0.07300*%
%ADD15C,0.08200*%
%ADD16C,0.04965*%
D10*
X0042346Y0039800D03*
D11*
X0032346Y0039800D03*
X0022346Y0039800D03*
X0022346Y0029800D03*
X0032346Y0029800D03*
X0042346Y0029800D03*
D12*
X0030008Y0061820D03*
X0030008Y0076780D03*
D13*
X0118846Y0027200D02*
X0125246Y0027200D01*
X0144446Y0027200D02*
X0150846Y0027200D01*
X0150846Y0009400D02*
X0144446Y0009400D01*
X0125246Y0009400D02*
X0118846Y0009400D01*
D14*
X0096846Y0015300D03*
X0076846Y0015300D03*
D15*
X0024346Y0012800D03*
X0034346Y0012800D03*
X0044346Y0012800D03*
X0054346Y0012800D03*
X0145846Y0039300D03*
X0145846Y0049300D03*
X0145846Y0059300D03*
X0140846Y0105800D03*
X0150846Y0105800D03*
X0130846Y0105800D03*
X0120846Y0105800D03*
X0110846Y0105800D03*
X0100846Y0105800D03*
X0090846Y0105800D03*
X0080846Y0105800D03*
X0070846Y0105800D03*
X0060846Y0105800D03*
X0050846Y0105800D03*
X0040846Y0105800D03*
X0030846Y0105800D03*
X0020846Y0105800D03*
D16*
X0080846Y0063800D03*
X0088846Y0070300D03*
X0095846Y0064300D03*
X0098346Y0075300D03*
X0110346Y0088800D03*
X0102846Y0097300D03*
X0115346Y0098300D03*
X0127346Y0066800D03*
X0134346Y0052800D03*
X0096846Y0024300D03*
X0071346Y0019800D03*
M02*
