G75*
%MOIN*%
%OFA0B0*%
%FSLAX25Y25*%
%IPPOS*%
%LPD*%
%AMOC8*
5,1,8,0,0,1.08239X$1,22.5*
%
%ADD10C,0.00200*%
%ADD11C,0.00500*%
%ADD12C,0.01200*%
%ADD13C,0.00600*%
%ADD14C,0.00800*%
%ADD15C,0.01000*%
%ADD16C,0.01600*%
D10*
X0021813Y0018900D02*
X0021446Y0019267D01*
X0021813Y0018900D02*
X0022547Y0018900D01*
X0022914Y0019267D01*
X0022914Y0019634D01*
X0022547Y0020001D01*
X0021813Y0020001D01*
X0021446Y0020368D01*
X0021446Y0020735D01*
X0021813Y0021102D01*
X0022547Y0021102D01*
X0022914Y0020735D01*
X0023656Y0020735D02*
X0023656Y0019267D01*
X0024023Y0018900D01*
X0024757Y0018900D01*
X0025124Y0019267D01*
X0025866Y0018900D02*
X0027334Y0018900D01*
X0025866Y0018900D02*
X0025866Y0021102D01*
X0025124Y0020735D02*
X0024757Y0021102D01*
X0024023Y0021102D01*
X0023656Y0020735D01*
X0023366Y0021900D02*
X0024467Y0021900D01*
X0024834Y0022267D01*
X0024834Y0023735D01*
X0024467Y0024102D01*
X0023366Y0024102D01*
X0023366Y0021900D01*
X0022624Y0021900D02*
X0022624Y0024102D01*
X0021156Y0024102D02*
X0021156Y0021900D01*
X0020414Y0022267D02*
X0020414Y0023001D01*
X0019680Y0023001D01*
X0018946Y0023735D02*
X0018946Y0022267D01*
X0019313Y0021900D01*
X0020047Y0021900D01*
X0020414Y0022267D01*
X0020414Y0023735D02*
X0020047Y0024102D01*
X0019313Y0024102D01*
X0018946Y0023735D01*
X0021156Y0024102D02*
X0022624Y0021900D01*
X0028446Y0021900D02*
X0028446Y0024102D01*
X0029180Y0023368D01*
X0029914Y0024102D01*
X0029914Y0021900D01*
X0030656Y0022267D02*
X0030656Y0023735D01*
X0031023Y0024102D01*
X0031757Y0024102D01*
X0032124Y0023735D01*
X0032124Y0022267D01*
X0031757Y0021900D01*
X0031023Y0021900D01*
X0030656Y0022267D01*
X0032866Y0022267D02*
X0033233Y0021900D01*
X0033967Y0021900D01*
X0034334Y0022267D01*
X0034334Y0022634D01*
X0033967Y0023001D01*
X0033233Y0023001D01*
X0032866Y0023368D01*
X0032866Y0023735D01*
X0033233Y0024102D01*
X0033967Y0024102D01*
X0034334Y0023735D01*
X0035076Y0024102D02*
X0035810Y0024102D01*
X0035443Y0024102D02*
X0035443Y0021900D01*
X0035076Y0021900D02*
X0035810Y0021900D01*
X0036600Y0020602D02*
X0037334Y0019868D01*
X0037334Y0018400D01*
X0037334Y0019501D02*
X0035866Y0019501D01*
X0035866Y0019868D02*
X0035866Y0018400D01*
X0035124Y0018767D02*
X0035124Y0020235D01*
X0034757Y0020602D01*
X0033656Y0020602D01*
X0033656Y0018400D01*
X0034757Y0018400D01*
X0035124Y0018767D01*
X0035866Y0019868D02*
X0036600Y0020602D01*
X0032914Y0020235D02*
X0032547Y0020602D01*
X0031813Y0020602D01*
X0031446Y0020235D01*
X0031446Y0019868D01*
X0031813Y0019501D01*
X0032547Y0019501D01*
X0032914Y0019134D01*
X0032914Y0018767D01*
X0032547Y0018400D01*
X0031813Y0018400D01*
X0031446Y0018767D01*
X0040946Y0022267D02*
X0041313Y0021900D01*
X0042047Y0021900D01*
X0042414Y0022267D01*
X0042414Y0023001D01*
X0042047Y0023368D01*
X0041680Y0023368D01*
X0040946Y0023001D01*
X0040946Y0024102D01*
X0042414Y0024102D01*
X0043156Y0024102D02*
X0043156Y0022634D01*
X0043890Y0021900D01*
X0044624Y0022634D01*
X0044624Y0024102D01*
X0044656Y0021102D02*
X0046124Y0018900D01*
X0044656Y0018900D02*
X0046124Y0021102D01*
X0043914Y0020735D02*
X0043914Y0020001D01*
X0043547Y0019634D01*
X0042446Y0019634D01*
X0042446Y0018900D02*
X0042446Y0021102D01*
X0043547Y0021102D01*
X0043914Y0020735D01*
X0043180Y0019634D02*
X0043914Y0018900D01*
X0052446Y0021102D02*
X0053914Y0021102D01*
X0053180Y0021102D02*
X0053180Y0018900D01*
X0054656Y0018900D02*
X0056124Y0021102D01*
X0054656Y0021102D02*
X0056124Y0018900D01*
X0045440Y0046400D02*
X0045807Y0046767D01*
X0045807Y0048235D01*
X0045440Y0048602D01*
X0044706Y0048602D01*
X0044339Y0048235D01*
X0044339Y0046767D01*
X0044706Y0046400D01*
X0045440Y0046400D01*
X0043598Y0046767D02*
X0043231Y0046400D01*
X0042497Y0046400D01*
X0042130Y0046767D01*
X0042497Y0047501D02*
X0043231Y0047501D01*
X0043598Y0047134D01*
X0043598Y0046767D01*
X0042497Y0047501D02*
X0042130Y0047868D01*
X0042130Y0048235D01*
X0042497Y0048602D01*
X0043231Y0048602D01*
X0043598Y0048235D01*
X0041390Y0048602D02*
X0040656Y0048602D01*
X0041023Y0048602D02*
X0041023Y0046400D01*
X0040656Y0046400D02*
X0041390Y0046400D01*
X0039914Y0046400D02*
X0039914Y0048602D01*
X0039180Y0047868D01*
X0038446Y0048602D01*
X0038446Y0046400D01*
X0035334Y0046400D02*
X0034233Y0047501D01*
X0033866Y0047134D02*
X0035334Y0048602D01*
X0033866Y0048602D02*
X0033866Y0046400D01*
X0033124Y0046767D02*
X0032757Y0046400D01*
X0032023Y0046400D01*
X0031656Y0046767D01*
X0031656Y0048235D01*
X0032023Y0048602D01*
X0032757Y0048602D01*
X0033124Y0048235D01*
X0030914Y0048235D02*
X0030547Y0048602D01*
X0029813Y0048602D01*
X0029446Y0048235D01*
X0029446Y0047868D01*
X0029813Y0047501D01*
X0030547Y0047501D01*
X0030914Y0047134D01*
X0030914Y0046767D01*
X0030547Y0046400D01*
X0029813Y0046400D01*
X0029446Y0046767D01*
X0025334Y0048602D02*
X0023866Y0048602D01*
X0024600Y0048602D02*
X0024600Y0046400D01*
X0023124Y0046767D02*
X0022757Y0046400D01*
X0022023Y0046400D01*
X0021656Y0046767D01*
X0022023Y0047501D02*
X0022757Y0047501D01*
X0023124Y0047134D01*
X0023124Y0046767D01*
X0022023Y0047501D02*
X0021656Y0047868D01*
X0021656Y0048235D01*
X0022023Y0048602D01*
X0022757Y0048602D01*
X0023124Y0048235D01*
X0020914Y0048235D02*
X0020914Y0047501D01*
X0020547Y0047134D01*
X0019446Y0047134D01*
X0019446Y0046400D02*
X0019446Y0048602D01*
X0020547Y0048602D01*
X0020914Y0048235D01*
X0020180Y0047134D02*
X0020914Y0046400D01*
X0029912Y0092900D02*
X0031379Y0092900D01*
X0031746Y0093267D01*
X0031746Y0094001D01*
X0031379Y0094368D01*
X0030646Y0094368D01*
X0030646Y0093634D01*
X0029912Y0094368D02*
X0029545Y0094001D01*
X0029545Y0093267D01*
X0029912Y0092900D01*
X0029545Y0095110D02*
X0031746Y0096578D01*
X0029545Y0096578D01*
X0029545Y0097320D02*
X0029545Y0098421D01*
X0029912Y0098788D01*
X0031379Y0098788D01*
X0031746Y0098421D01*
X0031746Y0097320D01*
X0029545Y0097320D01*
X0029545Y0095110D02*
X0031746Y0095110D01*
X0040045Y0094610D02*
X0040045Y0095711D01*
X0040412Y0096078D01*
X0041146Y0096078D01*
X0041513Y0095711D01*
X0041513Y0094610D01*
X0042246Y0094610D02*
X0040045Y0094610D01*
X0040779Y0093868D02*
X0042246Y0093868D01*
X0041146Y0093868D02*
X0041146Y0092400D01*
X0040779Y0092400D02*
X0040045Y0093134D01*
X0040779Y0093868D01*
X0040779Y0092400D02*
X0042246Y0092400D01*
X0041513Y0095344D02*
X0042246Y0096078D01*
X0042246Y0096820D02*
X0040045Y0096820D01*
X0040045Y0098288D01*
X0040045Y0099030D02*
X0040045Y0100498D01*
X0041146Y0099764D02*
X0041146Y0099030D01*
X0042246Y0099030D02*
X0040045Y0099030D01*
X0042246Y0098288D02*
X0042246Y0096820D01*
X0041146Y0096820D02*
X0041146Y0097554D01*
X0050045Y0098078D02*
X0050045Y0096610D01*
X0052246Y0096610D01*
X0051146Y0096610D02*
X0051146Y0097344D01*
X0051146Y0095868D02*
X0050412Y0095868D01*
X0050045Y0095501D01*
X0050045Y0094400D01*
X0052246Y0094400D01*
X0051512Y0094400D02*
X0051512Y0095501D01*
X0051146Y0095868D01*
X0051879Y0098820D02*
X0050412Y0098820D01*
X0050045Y0099187D01*
X0050045Y0099921D01*
X0050412Y0100288D01*
X0051879Y0098820D01*
X0052246Y0099187D01*
X0052246Y0099921D01*
X0051879Y0100288D01*
X0050412Y0100288D01*
X0059545Y0099554D02*
X0060279Y0098820D01*
X0059545Y0099554D02*
X0061746Y0099554D01*
X0061746Y0098820D02*
X0061746Y0100288D01*
X0059545Y0098078D02*
X0059545Y0096610D01*
X0061746Y0096610D01*
X0060646Y0096610D02*
X0060646Y0097344D01*
X0060646Y0095868D02*
X0061012Y0095501D01*
X0061012Y0094400D01*
X0061746Y0094400D02*
X0059545Y0094400D01*
X0059545Y0095501D01*
X0059912Y0095868D01*
X0060646Y0095868D01*
X0069545Y0095501D02*
X0069912Y0095868D01*
X0070646Y0095868D01*
X0071013Y0095501D01*
X0071013Y0094400D01*
X0071746Y0094400D02*
X0069545Y0094400D01*
X0069545Y0095501D01*
X0069545Y0096610D02*
X0069545Y0098078D01*
X0070646Y0097344D02*
X0070646Y0096610D01*
X0071746Y0096610D02*
X0069545Y0096610D01*
X0070646Y0098820D02*
X0070646Y0100288D01*
X0071746Y0099921D02*
X0069545Y0099921D01*
X0070646Y0098820D01*
X0079545Y0098820D02*
X0080646Y0098820D01*
X0080279Y0099554D01*
X0080279Y0099921D01*
X0080646Y0100288D01*
X0081379Y0100288D01*
X0081746Y0099921D01*
X0081746Y0099187D01*
X0081379Y0098820D01*
X0080646Y0097344D02*
X0080646Y0096610D01*
X0080646Y0095868D02*
X0081013Y0095501D01*
X0081013Y0094400D01*
X0081746Y0094400D02*
X0079545Y0094400D01*
X0079545Y0095501D01*
X0079912Y0095868D01*
X0080646Y0095868D01*
X0081746Y0096610D02*
X0079545Y0096610D01*
X0079545Y0098078D01*
X0079545Y0098820D02*
X0079545Y0100288D01*
X0089545Y0100288D02*
X0089912Y0099554D01*
X0090646Y0098820D01*
X0090646Y0099921D01*
X0091012Y0100288D01*
X0091379Y0100288D01*
X0091746Y0099921D01*
X0091746Y0099187D01*
X0091379Y0098820D01*
X0090646Y0098820D01*
X0089545Y0098078D02*
X0089545Y0096610D01*
X0091746Y0096610D01*
X0090646Y0096610D02*
X0090646Y0097344D01*
X0090646Y0095868D02*
X0091012Y0095501D01*
X0091012Y0094400D01*
X0091746Y0094400D02*
X0089545Y0094400D01*
X0089545Y0095501D01*
X0089912Y0095868D01*
X0090646Y0095868D01*
X0099545Y0096001D02*
X0099545Y0094900D01*
X0101746Y0094900D01*
X0101012Y0094900D02*
X0101012Y0096001D01*
X0100646Y0096368D01*
X0099912Y0096368D01*
X0099545Y0096001D01*
X0099545Y0097110D02*
X0099545Y0098578D01*
X0099545Y0099320D02*
X0099545Y0100788D01*
X0099912Y0100788D01*
X0101379Y0099320D01*
X0101746Y0099320D01*
X0100646Y0097844D02*
X0100646Y0097110D01*
X0101746Y0097110D02*
X0099545Y0097110D01*
X0109545Y0096977D02*
X0109912Y0096610D01*
X0111379Y0096610D01*
X0111746Y0096977D01*
X0111746Y0097711D01*
X0111379Y0098078D01*
X0111379Y0098820D02*
X0111746Y0098820D01*
X0111379Y0098820D02*
X0109912Y0100288D01*
X0109545Y0100288D01*
X0109545Y0098820D01*
X0109912Y0098078D02*
X0109545Y0097711D01*
X0109545Y0096977D01*
X0109912Y0095868D02*
X0110646Y0095868D01*
X0111012Y0095501D01*
X0111012Y0094400D01*
X0111746Y0094400D02*
X0109545Y0094400D01*
X0109545Y0095501D01*
X0109912Y0095868D01*
X0119545Y0095501D02*
X0119912Y0095868D01*
X0120646Y0095868D01*
X0121012Y0095501D01*
X0121012Y0094400D01*
X0121746Y0094400D02*
X0119545Y0094400D01*
X0119545Y0095501D01*
X0119912Y0096610D02*
X0121379Y0096610D01*
X0121746Y0096977D01*
X0121746Y0097711D01*
X0121379Y0098078D01*
X0121379Y0098820D02*
X0121746Y0099187D01*
X0121746Y0099921D01*
X0121379Y0100288D01*
X0121012Y0100288D01*
X0120646Y0099921D01*
X0120646Y0098820D01*
X0121379Y0098820D01*
X0120646Y0098820D02*
X0119912Y0099554D01*
X0119545Y0100288D01*
X0119912Y0098078D02*
X0119545Y0097711D01*
X0119545Y0096977D01*
X0119912Y0096610D01*
X0130045Y0096610D02*
X0130045Y0097711D01*
X0130412Y0098078D01*
X0130779Y0098078D01*
X0131146Y0097711D01*
X0131146Y0096610D01*
X0131146Y0095868D02*
X0131513Y0095501D01*
X0131513Y0094400D01*
X0132246Y0094400D02*
X0130045Y0094400D01*
X0130045Y0095501D01*
X0130412Y0095868D01*
X0131146Y0095868D01*
X0132246Y0096610D02*
X0132246Y0097711D01*
X0131879Y0098078D01*
X0131513Y0098078D01*
X0131146Y0097711D01*
X0131146Y0098820D02*
X0131146Y0099921D01*
X0131513Y0100288D01*
X0131879Y0100288D01*
X0132246Y0099921D01*
X0132246Y0099187D01*
X0131879Y0098820D01*
X0131146Y0098820D01*
X0130412Y0099554D01*
X0130045Y0100288D01*
X0130045Y0096610D02*
X0132246Y0096610D01*
X0139545Y0096610D02*
X0139545Y0097711D01*
X0139912Y0098078D01*
X0140279Y0098078D01*
X0140646Y0097711D01*
X0140646Y0096610D01*
X0140646Y0095868D02*
X0141013Y0095501D01*
X0141013Y0094400D01*
X0141746Y0094400D02*
X0139545Y0094400D01*
X0139545Y0095501D01*
X0139912Y0095868D01*
X0140646Y0095868D01*
X0141746Y0096610D02*
X0141746Y0097711D01*
X0141379Y0098078D01*
X0141013Y0098078D01*
X0140646Y0097711D01*
X0140646Y0098820D02*
X0139545Y0098820D01*
X0139545Y0100288D01*
X0140279Y0099921D02*
X0140646Y0100288D01*
X0141379Y0100288D01*
X0141746Y0099921D01*
X0141746Y0099187D01*
X0141379Y0098820D01*
X0140646Y0098820D02*
X0140279Y0099554D01*
X0140279Y0099921D01*
X0139545Y0096610D02*
X0141746Y0096610D01*
X0149545Y0096610D02*
X0149545Y0097711D01*
X0149912Y0098078D01*
X0150279Y0098078D01*
X0150646Y0097711D01*
X0150646Y0096610D01*
X0150646Y0095868D02*
X0151013Y0095501D01*
X0151013Y0094400D01*
X0151746Y0094400D02*
X0149545Y0094400D01*
X0149545Y0095501D01*
X0149912Y0095868D01*
X0150646Y0095868D01*
X0151746Y0096610D02*
X0151746Y0097711D01*
X0151379Y0098078D01*
X0151013Y0098078D01*
X0150646Y0097711D01*
X0150646Y0098820D02*
X0150646Y0100288D01*
X0151746Y0099921D02*
X0149545Y0099921D01*
X0150646Y0098820D01*
X0151746Y0096610D02*
X0149545Y0096610D01*
X0139834Y0060102D02*
X0138366Y0060102D01*
X0137624Y0059735D02*
X0137257Y0060102D01*
X0136156Y0060102D01*
X0136156Y0057900D01*
X0137257Y0057900D01*
X0137624Y0058267D01*
X0137624Y0059735D01*
X0138366Y0058267D02*
X0138366Y0057900D01*
X0138366Y0058267D02*
X0139834Y0059735D01*
X0139834Y0060102D01*
X0135414Y0059735D02*
X0135414Y0059001D01*
X0135047Y0058634D01*
X0133946Y0058634D01*
X0133946Y0057900D02*
X0133946Y0060102D01*
X0135047Y0060102D01*
X0135414Y0059735D01*
X0135047Y0050602D02*
X0133946Y0050602D01*
X0133946Y0048400D01*
X0133946Y0049134D02*
X0135047Y0049134D01*
X0135414Y0049501D01*
X0135414Y0050235D01*
X0135047Y0050602D01*
X0136156Y0050602D02*
X0136156Y0048400D01*
X0137257Y0048400D01*
X0137624Y0048767D01*
X0137624Y0050235D01*
X0137257Y0050602D01*
X0136156Y0050602D01*
X0138366Y0049501D02*
X0138366Y0048767D01*
X0138733Y0048400D01*
X0139467Y0048400D01*
X0139834Y0048767D01*
X0139834Y0049134D01*
X0139467Y0049501D01*
X0138366Y0049501D01*
X0139100Y0050235D01*
X0139834Y0050602D01*
X0138967Y0041602D02*
X0137866Y0040501D01*
X0139334Y0040501D01*
X0138967Y0039400D02*
X0138967Y0041602D01*
X0137124Y0041235D02*
X0137124Y0039767D01*
X0136757Y0039400D01*
X0135656Y0039400D01*
X0135656Y0041602D01*
X0136757Y0041602D01*
X0137124Y0041235D01*
X0134914Y0041235D02*
X0134547Y0041602D01*
X0133446Y0041602D01*
X0133446Y0039400D01*
X0133446Y0040134D02*
X0134547Y0040134D01*
X0134914Y0040501D01*
X0134914Y0041235D01*
X0130346Y0030300D02*
X0130346Y0029300D01*
X0139846Y0029300D01*
X0139846Y0030300D01*
X0139846Y0007300D02*
X0129846Y0007300D01*
X0129846Y0006300D01*
X0139846Y0006300D02*
X0139846Y0007300D01*
X0021746Y0095767D02*
X0021379Y0095400D01*
X0021746Y0095767D02*
X0021746Y0096501D01*
X0021379Y0096868D01*
X0020646Y0096868D01*
X0020279Y0096501D01*
X0020279Y0096134D01*
X0020646Y0095400D01*
X0019545Y0095400D01*
X0019545Y0096868D01*
X0019545Y0097610D02*
X0021013Y0097610D01*
X0021746Y0098344D01*
X0021013Y0099078D01*
X0019545Y0099078D01*
D11*
X0038846Y0061800D02*
X0043846Y0061800D01*
X0043846Y0050800D01*
X0038846Y0050800D01*
X0038846Y0061800D01*
X0050971Y0057050D02*
X0054721Y0057050D01*
X0121471Y0057550D02*
X0125221Y0057550D01*
X0125221Y0068050D02*
X0121471Y0068050D01*
D12*
X0033157Y0057489D02*
X0033157Y0053552D01*
X0029220Y0053552D01*
X0017409Y0053552D02*
X0013472Y0053552D01*
X0033157Y0081111D02*
X0033157Y0085048D01*
X0033086Y0085020D02*
X0029220Y0085020D01*
X0029220Y0085048D01*
X0017409Y0085048D02*
X0013472Y0085048D01*
D13*
X0121846Y0021300D02*
X0121846Y0015300D01*
X0122846Y0015300D01*
X0122846Y0014300D01*
X0122846Y0021300D02*
X0122846Y0022300D01*
X0122846Y0021300D02*
X0121846Y0021300D01*
X0126346Y0030300D02*
X0130346Y0030300D01*
X0139846Y0030300D01*
X0143346Y0030300D01*
X0146846Y0022300D02*
X0146846Y0021300D01*
X0147846Y0021300D01*
X0147846Y0015300D01*
X0146846Y0015300D01*
X0146846Y0014300D01*
X0143346Y0006300D02*
X0139846Y0006300D01*
X0129846Y0006300D01*
X0126346Y0006300D01*
X0133846Y0018300D02*
X0133848Y0018363D01*
X0133854Y0018425D01*
X0133864Y0018487D01*
X0133877Y0018549D01*
X0133895Y0018609D01*
X0133916Y0018668D01*
X0133941Y0018726D01*
X0133970Y0018782D01*
X0134002Y0018836D01*
X0134037Y0018888D01*
X0134075Y0018937D01*
X0134117Y0018985D01*
X0134161Y0019029D01*
X0134209Y0019071D01*
X0134258Y0019109D01*
X0134310Y0019144D01*
X0134364Y0019176D01*
X0134420Y0019205D01*
X0134478Y0019230D01*
X0134537Y0019251D01*
X0134597Y0019269D01*
X0134659Y0019282D01*
X0134721Y0019292D01*
X0134783Y0019298D01*
X0134846Y0019300D01*
X0134909Y0019298D01*
X0134971Y0019292D01*
X0135033Y0019282D01*
X0135095Y0019269D01*
X0135155Y0019251D01*
X0135214Y0019230D01*
X0135272Y0019205D01*
X0135328Y0019176D01*
X0135382Y0019144D01*
X0135434Y0019109D01*
X0135483Y0019071D01*
X0135531Y0019029D01*
X0135575Y0018985D01*
X0135617Y0018937D01*
X0135655Y0018888D01*
X0135690Y0018836D01*
X0135722Y0018782D01*
X0135751Y0018726D01*
X0135776Y0018668D01*
X0135797Y0018609D01*
X0135815Y0018549D01*
X0135828Y0018487D01*
X0135838Y0018425D01*
X0135844Y0018363D01*
X0135846Y0018300D01*
X0135844Y0018237D01*
X0135838Y0018175D01*
X0135828Y0018113D01*
X0135815Y0018051D01*
X0135797Y0017991D01*
X0135776Y0017932D01*
X0135751Y0017874D01*
X0135722Y0017818D01*
X0135690Y0017764D01*
X0135655Y0017712D01*
X0135617Y0017663D01*
X0135575Y0017615D01*
X0135531Y0017571D01*
X0135483Y0017529D01*
X0135434Y0017491D01*
X0135382Y0017456D01*
X0135328Y0017424D01*
X0135272Y0017395D01*
X0135214Y0017370D01*
X0135155Y0017349D01*
X0135095Y0017331D01*
X0135033Y0017318D01*
X0134971Y0017308D01*
X0134909Y0017302D01*
X0134846Y0017300D01*
X0134783Y0017302D01*
X0134721Y0017308D01*
X0134659Y0017318D01*
X0134597Y0017331D01*
X0134537Y0017349D01*
X0134478Y0017370D01*
X0134420Y0017395D01*
X0134364Y0017424D01*
X0134310Y0017456D01*
X0134258Y0017491D01*
X0134209Y0017529D01*
X0134161Y0017571D01*
X0134117Y0017615D01*
X0134075Y0017663D01*
X0134037Y0017712D01*
X0134002Y0017764D01*
X0133970Y0017818D01*
X0133941Y0017874D01*
X0133916Y0017932D01*
X0133895Y0017991D01*
X0133877Y0018051D01*
X0133864Y0018113D01*
X0133854Y0018175D01*
X0133848Y0018237D01*
X0133846Y0018300D01*
X0127846Y0018300D02*
X0127848Y0018472D01*
X0127854Y0018643D01*
X0127865Y0018815D01*
X0127880Y0018986D01*
X0127899Y0019157D01*
X0127922Y0019327D01*
X0127949Y0019497D01*
X0127981Y0019666D01*
X0128016Y0019834D01*
X0128056Y0020001D01*
X0128100Y0020167D01*
X0128147Y0020332D01*
X0128199Y0020496D01*
X0128255Y0020658D01*
X0128315Y0020819D01*
X0128379Y0020979D01*
X0128447Y0021137D01*
X0128518Y0021293D01*
X0128593Y0021447D01*
X0128673Y0021600D01*
X0128755Y0021750D01*
X0128842Y0021899D01*
X0128932Y0022045D01*
X0129026Y0022189D01*
X0129123Y0022331D01*
X0129224Y0022470D01*
X0129328Y0022607D01*
X0129435Y0022741D01*
X0129546Y0022872D01*
X0129659Y0023001D01*
X0129776Y0023127D01*
X0129896Y0023250D01*
X0130019Y0023370D01*
X0130145Y0023487D01*
X0130274Y0023600D01*
X0130405Y0023711D01*
X0130539Y0023818D01*
X0130676Y0023922D01*
X0130815Y0024023D01*
X0130957Y0024120D01*
X0131101Y0024214D01*
X0131247Y0024304D01*
X0131396Y0024391D01*
X0131546Y0024473D01*
X0131699Y0024553D01*
X0131853Y0024628D01*
X0132009Y0024699D01*
X0132167Y0024767D01*
X0132327Y0024831D01*
X0132488Y0024891D01*
X0132650Y0024947D01*
X0132814Y0024999D01*
X0132979Y0025046D01*
X0133145Y0025090D01*
X0133312Y0025130D01*
X0133480Y0025165D01*
X0133649Y0025197D01*
X0133819Y0025224D01*
X0133989Y0025247D01*
X0134160Y0025266D01*
X0134331Y0025281D01*
X0134503Y0025292D01*
X0134674Y0025298D01*
X0134846Y0025300D01*
X0135018Y0025298D01*
X0135189Y0025292D01*
X0135361Y0025281D01*
X0135532Y0025266D01*
X0135703Y0025247D01*
X0135873Y0025224D01*
X0136043Y0025197D01*
X0136212Y0025165D01*
X0136380Y0025130D01*
X0136547Y0025090D01*
X0136713Y0025046D01*
X0136878Y0024999D01*
X0137042Y0024947D01*
X0137204Y0024891D01*
X0137365Y0024831D01*
X0137525Y0024767D01*
X0137683Y0024699D01*
X0137839Y0024628D01*
X0137993Y0024553D01*
X0138146Y0024473D01*
X0138296Y0024391D01*
X0138445Y0024304D01*
X0138591Y0024214D01*
X0138735Y0024120D01*
X0138877Y0024023D01*
X0139016Y0023922D01*
X0139153Y0023818D01*
X0139287Y0023711D01*
X0139418Y0023600D01*
X0139547Y0023487D01*
X0139673Y0023370D01*
X0139796Y0023250D01*
X0139916Y0023127D01*
X0140033Y0023001D01*
X0140146Y0022872D01*
X0140257Y0022741D01*
X0140364Y0022607D01*
X0140468Y0022470D01*
X0140569Y0022331D01*
X0140666Y0022189D01*
X0140760Y0022045D01*
X0140850Y0021899D01*
X0140937Y0021750D01*
X0141019Y0021600D01*
X0141099Y0021447D01*
X0141174Y0021293D01*
X0141245Y0021137D01*
X0141313Y0020979D01*
X0141377Y0020819D01*
X0141437Y0020658D01*
X0141493Y0020496D01*
X0141545Y0020332D01*
X0141592Y0020167D01*
X0141636Y0020001D01*
X0141676Y0019834D01*
X0141711Y0019666D01*
X0141743Y0019497D01*
X0141770Y0019327D01*
X0141793Y0019157D01*
X0141812Y0018986D01*
X0141827Y0018815D01*
X0141838Y0018643D01*
X0141844Y0018472D01*
X0141846Y0018300D01*
X0141844Y0018128D01*
X0141838Y0017957D01*
X0141827Y0017785D01*
X0141812Y0017614D01*
X0141793Y0017443D01*
X0141770Y0017273D01*
X0141743Y0017103D01*
X0141711Y0016934D01*
X0141676Y0016766D01*
X0141636Y0016599D01*
X0141592Y0016433D01*
X0141545Y0016268D01*
X0141493Y0016104D01*
X0141437Y0015942D01*
X0141377Y0015781D01*
X0141313Y0015621D01*
X0141245Y0015463D01*
X0141174Y0015307D01*
X0141099Y0015153D01*
X0141019Y0015000D01*
X0140937Y0014850D01*
X0140850Y0014701D01*
X0140760Y0014555D01*
X0140666Y0014411D01*
X0140569Y0014269D01*
X0140468Y0014130D01*
X0140364Y0013993D01*
X0140257Y0013859D01*
X0140146Y0013728D01*
X0140033Y0013599D01*
X0139916Y0013473D01*
X0139796Y0013350D01*
X0139673Y0013230D01*
X0139547Y0013113D01*
X0139418Y0013000D01*
X0139287Y0012889D01*
X0139153Y0012782D01*
X0139016Y0012678D01*
X0138877Y0012577D01*
X0138735Y0012480D01*
X0138591Y0012386D01*
X0138445Y0012296D01*
X0138296Y0012209D01*
X0138146Y0012127D01*
X0137993Y0012047D01*
X0137839Y0011972D01*
X0137683Y0011901D01*
X0137525Y0011833D01*
X0137365Y0011769D01*
X0137204Y0011709D01*
X0137042Y0011653D01*
X0136878Y0011601D01*
X0136713Y0011554D01*
X0136547Y0011510D01*
X0136380Y0011470D01*
X0136212Y0011435D01*
X0136043Y0011403D01*
X0135873Y0011376D01*
X0135703Y0011353D01*
X0135532Y0011334D01*
X0135361Y0011319D01*
X0135189Y0011308D01*
X0135018Y0011302D01*
X0134846Y0011300D01*
X0134674Y0011302D01*
X0134503Y0011308D01*
X0134331Y0011319D01*
X0134160Y0011334D01*
X0133989Y0011353D01*
X0133819Y0011376D01*
X0133649Y0011403D01*
X0133480Y0011435D01*
X0133312Y0011470D01*
X0133145Y0011510D01*
X0132979Y0011554D01*
X0132814Y0011601D01*
X0132650Y0011653D01*
X0132488Y0011709D01*
X0132327Y0011769D01*
X0132167Y0011833D01*
X0132009Y0011901D01*
X0131853Y0011972D01*
X0131699Y0012047D01*
X0131546Y0012127D01*
X0131396Y0012209D01*
X0131247Y0012296D01*
X0131101Y0012386D01*
X0130957Y0012480D01*
X0130815Y0012577D01*
X0130676Y0012678D01*
X0130539Y0012782D01*
X0130405Y0012889D01*
X0130274Y0013000D01*
X0130145Y0013113D01*
X0130019Y0013230D01*
X0129896Y0013350D01*
X0129776Y0013473D01*
X0129659Y0013599D01*
X0129546Y0013728D01*
X0129435Y0013859D01*
X0129328Y0013993D01*
X0129224Y0014130D01*
X0129123Y0014269D01*
X0129026Y0014411D01*
X0128932Y0014555D01*
X0128842Y0014701D01*
X0128755Y0014850D01*
X0128673Y0015000D01*
X0128593Y0015153D01*
X0128518Y0015307D01*
X0128447Y0015463D01*
X0128379Y0015621D01*
X0128315Y0015781D01*
X0128255Y0015942D01*
X0128199Y0016104D01*
X0128147Y0016268D01*
X0128100Y0016433D01*
X0128056Y0016599D01*
X0128016Y0016766D01*
X0127981Y0016934D01*
X0127949Y0017103D01*
X0127922Y0017273D01*
X0127899Y0017443D01*
X0127880Y0017614D01*
X0127865Y0017785D01*
X0127854Y0017957D01*
X0127848Y0018128D01*
X0127846Y0018300D01*
D14*
X0021846Y0007800D02*
X0019346Y0010300D01*
X0019346Y0015300D01*
X0021846Y0017800D01*
X0026846Y0017800D01*
X0029346Y0015300D01*
X0031846Y0017800D01*
X0036846Y0017800D01*
X0039346Y0015300D01*
X0041846Y0017800D01*
X0046846Y0017800D01*
X0049346Y0015300D01*
X0051846Y0017800D01*
X0056846Y0017800D01*
X0059346Y0015300D01*
X0059346Y0010300D01*
X0056846Y0007800D01*
X0051846Y0007800D01*
X0049346Y0010300D01*
X0046846Y0007800D01*
X0041846Y0007800D01*
X0039346Y0010300D01*
X0036846Y0007800D01*
X0031846Y0007800D01*
X0029346Y0010300D01*
X0026846Y0007800D01*
X0021846Y0007800D01*
X0073346Y0006300D02*
X0100346Y0006300D01*
X0100565Y0006303D01*
X0100784Y0006311D01*
X0101003Y0006324D01*
X0101221Y0006343D01*
X0101439Y0006367D01*
X0101656Y0006396D01*
X0101873Y0006430D01*
X0102088Y0006470D01*
X0102303Y0006515D01*
X0102516Y0006566D01*
X0102728Y0006621D01*
X0102939Y0006682D01*
X0103148Y0006747D01*
X0103355Y0006818D01*
X0103561Y0006894D01*
X0103765Y0006975D01*
X0103967Y0007060D01*
X0104166Y0007151D01*
X0104363Y0007246D01*
X0104558Y0007347D01*
X0104751Y0007452D01*
X0104941Y0007561D01*
X0105128Y0007675D01*
X0105312Y0007794D01*
X0105493Y0007917D01*
X0105671Y0008045D01*
X0105847Y0008177D01*
X0106018Y0008313D01*
X0106187Y0008453D01*
X0106352Y0008597D01*
X0106513Y0008745D01*
X0106671Y0008897D01*
X0106825Y0009053D01*
X0106975Y0009213D01*
X0107122Y0009376D01*
X0107264Y0009543D01*
X0107402Y0009713D01*
X0107536Y0009887D01*
X0107666Y0010063D01*
X0107791Y0010243D01*
X0107912Y0010426D01*
X0108028Y0010612D01*
X0108140Y0010800D01*
X0108247Y0010991D01*
X0108350Y0011185D01*
X0108448Y0011381D01*
X0108541Y0011579D01*
X0108629Y0011780D01*
X0108712Y0011983D01*
X0108791Y0012188D01*
X0108864Y0012394D01*
X0108932Y0012602D01*
X0108995Y0012812D01*
X0109053Y0013024D01*
X0109106Y0013236D01*
X0109154Y0013450D01*
X0109196Y0013665D01*
X0109233Y0013881D01*
X0109265Y0014098D01*
X0109292Y0014316D01*
X0109313Y0014534D01*
X0109329Y0014752D01*
X0109340Y0014971D01*
X0109345Y0015190D01*
X0109345Y0015410D01*
X0109340Y0015629D01*
X0109329Y0015848D01*
X0109313Y0016066D01*
X0109292Y0016284D01*
X0109265Y0016502D01*
X0109233Y0016719D01*
X0109196Y0016935D01*
X0109154Y0017150D01*
X0109106Y0017364D01*
X0109053Y0017576D01*
X0108995Y0017788D01*
X0108932Y0017998D01*
X0108864Y0018206D01*
X0108791Y0018412D01*
X0108712Y0018617D01*
X0108629Y0018820D01*
X0108541Y0019021D01*
X0108448Y0019219D01*
X0108350Y0019415D01*
X0108247Y0019609D01*
X0108140Y0019800D01*
X0108028Y0019988D01*
X0107912Y0020174D01*
X0107791Y0020357D01*
X0107666Y0020537D01*
X0107536Y0020713D01*
X0107402Y0020887D01*
X0107264Y0021057D01*
X0107122Y0021224D01*
X0106975Y0021387D01*
X0106825Y0021547D01*
X0106671Y0021703D01*
X0106513Y0021855D01*
X0106352Y0022003D01*
X0106187Y0022147D01*
X0106018Y0022287D01*
X0105847Y0022423D01*
X0105671Y0022555D01*
X0105493Y0022683D01*
X0105312Y0022806D01*
X0105128Y0022925D01*
X0104941Y0023039D01*
X0104751Y0023148D01*
X0104558Y0023253D01*
X0104363Y0023354D01*
X0104166Y0023449D01*
X0103967Y0023540D01*
X0103765Y0023625D01*
X0103561Y0023706D01*
X0103355Y0023782D01*
X0103148Y0023853D01*
X0102939Y0023918D01*
X0102728Y0023979D01*
X0102516Y0024034D01*
X0102303Y0024085D01*
X0102088Y0024130D01*
X0101873Y0024170D01*
X0101656Y0024204D01*
X0101439Y0024233D01*
X0101221Y0024257D01*
X0101003Y0024276D01*
X0100784Y0024289D01*
X0100565Y0024297D01*
X0100346Y0024300D01*
X0073346Y0024300D01*
X0073127Y0024297D01*
X0072908Y0024289D01*
X0072689Y0024276D01*
X0072471Y0024257D01*
X0072253Y0024233D01*
X0072036Y0024204D01*
X0071819Y0024170D01*
X0071604Y0024130D01*
X0071389Y0024085D01*
X0071176Y0024034D01*
X0070964Y0023979D01*
X0070753Y0023918D01*
X0070544Y0023853D01*
X0070337Y0023782D01*
X0070131Y0023706D01*
X0069927Y0023625D01*
X0069725Y0023540D01*
X0069526Y0023449D01*
X0069329Y0023354D01*
X0069134Y0023253D01*
X0068941Y0023148D01*
X0068751Y0023039D01*
X0068564Y0022925D01*
X0068380Y0022806D01*
X0068199Y0022683D01*
X0068021Y0022555D01*
X0067845Y0022423D01*
X0067674Y0022287D01*
X0067505Y0022147D01*
X0067340Y0022003D01*
X0067179Y0021855D01*
X0067021Y0021703D01*
X0066867Y0021547D01*
X0066717Y0021387D01*
X0066570Y0021224D01*
X0066428Y0021057D01*
X0066290Y0020887D01*
X0066156Y0020713D01*
X0066026Y0020537D01*
X0065901Y0020357D01*
X0065780Y0020174D01*
X0065664Y0019988D01*
X0065552Y0019800D01*
X0065445Y0019609D01*
X0065342Y0019415D01*
X0065244Y0019219D01*
X0065151Y0019021D01*
X0065063Y0018820D01*
X0064980Y0018617D01*
X0064901Y0018412D01*
X0064828Y0018206D01*
X0064760Y0017998D01*
X0064697Y0017788D01*
X0064639Y0017576D01*
X0064586Y0017364D01*
X0064538Y0017150D01*
X0064496Y0016935D01*
X0064459Y0016719D01*
X0064427Y0016502D01*
X0064400Y0016284D01*
X0064379Y0016066D01*
X0064363Y0015848D01*
X0064352Y0015629D01*
X0064347Y0015410D01*
X0064347Y0015190D01*
X0064352Y0014971D01*
X0064363Y0014752D01*
X0064379Y0014534D01*
X0064400Y0014316D01*
X0064427Y0014098D01*
X0064459Y0013881D01*
X0064496Y0013665D01*
X0064538Y0013450D01*
X0064586Y0013236D01*
X0064639Y0013024D01*
X0064697Y0012812D01*
X0064760Y0012602D01*
X0064828Y0012394D01*
X0064901Y0012188D01*
X0064980Y0011983D01*
X0065063Y0011780D01*
X0065151Y0011579D01*
X0065244Y0011381D01*
X0065342Y0011185D01*
X0065445Y0010991D01*
X0065552Y0010800D01*
X0065664Y0010612D01*
X0065780Y0010426D01*
X0065901Y0010243D01*
X0066026Y0010063D01*
X0066156Y0009887D01*
X0066290Y0009713D01*
X0066428Y0009543D01*
X0066570Y0009376D01*
X0066717Y0009213D01*
X0066867Y0009053D01*
X0067021Y0008897D01*
X0067179Y0008745D01*
X0067340Y0008597D01*
X0067505Y0008453D01*
X0067674Y0008313D01*
X0067845Y0008177D01*
X0068021Y0008045D01*
X0068199Y0007917D01*
X0068380Y0007794D01*
X0068564Y0007675D01*
X0068751Y0007561D01*
X0068941Y0007452D01*
X0069134Y0007347D01*
X0069329Y0007246D01*
X0069526Y0007151D01*
X0069725Y0007060D01*
X0069927Y0006975D01*
X0070131Y0006894D01*
X0070337Y0006818D01*
X0070544Y0006747D01*
X0070753Y0006682D01*
X0070964Y0006621D01*
X0071176Y0006566D01*
X0071389Y0006515D01*
X0071604Y0006470D01*
X0071819Y0006430D01*
X0072036Y0006396D01*
X0072253Y0006367D01*
X0072471Y0006343D01*
X0072689Y0006324D01*
X0072908Y0006311D01*
X0073127Y0006303D01*
X0073346Y0006300D01*
X0071024Y0043902D02*
X0069449Y0045477D01*
X0069449Y0080123D01*
X0071024Y0081698D01*
X0105669Y0081698D01*
X0107244Y0080123D01*
X0107244Y0045477D01*
X0105669Y0043902D01*
X0071024Y0043902D01*
X0132046Y0071000D02*
X0132046Y0071200D01*
X0132066Y0071200D01*
X0132066Y0090690D01*
X0132976Y0090690D01*
X0138946Y0090800D02*
X0142346Y0090800D01*
X0152346Y0080800D01*
X0152556Y0071120D02*
X0152556Y0090680D01*
X0151666Y0090680D01*
X0145746Y0090800D02*
X0142346Y0090800D01*
X0143346Y0100800D02*
X0138346Y0100800D01*
X0135846Y0103300D01*
X0133346Y0100800D01*
X0128346Y0100800D01*
X0125846Y0103300D01*
X0123346Y0100800D01*
X0118346Y0100800D01*
X0115846Y0103300D01*
X0113346Y0100800D01*
X0108346Y0100800D01*
X0105846Y0103300D01*
X0103346Y0100800D01*
X0098346Y0100800D01*
X0095846Y0103300D01*
X0093346Y0100800D01*
X0088346Y0100800D01*
X0085846Y0103300D01*
X0083346Y0100800D01*
X0078346Y0100800D01*
X0075846Y0103300D01*
X0073346Y0100800D01*
X0068346Y0100800D01*
X0065846Y0103300D01*
X0063346Y0100800D01*
X0058346Y0100800D01*
X0055846Y0103300D01*
X0053346Y0100800D01*
X0048346Y0100800D01*
X0045846Y0103300D01*
X0043346Y0100800D01*
X0038346Y0100800D01*
X0035846Y0103300D01*
X0033346Y0100800D01*
X0028346Y0100800D01*
X0025846Y0103300D01*
X0023346Y0100800D01*
X0018346Y0100800D01*
X0015846Y0103300D01*
X0015846Y0108300D01*
X0018346Y0110800D01*
X0023346Y0110800D01*
X0025846Y0108300D01*
X0028346Y0110800D01*
X0033346Y0110800D01*
X0035846Y0108300D01*
X0038346Y0110800D01*
X0043346Y0110800D01*
X0045846Y0108300D01*
X0048346Y0110800D01*
X0053346Y0110800D01*
X0055846Y0108300D01*
X0058346Y0110800D01*
X0063346Y0110800D01*
X0065846Y0108300D01*
X0068346Y0110800D01*
X0073346Y0110800D01*
X0075846Y0108300D01*
X0078346Y0110800D01*
X0083346Y0110800D01*
X0085846Y0108300D01*
X0088346Y0110800D01*
X0093346Y0110800D01*
X0095846Y0108300D01*
X0098346Y0110800D01*
X0103346Y0110800D01*
X0105846Y0108300D01*
X0108346Y0110800D01*
X0113346Y0110800D01*
X0115846Y0108300D01*
X0118346Y0110800D01*
X0123346Y0110800D01*
X0125846Y0108300D01*
X0128346Y0110800D01*
X0133346Y0110800D01*
X0135846Y0108300D01*
X0138346Y0110800D01*
X0143346Y0110800D01*
X0145846Y0108300D01*
X0148346Y0110800D01*
X0153346Y0110800D01*
X0155846Y0108300D01*
X0155846Y0103300D01*
X0153346Y0100800D01*
X0148346Y0100800D01*
X0145846Y0103300D01*
X0143346Y0100800D01*
X0145846Y0070800D02*
X0139146Y0070800D01*
X0133046Y0071000D02*
X0132046Y0071000D01*
X0140846Y0061800D02*
X0143346Y0064300D01*
X0148346Y0064300D01*
X0150846Y0061800D01*
X0150846Y0056800D01*
X0148346Y0054300D01*
X0150846Y0051800D01*
X0150846Y0046800D01*
X0148346Y0044300D01*
X0150846Y0041800D01*
X0150846Y0036800D01*
X0148346Y0034300D01*
X0143346Y0034300D01*
X0140846Y0036800D01*
X0140846Y0041800D01*
X0143346Y0044300D01*
X0140846Y0046800D01*
X0140846Y0051800D01*
X0143346Y0054300D01*
X0140846Y0056800D01*
X0140846Y0061800D01*
X0151476Y0070920D02*
X0152546Y0070920D01*
X0152546Y0071120D01*
X0152556Y0071120D01*
D15*
X0071485Y0078548D02*
X0071487Y0078615D01*
X0071493Y0078681D01*
X0071503Y0078747D01*
X0071517Y0078812D01*
X0071534Y0078876D01*
X0071556Y0078939D01*
X0071581Y0079001D01*
X0071610Y0079061D01*
X0071643Y0079119D01*
X0071678Y0079175D01*
X0071718Y0079229D01*
X0071760Y0079280D01*
X0071805Y0079329D01*
X0071853Y0079375D01*
X0071904Y0079418D01*
X0071957Y0079458D01*
X0072013Y0079495D01*
X0072071Y0079528D01*
X0072130Y0079558D01*
X0072191Y0079584D01*
X0072254Y0079607D01*
X0072318Y0079625D01*
X0072383Y0079640D01*
X0072449Y0079651D01*
X0072515Y0079658D01*
X0072581Y0079661D01*
X0072648Y0079660D01*
X0072714Y0079655D01*
X0072780Y0079646D01*
X0072846Y0079633D01*
X0072910Y0079616D01*
X0072973Y0079596D01*
X0073035Y0079571D01*
X0073096Y0079543D01*
X0073155Y0079512D01*
X0073211Y0079477D01*
X0073266Y0079439D01*
X0073318Y0079397D01*
X0073367Y0079352D01*
X0073414Y0079305D01*
X0073458Y0079255D01*
X0073498Y0079202D01*
X0073536Y0079147D01*
X0073570Y0079090D01*
X0073601Y0079031D01*
X0073628Y0078970D01*
X0073651Y0078908D01*
X0073671Y0078844D01*
X0073687Y0078779D01*
X0073699Y0078714D01*
X0073707Y0078648D01*
X0073711Y0078581D01*
X0073711Y0078515D01*
X0073707Y0078448D01*
X0073699Y0078382D01*
X0073687Y0078317D01*
X0073671Y0078252D01*
X0073651Y0078188D01*
X0073628Y0078126D01*
X0073601Y0078065D01*
X0073570Y0078006D01*
X0073536Y0077949D01*
X0073498Y0077894D01*
X0073458Y0077841D01*
X0073414Y0077791D01*
X0073367Y0077744D01*
X0073318Y0077699D01*
X0073266Y0077657D01*
X0073211Y0077619D01*
X0073154Y0077584D01*
X0073096Y0077553D01*
X0073035Y0077525D01*
X0072973Y0077500D01*
X0072910Y0077480D01*
X0072846Y0077463D01*
X0072780Y0077450D01*
X0072714Y0077441D01*
X0072648Y0077436D01*
X0072581Y0077435D01*
X0072515Y0077438D01*
X0072449Y0077445D01*
X0072383Y0077456D01*
X0072318Y0077471D01*
X0072254Y0077489D01*
X0072191Y0077512D01*
X0072130Y0077538D01*
X0072071Y0077568D01*
X0072013Y0077601D01*
X0071957Y0077638D01*
X0071904Y0077678D01*
X0071853Y0077721D01*
X0071805Y0077767D01*
X0071760Y0077816D01*
X0071718Y0077867D01*
X0071678Y0077921D01*
X0071643Y0077977D01*
X0071610Y0078035D01*
X0071581Y0078095D01*
X0071556Y0078157D01*
X0071534Y0078220D01*
X0071517Y0078284D01*
X0071503Y0078349D01*
X0071493Y0078415D01*
X0071487Y0078481D01*
X0071485Y0078548D01*
D16*
X0153596Y0092050D03*
M02*
