G75*
%MOIN*%
%OFA0B0*%
%FSLAX25Y25*%
%IPPOS*%
%LPD*%
%AMOC8*
5,1,8,0,0,1.08239X$1,22.5*
%
%ADD10C,0.01181*%
%ADD11R,0.05709X0.01575*%
%ADD12R,0.05906X0.07087*%
%ADD13R,0.02756X0.05906*%
%ADD14R,0.03150X0.04724*%
%ADD15R,0.05906X0.01969*%
%ADD16R,0.01969X0.05906*%
%ADD17C,0.00875*%
%ADD18R,0.04331X0.03937*%
%ADD19R,0.03937X0.06500*%
D10*
X0051468Y0045969D02*
X0054224Y0045969D01*
X0051468Y0045969D02*
X0051468Y0048725D01*
X0054224Y0048725D01*
X0054224Y0045969D01*
X0054224Y0047149D02*
X0051468Y0047149D01*
X0051468Y0048329D02*
X0054224Y0048329D01*
X0054224Y0052875D02*
X0051468Y0052875D01*
X0051468Y0055631D01*
X0054224Y0055631D01*
X0054224Y0052875D01*
X0054224Y0054055D02*
X0051468Y0054055D01*
X0051468Y0055235D02*
X0054224Y0055235D01*
X0121968Y0053375D02*
X0124724Y0053375D01*
X0121968Y0053375D02*
X0121968Y0056131D01*
X0124724Y0056131D01*
X0124724Y0053375D01*
X0124724Y0054555D02*
X0121968Y0054555D01*
X0121968Y0055735D02*
X0124724Y0055735D01*
X0124724Y0046469D02*
X0121968Y0046469D01*
X0121968Y0049225D01*
X0124724Y0049225D01*
X0124724Y0046469D01*
X0124724Y0047649D02*
X0121968Y0047649D01*
X0121968Y0048829D02*
X0124724Y0048829D01*
X0124724Y0072225D02*
X0121968Y0072225D01*
X0124724Y0072225D02*
X0124724Y0069469D01*
X0121968Y0069469D01*
X0121968Y0072225D01*
X0121968Y0070649D02*
X0124724Y0070649D01*
X0124724Y0071829D02*
X0121968Y0071829D01*
X0121968Y0079131D02*
X0124724Y0079131D01*
X0124724Y0076375D01*
X0121968Y0076375D01*
X0121968Y0079131D01*
X0121968Y0077555D02*
X0124724Y0077555D01*
X0124724Y0078735D02*
X0121968Y0078735D01*
D11*
X0032075Y0074418D03*
X0032075Y0071859D03*
X0032075Y0069300D03*
X0032075Y0066741D03*
X0032075Y0064182D03*
D12*
X0021346Y0054796D03*
X0021346Y0083804D03*
D13*
X0021346Y0069300D03*
D14*
X0053303Y0026675D03*
X0060390Y0026675D03*
X0060015Y0039300D03*
X0052928Y0039300D03*
X0116178Y0039800D03*
X0123265Y0039800D03*
X0123265Y0086300D03*
X0116178Y0086300D03*
X0050890Y0087800D03*
X0043803Y0087800D03*
D15*
X0065512Y0078548D03*
X0065512Y0075398D03*
X0065512Y0072249D03*
X0065512Y0069099D03*
X0065512Y0065950D03*
X0065512Y0062800D03*
X0065512Y0059650D03*
X0065512Y0056501D03*
X0065512Y0053351D03*
X0065512Y0050202D03*
X0065512Y0047052D03*
X0111181Y0047052D03*
X0111181Y0050202D03*
X0111181Y0053351D03*
X0111181Y0056501D03*
X0111181Y0059650D03*
X0111181Y0062800D03*
X0111181Y0065950D03*
X0111181Y0069099D03*
X0111181Y0072249D03*
X0111181Y0075398D03*
X0111181Y0078548D03*
D16*
X0104094Y0085635D03*
X0100945Y0085635D03*
X0097795Y0085635D03*
X0094646Y0085635D03*
X0091496Y0085635D03*
X0088346Y0085635D03*
X0085197Y0085635D03*
X0082047Y0085635D03*
X0078898Y0085635D03*
X0075748Y0085635D03*
X0072598Y0085635D03*
X0072598Y0039965D03*
X0075748Y0039965D03*
X0078898Y0039965D03*
X0082047Y0039965D03*
X0085197Y0039965D03*
X0088346Y0039965D03*
X0091496Y0039965D03*
X0094646Y0039965D03*
X0097795Y0039965D03*
X0100945Y0039965D03*
X0104094Y0039965D03*
D17*
X0040033Y0051987D02*
X0040033Y0054613D01*
X0042659Y0054613D01*
X0042659Y0051987D01*
X0040033Y0051987D01*
X0040033Y0052861D02*
X0042659Y0052861D01*
X0042659Y0053735D02*
X0040033Y0053735D01*
X0040033Y0054609D02*
X0042659Y0054609D01*
X0040033Y0057987D02*
X0040033Y0060613D01*
X0042659Y0060613D01*
X0042659Y0057987D01*
X0040033Y0057987D01*
X0040033Y0058861D02*
X0042659Y0058861D01*
X0042659Y0059735D02*
X0040033Y0059735D01*
X0040033Y0060609D02*
X0042659Y0060609D01*
D18*
X0044000Y0066800D03*
X0050693Y0066800D03*
X0050693Y0074300D03*
X0044000Y0074300D03*
X0075500Y0030800D03*
X0082193Y0030800D03*
X0091500Y0030800D03*
X0098193Y0030800D03*
D19*
X0136047Y0070654D03*
X0148646Y0070654D03*
X0148646Y0090946D03*
X0136047Y0090946D03*
M02*
