G75*
%MOIN*%
%OFA0B0*%
%FSLAX25Y25*%
%IPPOS*%
%LPD*%
%AMOC8*
5,1,8,0,0,1.08239X$1,22.5*
%
%ADD10C,0.00600*%
%ADD11C,0.01181*%
%ADD12R,0.07400X0.07400*%
%ADD13OC8,0.07400*%
%ADD14R,0.05709X0.01575*%
%ADD15C,0.00000*%
%ADD16R,0.05906X0.07087*%
%ADD17R,0.05906X0.09843*%
%ADD18R,0.03150X0.04724*%
%ADD19C,0.06400*%
%ADD20R,0.05906X0.01969*%
%ADD21R,0.01969X0.05906*%
%ADD22C,0.00875*%
%ADD23R,0.04331X0.03937*%
%ADD24R,0.03937X0.06500*%
%ADD25C,0.06500*%
%ADD26C,0.07400*%
%ADD27C,0.01000*%
%ADD28C,0.04165*%
%ADD29C,0.00800*%
%ADD30C,0.04000*%
%ADD31C,0.01200*%
D10*
X0013346Y0001300D02*
X0158346Y0001300D01*
X0158346Y0113800D01*
X0013346Y0113800D01*
X0013346Y0001300D01*
D11*
X0051468Y0045969D02*
X0054224Y0045969D01*
X0051468Y0045969D02*
X0051468Y0048725D01*
X0054224Y0048725D01*
X0054224Y0045969D01*
X0054224Y0047149D02*
X0051468Y0047149D01*
X0051468Y0048329D02*
X0054224Y0048329D01*
X0054224Y0052875D02*
X0051468Y0052875D01*
X0051468Y0055631D01*
X0054224Y0055631D01*
X0054224Y0052875D01*
X0054224Y0054055D02*
X0051468Y0054055D01*
X0051468Y0055235D02*
X0054224Y0055235D01*
X0121968Y0053375D02*
X0124724Y0053375D01*
X0121968Y0053375D02*
X0121968Y0056131D01*
X0124724Y0056131D01*
X0124724Y0053375D01*
X0124724Y0054555D02*
X0121968Y0054555D01*
X0121968Y0055735D02*
X0124724Y0055735D01*
X0124724Y0046469D02*
X0121968Y0046469D01*
X0121968Y0049225D01*
X0124724Y0049225D01*
X0124724Y0046469D01*
X0124724Y0047649D02*
X0121968Y0047649D01*
X0121968Y0048829D02*
X0124724Y0048829D01*
X0124724Y0072225D02*
X0121968Y0072225D01*
X0124724Y0072225D02*
X0124724Y0069469D01*
X0121968Y0069469D01*
X0121968Y0072225D01*
X0121968Y0070649D02*
X0124724Y0070649D01*
X0124724Y0071829D02*
X0121968Y0071829D01*
X0121968Y0079131D02*
X0124724Y0079131D01*
X0124724Y0076375D01*
X0121968Y0076375D01*
X0121968Y0079131D01*
X0121968Y0077555D02*
X0124724Y0077555D01*
X0124724Y0078735D02*
X0121968Y0078735D01*
D12*
X0042346Y0039800D03*
D13*
X0032346Y0039800D03*
X0022346Y0039800D03*
X0022346Y0029800D03*
X0032346Y0029800D03*
X0042346Y0029800D03*
D14*
X0032075Y0064182D03*
X0032075Y0066741D03*
X0032075Y0069300D03*
X0032075Y0071859D03*
X0032075Y0074418D03*
D15*
X0028335Y0076780D02*
X0028337Y0076861D01*
X0028343Y0076943D01*
X0028353Y0077024D01*
X0028367Y0077104D01*
X0028384Y0077183D01*
X0028406Y0077262D01*
X0028431Y0077339D01*
X0028460Y0077416D01*
X0028493Y0077490D01*
X0028530Y0077563D01*
X0028569Y0077634D01*
X0028613Y0077703D01*
X0028659Y0077770D01*
X0028709Y0077834D01*
X0028762Y0077896D01*
X0028818Y0077956D01*
X0028876Y0078012D01*
X0028938Y0078066D01*
X0029002Y0078117D01*
X0029068Y0078164D01*
X0029136Y0078208D01*
X0029207Y0078249D01*
X0029279Y0078286D01*
X0029354Y0078320D01*
X0029429Y0078350D01*
X0029507Y0078376D01*
X0029585Y0078399D01*
X0029664Y0078417D01*
X0029744Y0078432D01*
X0029825Y0078443D01*
X0029906Y0078450D01*
X0029988Y0078453D01*
X0030069Y0078452D01*
X0030150Y0078447D01*
X0030231Y0078438D01*
X0030312Y0078425D01*
X0030392Y0078408D01*
X0030470Y0078388D01*
X0030548Y0078363D01*
X0030625Y0078335D01*
X0030700Y0078303D01*
X0030773Y0078268D01*
X0030844Y0078229D01*
X0030914Y0078186D01*
X0030981Y0078141D01*
X0031047Y0078092D01*
X0031109Y0078040D01*
X0031169Y0077984D01*
X0031226Y0077926D01*
X0031281Y0077866D01*
X0031332Y0077802D01*
X0031380Y0077737D01*
X0031425Y0077669D01*
X0031467Y0077599D01*
X0031505Y0077527D01*
X0031540Y0077453D01*
X0031571Y0077378D01*
X0031598Y0077301D01*
X0031621Y0077223D01*
X0031641Y0077144D01*
X0031657Y0077064D01*
X0031669Y0076983D01*
X0031677Y0076902D01*
X0031681Y0076821D01*
X0031681Y0076739D01*
X0031677Y0076658D01*
X0031669Y0076577D01*
X0031657Y0076496D01*
X0031641Y0076416D01*
X0031621Y0076337D01*
X0031598Y0076259D01*
X0031571Y0076182D01*
X0031540Y0076107D01*
X0031505Y0076033D01*
X0031467Y0075961D01*
X0031425Y0075891D01*
X0031380Y0075823D01*
X0031332Y0075758D01*
X0031281Y0075694D01*
X0031226Y0075634D01*
X0031169Y0075576D01*
X0031109Y0075520D01*
X0031047Y0075468D01*
X0030981Y0075419D01*
X0030914Y0075374D01*
X0030845Y0075331D01*
X0030773Y0075292D01*
X0030700Y0075257D01*
X0030625Y0075225D01*
X0030548Y0075197D01*
X0030470Y0075172D01*
X0030392Y0075152D01*
X0030312Y0075135D01*
X0030231Y0075122D01*
X0030150Y0075113D01*
X0030069Y0075108D01*
X0029988Y0075107D01*
X0029906Y0075110D01*
X0029825Y0075117D01*
X0029744Y0075128D01*
X0029664Y0075143D01*
X0029585Y0075161D01*
X0029507Y0075184D01*
X0029429Y0075210D01*
X0029354Y0075240D01*
X0029279Y0075274D01*
X0029207Y0075311D01*
X0029136Y0075352D01*
X0029068Y0075396D01*
X0029002Y0075443D01*
X0028938Y0075494D01*
X0028876Y0075548D01*
X0028818Y0075604D01*
X0028762Y0075664D01*
X0028709Y0075726D01*
X0028659Y0075790D01*
X0028613Y0075857D01*
X0028569Y0075926D01*
X0028530Y0075997D01*
X0028493Y0076070D01*
X0028460Y0076144D01*
X0028431Y0076221D01*
X0028406Y0076298D01*
X0028384Y0076377D01*
X0028367Y0076456D01*
X0028353Y0076536D01*
X0028343Y0076617D01*
X0028337Y0076699D01*
X0028335Y0076780D01*
X0028335Y0061820D02*
X0028337Y0061901D01*
X0028343Y0061983D01*
X0028353Y0062064D01*
X0028367Y0062144D01*
X0028384Y0062223D01*
X0028406Y0062302D01*
X0028431Y0062379D01*
X0028460Y0062456D01*
X0028493Y0062530D01*
X0028530Y0062603D01*
X0028569Y0062674D01*
X0028613Y0062743D01*
X0028659Y0062810D01*
X0028709Y0062874D01*
X0028762Y0062936D01*
X0028818Y0062996D01*
X0028876Y0063052D01*
X0028938Y0063106D01*
X0029002Y0063157D01*
X0029068Y0063204D01*
X0029136Y0063248D01*
X0029207Y0063289D01*
X0029279Y0063326D01*
X0029354Y0063360D01*
X0029429Y0063390D01*
X0029507Y0063416D01*
X0029585Y0063439D01*
X0029664Y0063457D01*
X0029744Y0063472D01*
X0029825Y0063483D01*
X0029906Y0063490D01*
X0029988Y0063493D01*
X0030069Y0063492D01*
X0030150Y0063487D01*
X0030231Y0063478D01*
X0030312Y0063465D01*
X0030392Y0063448D01*
X0030470Y0063428D01*
X0030548Y0063403D01*
X0030625Y0063375D01*
X0030700Y0063343D01*
X0030773Y0063308D01*
X0030844Y0063269D01*
X0030914Y0063226D01*
X0030981Y0063181D01*
X0031047Y0063132D01*
X0031109Y0063080D01*
X0031169Y0063024D01*
X0031226Y0062966D01*
X0031281Y0062906D01*
X0031332Y0062842D01*
X0031380Y0062777D01*
X0031425Y0062709D01*
X0031467Y0062639D01*
X0031505Y0062567D01*
X0031540Y0062493D01*
X0031571Y0062418D01*
X0031598Y0062341D01*
X0031621Y0062263D01*
X0031641Y0062184D01*
X0031657Y0062104D01*
X0031669Y0062023D01*
X0031677Y0061942D01*
X0031681Y0061861D01*
X0031681Y0061779D01*
X0031677Y0061698D01*
X0031669Y0061617D01*
X0031657Y0061536D01*
X0031641Y0061456D01*
X0031621Y0061377D01*
X0031598Y0061299D01*
X0031571Y0061222D01*
X0031540Y0061147D01*
X0031505Y0061073D01*
X0031467Y0061001D01*
X0031425Y0060931D01*
X0031380Y0060863D01*
X0031332Y0060798D01*
X0031281Y0060734D01*
X0031226Y0060674D01*
X0031169Y0060616D01*
X0031109Y0060560D01*
X0031047Y0060508D01*
X0030981Y0060459D01*
X0030914Y0060414D01*
X0030845Y0060371D01*
X0030773Y0060332D01*
X0030700Y0060297D01*
X0030625Y0060265D01*
X0030548Y0060237D01*
X0030470Y0060212D01*
X0030392Y0060192D01*
X0030312Y0060175D01*
X0030231Y0060162D01*
X0030150Y0060153D01*
X0030069Y0060148D01*
X0029988Y0060147D01*
X0029906Y0060150D01*
X0029825Y0060157D01*
X0029744Y0060168D01*
X0029664Y0060183D01*
X0029585Y0060201D01*
X0029507Y0060224D01*
X0029429Y0060250D01*
X0029354Y0060280D01*
X0029279Y0060314D01*
X0029207Y0060351D01*
X0029136Y0060392D01*
X0029068Y0060436D01*
X0029002Y0060483D01*
X0028938Y0060534D01*
X0028876Y0060588D01*
X0028818Y0060644D01*
X0028762Y0060704D01*
X0028709Y0060766D01*
X0028659Y0060830D01*
X0028613Y0060897D01*
X0028569Y0060966D01*
X0028530Y0061037D01*
X0028493Y0061110D01*
X0028460Y0061184D01*
X0028431Y0061261D01*
X0028406Y0061338D01*
X0028384Y0061417D01*
X0028367Y0061496D01*
X0028353Y0061576D01*
X0028343Y0061657D01*
X0028337Y0061739D01*
X0028335Y0061820D01*
D16*
X0021346Y0054792D03*
X0021346Y0083808D03*
D17*
X0021346Y0069300D03*
D18*
X0043803Y0087800D03*
X0050890Y0087800D03*
X0052928Y0039300D03*
X0060015Y0039300D03*
X0060390Y0026675D03*
X0053303Y0026675D03*
X0116178Y0039800D03*
X0123265Y0039800D03*
X0123265Y0086300D03*
X0116178Y0086300D03*
D19*
X0118846Y0027200D02*
X0125246Y0027200D01*
X0144446Y0027200D02*
X0150846Y0027200D01*
X0150846Y0009400D02*
X0144446Y0009400D01*
X0125246Y0009400D02*
X0118846Y0009400D01*
D20*
X0111181Y0047052D03*
X0111181Y0050202D03*
X0111181Y0053351D03*
X0111181Y0056501D03*
X0111181Y0059650D03*
X0111181Y0062800D03*
X0111181Y0065950D03*
X0111181Y0069099D03*
X0111181Y0072249D03*
X0111181Y0075398D03*
X0111181Y0078548D03*
X0065512Y0078548D03*
X0065512Y0075398D03*
X0065512Y0072249D03*
X0065512Y0069099D03*
X0065512Y0065950D03*
X0065512Y0062800D03*
X0065512Y0059650D03*
X0065512Y0056501D03*
X0065512Y0053351D03*
X0065512Y0050202D03*
X0065512Y0047052D03*
D21*
X0072598Y0039965D03*
X0075748Y0039965D03*
X0078898Y0039965D03*
X0082047Y0039965D03*
X0085197Y0039965D03*
X0088346Y0039965D03*
X0091496Y0039965D03*
X0094646Y0039965D03*
X0097795Y0039965D03*
X0100945Y0039965D03*
X0104094Y0039965D03*
X0104094Y0085635D03*
X0100945Y0085635D03*
X0097795Y0085635D03*
X0094646Y0085635D03*
X0091496Y0085635D03*
X0088346Y0085635D03*
X0085197Y0085635D03*
X0082047Y0085635D03*
X0078898Y0085635D03*
X0075748Y0085635D03*
X0072598Y0085635D03*
D22*
X0040033Y0060613D02*
X0040033Y0057987D01*
X0040033Y0060613D02*
X0042659Y0060613D01*
X0042659Y0057987D01*
X0040033Y0057987D01*
X0040033Y0058861D02*
X0042659Y0058861D01*
X0042659Y0059735D02*
X0040033Y0059735D01*
X0040033Y0060609D02*
X0042659Y0060609D01*
X0040033Y0054613D02*
X0040033Y0051987D01*
X0040033Y0054613D02*
X0042659Y0054613D01*
X0042659Y0051987D01*
X0040033Y0051987D01*
X0040033Y0052861D02*
X0042659Y0052861D01*
X0042659Y0053735D02*
X0040033Y0053735D01*
X0040033Y0054609D02*
X0042659Y0054609D01*
D23*
X0044000Y0066800D03*
X0050693Y0066800D03*
X0050693Y0074300D03*
X0044000Y0074300D03*
X0075500Y0030800D03*
X0082193Y0030800D03*
X0091500Y0030800D03*
X0098193Y0030800D03*
D24*
X0136047Y0070654D03*
X0148646Y0070654D03*
X0148646Y0090946D03*
X0136047Y0090946D03*
D25*
X0096846Y0015300D03*
X0076846Y0015300D03*
D26*
X0054346Y0012800D03*
X0044346Y0012800D03*
X0034346Y0012800D03*
X0024346Y0012800D03*
X0145846Y0039300D03*
X0145846Y0049300D03*
X0145846Y0059300D03*
X0140846Y0105800D03*
X0130846Y0105800D03*
X0120846Y0105800D03*
X0110846Y0105800D03*
X0100846Y0105800D03*
X0090846Y0105800D03*
X0080846Y0105800D03*
X0070846Y0105800D03*
X0060846Y0105800D03*
X0050846Y0105800D03*
X0040846Y0105800D03*
X0030846Y0105800D03*
X0020846Y0105800D03*
X0150846Y0105800D03*
D27*
X0155520Y0104018D02*
X0156746Y0104018D01*
X0156746Y0105016D02*
X0155846Y0105016D01*
X0155846Y0104805D02*
X0155846Y0106795D01*
X0155085Y0108632D01*
X0153679Y0110039D01*
X0151841Y0110800D01*
X0149852Y0110800D01*
X0148014Y0110039D01*
X0146608Y0108632D01*
X0145846Y0106795D01*
X0145085Y0108632D01*
X0143679Y0110039D01*
X0141841Y0110800D01*
X0139852Y0110800D01*
X0138014Y0110039D01*
X0136608Y0108632D01*
X0135846Y0106795D01*
X0135085Y0108632D01*
X0133679Y0110039D01*
X0131841Y0110800D01*
X0129852Y0110800D01*
X0128014Y0110039D01*
X0126608Y0108632D01*
X0125846Y0106795D01*
X0125085Y0108632D01*
X0123679Y0110039D01*
X0121841Y0110800D01*
X0119852Y0110800D01*
X0118014Y0110039D01*
X0116608Y0108632D01*
X0115846Y0106795D01*
X0115085Y0108632D01*
X0113679Y0110039D01*
X0111841Y0110800D01*
X0109852Y0110800D01*
X0108014Y0110039D01*
X0106608Y0108632D01*
X0105846Y0106795D01*
X0105085Y0108632D01*
X0103679Y0110039D01*
X0101841Y0110800D01*
X0099852Y0110800D01*
X0098014Y0110039D01*
X0096608Y0108632D01*
X0095846Y0106795D01*
X0095085Y0108632D01*
X0093679Y0110039D01*
X0091841Y0110800D01*
X0089852Y0110800D01*
X0088014Y0110039D01*
X0086608Y0108632D01*
X0085846Y0106795D01*
X0085085Y0108632D01*
X0083679Y0110039D01*
X0081841Y0110800D01*
X0079852Y0110800D01*
X0078014Y0110039D01*
X0076608Y0108632D01*
X0075846Y0106795D01*
X0075085Y0108632D01*
X0073679Y0110039D01*
X0071841Y0110800D01*
X0069852Y0110800D01*
X0068014Y0110039D01*
X0066608Y0108632D01*
X0065846Y0106795D01*
X0065085Y0108632D01*
X0063679Y0110039D01*
X0061841Y0110800D01*
X0059852Y0110800D01*
X0058014Y0110039D01*
X0056608Y0108632D01*
X0055846Y0106795D01*
X0055085Y0108632D01*
X0053679Y0110039D01*
X0051841Y0110800D01*
X0049852Y0110800D01*
X0048014Y0110039D01*
X0046608Y0108632D01*
X0045846Y0106795D01*
X0045085Y0108632D01*
X0043679Y0110039D01*
X0041841Y0110800D01*
X0039852Y0110800D01*
X0038014Y0110039D01*
X0036608Y0108632D01*
X0035924Y0106982D01*
X0035918Y0107018D01*
X0035665Y0107796D01*
X0035294Y0108525D01*
X0034813Y0109188D01*
X0034234Y0109766D01*
X0033572Y0110247D01*
X0032843Y0110619D01*
X0032064Y0110872D01*
X0031346Y0110986D01*
X0031346Y0106300D01*
X0030346Y0106300D01*
X0030346Y0110986D01*
X0029629Y0110872D01*
X0028850Y0110619D01*
X0028121Y0110247D01*
X0027459Y0109766D01*
X0026880Y0109188D01*
X0026399Y0108525D01*
X0026027Y0107796D01*
X0025774Y0107018D01*
X0025769Y0106982D01*
X0025085Y0108632D01*
X0023679Y0110039D01*
X0021841Y0110800D01*
X0019852Y0110800D01*
X0018014Y0110039D01*
X0016608Y0108632D01*
X0015846Y0106795D01*
X0015846Y0104805D01*
X0016608Y0102968D01*
X0018014Y0101561D01*
X0019146Y0101092D01*
X0019146Y0098654D01*
X0038330Y0079471D01*
X0035365Y0076505D01*
X0032981Y0076505D01*
X0032981Y0077372D01*
X0032528Y0078465D01*
X0031692Y0079301D01*
X0030599Y0079754D01*
X0029416Y0079754D01*
X0028324Y0079301D01*
X0027487Y0078465D01*
X0027035Y0077372D01*
X0027035Y0076189D01*
X0027487Y0075096D01*
X0027920Y0074663D01*
X0027920Y0065718D01*
X0027823Y0065548D01*
X0027720Y0065167D01*
X0027720Y0064182D01*
X0028165Y0064182D01*
X0027720Y0064182D01*
X0027720Y0063737D01*
X0027487Y0063504D01*
X0027035Y0062411D01*
X0027035Y0061228D01*
X0027487Y0060135D01*
X0028324Y0059299D01*
X0029416Y0058846D01*
X0030599Y0058846D01*
X0031692Y0059299D01*
X0032528Y0060135D01*
X0032981Y0061228D01*
X0032981Y0061894D01*
X0035127Y0061894D01*
X0035508Y0061997D01*
X0035850Y0062194D01*
X0036129Y0062473D01*
X0036327Y0062816D01*
X0036429Y0063197D01*
X0036429Y0064182D01*
X0036429Y0065167D01*
X0036327Y0065548D01*
X0036229Y0065718D01*
X0036229Y0067600D01*
X0040535Y0067600D01*
X0040535Y0064293D01*
X0041296Y0063531D01*
X0046704Y0063531D01*
X0047346Y0064174D01*
X0047989Y0063531D01*
X0053397Y0063531D01*
X0054158Y0064293D01*
X0054158Y0067399D01*
X0061131Y0067399D01*
X0061059Y0067131D01*
X0061059Y0065950D01*
X0065512Y0065950D01*
X0069965Y0065950D01*
X0069965Y0067131D01*
X0069862Y0067513D01*
X0069765Y0067682D01*
X0069765Y0070622D01*
X0069712Y0070674D01*
X0069765Y0070726D01*
X0069765Y0072195D01*
X0073559Y0068400D01*
X0085972Y0068400D01*
X0085979Y0068384D01*
X0086930Y0067432D01*
X0086946Y0067426D01*
X0086946Y0059600D01*
X0085690Y0059600D01*
X0084477Y0059098D01*
X0083579Y0058200D01*
X0079685Y0058200D01*
X0077297Y0060587D01*
X0076184Y0061700D01*
X0069765Y0061700D01*
X0069765Y0064217D01*
X0069862Y0064386D01*
X0069965Y0064768D01*
X0069965Y0065950D01*
X0065512Y0065950D01*
X0065512Y0065950D01*
X0065512Y0065950D01*
X0061059Y0065950D01*
X0061059Y0064768D01*
X0061077Y0064700D01*
X0058059Y0064700D01*
X0054559Y0061200D01*
X0044396Y0061200D01*
X0044396Y0061332D01*
X0043379Y0062350D01*
X0039314Y0062350D01*
X0038296Y0061332D01*
X0038296Y0057268D01*
X0039197Y0056367D01*
X0038844Y0056163D01*
X0038484Y0055802D01*
X0038228Y0055360D01*
X0038096Y0054868D01*
X0038096Y0053675D01*
X0040971Y0053675D01*
X0040971Y0052925D01*
X0038096Y0052925D01*
X0038096Y0051732D01*
X0038228Y0051240D01*
X0038484Y0050798D01*
X0038844Y0050437D01*
X0039286Y0050182D01*
X0039779Y0050050D01*
X0040792Y0050050D01*
X0036642Y0045900D01*
X0035646Y0044904D01*
X0035646Y0043571D01*
X0034418Y0044800D01*
X0030275Y0044800D01*
X0027346Y0041871D01*
X0024418Y0044800D01*
X0020275Y0044800D01*
X0017346Y0041871D01*
X0017346Y0037729D01*
X0020134Y0034941D01*
X0017146Y0031954D01*
X0017146Y0030300D01*
X0021846Y0030300D01*
X0021846Y0029300D01*
X0017146Y0029300D01*
X0017146Y0027646D01*
X0020193Y0024600D01*
X0021846Y0024600D01*
X0021846Y0029300D01*
X0022846Y0029300D01*
X0022846Y0024600D01*
X0024500Y0024600D01*
X0026321Y0026421D01*
X0028846Y0023896D01*
X0029842Y0022900D01*
X0047646Y0022900D01*
X0047646Y0016571D01*
X0047179Y0017039D01*
X0045341Y0017800D01*
X0043352Y0017800D01*
X0041514Y0017039D01*
X0040108Y0015632D01*
X0039346Y0013795D01*
X0038585Y0015632D01*
X0037179Y0017039D01*
X0035341Y0017800D01*
X0033352Y0017800D01*
X0031514Y0017039D01*
X0030108Y0015632D01*
X0029346Y0013795D01*
X0028585Y0015632D01*
X0027179Y0017039D01*
X0025341Y0017800D01*
X0023352Y0017800D01*
X0021514Y0017039D01*
X0020108Y0015632D01*
X0019346Y0013795D01*
X0019346Y0011805D01*
X0020108Y0009968D01*
X0021514Y0008561D01*
X0023352Y0007800D01*
X0025341Y0007800D01*
X0027179Y0008561D01*
X0028585Y0009968D01*
X0029346Y0011805D01*
X0029346Y0013795D01*
X0029346Y0011805D01*
X0030108Y0009968D01*
X0031514Y0008561D01*
X0033352Y0007800D01*
X0035341Y0007800D01*
X0037179Y0008561D01*
X0038585Y0009968D01*
X0039346Y0011805D01*
X0039346Y0013795D01*
X0039346Y0011805D01*
X0040108Y0009968D01*
X0041514Y0008561D01*
X0043352Y0007800D01*
X0045341Y0007800D01*
X0047179Y0008561D01*
X0048080Y0009462D01*
X0048642Y0008900D01*
X0051442Y0006100D01*
X0098851Y0006100D01*
X0099846Y0007096D01*
X0100451Y0007700D01*
X0114680Y0007700D01*
X0115032Y0006851D01*
X0116297Y0005585D01*
X0117951Y0004900D01*
X0126142Y0004900D01*
X0127795Y0005585D01*
X0129061Y0006851D01*
X0129413Y0007700D01*
X0140280Y0007700D01*
X0140632Y0006851D01*
X0141897Y0005585D01*
X0143551Y0004900D01*
X0151742Y0004900D01*
X0153395Y0005585D01*
X0154661Y0006851D01*
X0155346Y0008505D01*
X0155346Y0010295D01*
X0154661Y0011949D01*
X0153395Y0013215D01*
X0151742Y0013900D01*
X0143551Y0013900D01*
X0141897Y0013215D01*
X0140632Y0011949D01*
X0140280Y0011100D01*
X0129413Y0011100D01*
X0129061Y0011949D01*
X0127795Y0013215D01*
X0126142Y0013900D01*
X0117951Y0013900D01*
X0116297Y0013215D01*
X0115032Y0011949D01*
X0114680Y0011100D01*
X0101451Y0011100D01*
X0103446Y0013096D01*
X0103446Y0034104D01*
X0102646Y0034904D01*
X0102646Y0035713D01*
X0105617Y0035713D01*
X0106379Y0036474D01*
X0106379Y0038100D01*
X0113303Y0038100D01*
X0113303Y0036899D01*
X0114065Y0036138D01*
X0118291Y0036138D01*
X0118377Y0036224D01*
X0118601Y0036000D01*
X0122201Y0032400D01*
X0148892Y0032400D01*
X0149946Y0033454D01*
X0149946Y0033454D01*
X0152746Y0036254D01*
X0152746Y0062146D01*
X0148788Y0066104D01*
X0151153Y0066104D01*
X0151914Y0066866D01*
X0151914Y0074443D01*
X0151153Y0075204D01*
X0146139Y0075204D01*
X0145377Y0074443D01*
X0145377Y0069115D01*
X0142092Y0072400D01*
X0139316Y0072400D01*
X0139316Y0074443D01*
X0138554Y0075204D01*
X0134246Y0075204D01*
X0134246Y0079496D01*
X0145177Y0090427D01*
X0145177Y0087498D01*
X0145279Y0087117D01*
X0145477Y0086775D01*
X0145756Y0086495D01*
X0146098Y0086298D01*
X0146480Y0086196D01*
X0148161Y0086196D01*
X0148161Y0090461D01*
X0149130Y0090461D01*
X0149130Y0086196D01*
X0150812Y0086196D01*
X0151193Y0086298D01*
X0151535Y0086495D01*
X0151814Y0086775D01*
X0152012Y0087117D01*
X0152114Y0087498D01*
X0152114Y0090461D01*
X0149130Y0090461D01*
X0149130Y0091430D01*
X0148161Y0091430D01*
X0148161Y0095696D01*
X0147046Y0095696D01*
X0147046Y0099896D01*
X0148507Y0101357D01*
X0149852Y0100800D01*
X0151841Y0100800D01*
X0153679Y0101561D01*
X0155085Y0102968D01*
X0155846Y0104805D01*
X0155846Y0106015D02*
X0156746Y0106015D01*
X0156746Y0107013D02*
X0155756Y0107013D01*
X0155342Y0108012D02*
X0156746Y0108012D01*
X0156746Y0109010D02*
X0154707Y0109010D01*
X0153709Y0110009D02*
X0156746Y0110009D01*
X0156746Y0111007D02*
X0014946Y0111007D01*
X0014946Y0110009D02*
X0017984Y0110009D01*
X0016986Y0109010D02*
X0014946Y0109010D01*
X0014946Y0108012D02*
X0016351Y0108012D01*
X0015937Y0107013D02*
X0014946Y0107013D01*
X0014946Y0106015D02*
X0015846Y0106015D01*
X0015846Y0105016D02*
X0014946Y0105016D01*
X0014946Y0104018D02*
X0016173Y0104018D01*
X0016586Y0103019D02*
X0014946Y0103019D01*
X0014946Y0102021D02*
X0017555Y0102021D01*
X0019146Y0101022D02*
X0014946Y0101022D01*
X0014946Y0100024D02*
X0019146Y0100024D01*
X0019146Y0099025D02*
X0014946Y0099025D01*
X0014946Y0098027D02*
X0019774Y0098027D01*
X0020773Y0097028D02*
X0014946Y0097028D01*
X0014946Y0096030D02*
X0021771Y0096030D01*
X0022770Y0095031D02*
X0014946Y0095031D01*
X0014946Y0094033D02*
X0023768Y0094033D01*
X0024767Y0093034D02*
X0014946Y0093034D01*
X0014946Y0092036D02*
X0025765Y0092036D01*
X0026764Y0091037D02*
X0014946Y0091037D01*
X0014946Y0090039D02*
X0027762Y0090039D01*
X0028761Y0089040D02*
X0014946Y0089040D01*
X0014946Y0088042D02*
X0017060Y0088042D01*
X0016996Y0087930D02*
X0016894Y0087549D01*
X0016894Y0084308D01*
X0020846Y0084308D01*
X0020846Y0083308D01*
X0016894Y0083308D01*
X0016894Y0080067D01*
X0016996Y0079686D01*
X0017193Y0079344D01*
X0017473Y0079064D01*
X0017815Y0078867D01*
X0018196Y0078765D01*
X0020846Y0078765D01*
X0020846Y0083308D01*
X0021846Y0083308D01*
X0021846Y0078765D01*
X0024497Y0078765D01*
X0024878Y0078867D01*
X0025220Y0079064D01*
X0025499Y0079344D01*
X0025697Y0079686D01*
X0025799Y0080067D01*
X0025799Y0083308D01*
X0021846Y0083308D01*
X0021846Y0084308D01*
X0020846Y0084308D01*
X0020846Y0088851D01*
X0018196Y0088851D01*
X0017815Y0088749D01*
X0017473Y0088551D01*
X0017193Y0088272D01*
X0016996Y0087930D01*
X0016894Y0087043D02*
X0014946Y0087043D01*
X0014946Y0086045D02*
X0016894Y0086045D01*
X0016894Y0085046D02*
X0014946Y0085046D01*
X0014946Y0084048D02*
X0020846Y0084048D01*
X0020846Y0085046D02*
X0021846Y0085046D01*
X0021846Y0084308D02*
X0021846Y0088851D01*
X0024497Y0088851D01*
X0024878Y0088749D01*
X0025220Y0088551D01*
X0025499Y0088272D01*
X0025697Y0087930D01*
X0025799Y0087549D01*
X0025799Y0084308D01*
X0021846Y0084308D01*
X0021846Y0084048D02*
X0033753Y0084048D01*
X0032755Y0085046D02*
X0025799Y0085046D01*
X0025799Y0086045D02*
X0031756Y0086045D01*
X0030758Y0087043D02*
X0025799Y0087043D01*
X0025633Y0088042D02*
X0029759Y0088042D01*
X0032853Y0090039D02*
X0040728Y0090039D01*
X0040728Y0090360D02*
X0040728Y0088087D01*
X0043516Y0088087D01*
X0043516Y0087513D01*
X0040728Y0087513D01*
X0040728Y0085240D01*
X0040831Y0084859D01*
X0041028Y0084517D01*
X0041307Y0084238D01*
X0041649Y0084040D01*
X0042031Y0083938D01*
X0043516Y0083938D01*
X0043516Y0087513D01*
X0044091Y0087513D01*
X0044091Y0088087D01*
X0046878Y0088087D01*
X0046878Y0090360D01*
X0046776Y0090741D01*
X0046578Y0091083D01*
X0046299Y0091362D01*
X0045957Y0091560D01*
X0045575Y0091662D01*
X0044091Y0091662D01*
X0044091Y0088087D01*
X0043516Y0088087D01*
X0043516Y0091662D01*
X0042031Y0091662D01*
X0041649Y0091560D01*
X0041307Y0091362D01*
X0041028Y0091083D01*
X0040831Y0090741D01*
X0040728Y0090360D01*
X0041002Y0091037D02*
X0031855Y0091037D01*
X0030856Y0092036D02*
X0072707Y0092036D01*
X0073705Y0091037D02*
X0053428Y0091037D01*
X0053765Y0090701D02*
X0053003Y0091462D01*
X0048776Y0091462D01*
X0048015Y0090701D01*
X0048015Y0084899D01*
X0048776Y0084138D01*
X0051322Y0084138D01*
X0054259Y0081200D01*
X0041806Y0081200D01*
X0041706Y0081365D01*
X0041467Y0081425D01*
X0022746Y0100146D01*
X0022746Y0101175D01*
X0023679Y0101561D01*
X0025085Y0102968D01*
X0025769Y0104618D01*
X0025774Y0104582D01*
X0026027Y0103804D01*
X0026399Y0103075D01*
X0026880Y0102412D01*
X0027459Y0101834D01*
X0028121Y0101353D01*
X0028850Y0100981D01*
X0029629Y0100728D01*
X0030346Y0100614D01*
X0030346Y0105300D01*
X0031346Y0105300D01*
X0031346Y0100614D01*
X0032064Y0100728D01*
X0032843Y0100981D01*
X0033572Y0101353D01*
X0034234Y0101834D01*
X0034813Y0102412D01*
X0035294Y0103075D01*
X0035665Y0103804D01*
X0035918Y0104582D01*
X0035924Y0104618D01*
X0036608Y0102968D01*
X0038014Y0101561D01*
X0039852Y0100800D01*
X0041841Y0100800D01*
X0043044Y0101298D01*
X0048642Y0095700D01*
X0069042Y0095700D01*
X0074655Y0090087D01*
X0074566Y0090087D01*
X0074185Y0089985D01*
X0074015Y0089887D01*
X0071076Y0089887D01*
X0070314Y0089126D01*
X0070314Y0082143D01*
X0070746Y0081711D01*
X0070746Y0079746D01*
X0069765Y0078764D01*
X0069765Y0080071D01*
X0069003Y0080832D01*
X0062021Y0080832D01*
X0061259Y0080071D01*
X0061259Y0077025D01*
X0061311Y0076973D01*
X0061259Y0076921D01*
X0061259Y0073949D01*
X0054158Y0073949D01*
X0054158Y0076807D01*
X0053565Y0077400D01*
X0054580Y0077400D01*
X0055477Y0076502D01*
X0056690Y0076000D01*
X0058003Y0076000D01*
X0059216Y0076502D01*
X0060144Y0077431D01*
X0060646Y0078644D01*
X0060646Y0079956D01*
X0060144Y0081169D01*
X0059216Y0082098D01*
X0058396Y0082437D01*
X0053765Y0087069D01*
X0053765Y0090701D01*
X0053765Y0090039D02*
X0074385Y0090039D01*
X0071708Y0093034D02*
X0029858Y0093034D01*
X0028859Y0094033D02*
X0070710Y0094033D01*
X0069711Y0095031D02*
X0027861Y0095031D01*
X0026862Y0096030D02*
X0048313Y0096030D01*
X0047314Y0097028D02*
X0025864Y0097028D01*
X0024865Y0098027D02*
X0046315Y0098027D01*
X0045317Y0099025D02*
X0023867Y0099025D01*
X0022868Y0100024D02*
X0044318Y0100024D01*
X0043320Y0101022D02*
X0042378Y0101022D01*
X0039315Y0101022D02*
X0032924Y0101022D01*
X0031346Y0101022D02*
X0030346Y0101022D01*
X0030346Y0102021D02*
X0031346Y0102021D01*
X0031346Y0103019D02*
X0030346Y0103019D01*
X0030346Y0104018D02*
X0031346Y0104018D01*
X0031346Y0105016D02*
X0030346Y0105016D01*
X0030346Y0107013D02*
X0031346Y0107013D01*
X0031346Y0108012D02*
X0030346Y0108012D01*
X0030346Y0109010D02*
X0031346Y0109010D01*
X0031346Y0110009D02*
X0030346Y0110009D01*
X0027793Y0110009D02*
X0023709Y0110009D01*
X0024707Y0109010D02*
X0026751Y0109010D01*
X0026137Y0108012D02*
X0025342Y0108012D01*
X0025756Y0107013D02*
X0025774Y0107013D01*
X0025958Y0104018D02*
X0025520Y0104018D01*
X0025107Y0103019D02*
X0026439Y0103019D01*
X0027272Y0102021D02*
X0024138Y0102021D01*
X0022746Y0101022D02*
X0028769Y0101022D01*
X0034421Y0102021D02*
X0037555Y0102021D01*
X0036586Y0103019D02*
X0035254Y0103019D01*
X0035735Y0104018D02*
X0036173Y0104018D01*
X0035937Y0107013D02*
X0035919Y0107013D01*
X0035556Y0108012D02*
X0036351Y0108012D01*
X0036986Y0109010D02*
X0034941Y0109010D01*
X0033900Y0110009D02*
X0037984Y0110009D01*
X0043709Y0110009D02*
X0047984Y0110009D01*
X0046986Y0109010D02*
X0044707Y0109010D01*
X0045342Y0108012D02*
X0046351Y0108012D01*
X0045937Y0107013D02*
X0045756Y0107013D01*
X0045846Y0106795D02*
X0045846Y0104805D01*
X0045407Y0103744D01*
X0050051Y0099100D01*
X0055242Y0099100D01*
X0053044Y0101298D01*
X0051841Y0100800D01*
X0049852Y0100800D01*
X0048014Y0101561D01*
X0046608Y0102968D01*
X0045846Y0104805D01*
X0045846Y0106795D01*
X0045846Y0106015D02*
X0045846Y0106015D01*
X0045846Y0105016D02*
X0045846Y0105016D01*
X0045520Y0104018D02*
X0046173Y0104018D01*
X0046131Y0103019D02*
X0046586Y0103019D01*
X0047130Y0102021D02*
X0047555Y0102021D01*
X0048128Y0101022D02*
X0049315Y0101022D01*
X0049127Y0100024D02*
X0054318Y0100024D01*
X0053320Y0101022D02*
X0052378Y0101022D01*
X0055407Y0103744D02*
X0055846Y0104805D01*
X0055846Y0106795D01*
X0055846Y0104805D01*
X0056608Y0102968D01*
X0058014Y0101561D01*
X0059852Y0100800D01*
X0061841Y0100800D01*
X0063044Y0101298D01*
X0063642Y0100700D01*
X0058451Y0100700D01*
X0055407Y0103744D01*
X0055520Y0104018D02*
X0056173Y0104018D01*
X0056131Y0103019D02*
X0056586Y0103019D01*
X0057130Y0102021D02*
X0057555Y0102021D01*
X0058128Y0101022D02*
X0059315Y0101022D01*
X0062378Y0101022D02*
X0063320Y0101022D01*
X0065407Y0103744D02*
X0066851Y0102300D01*
X0067275Y0102300D01*
X0066608Y0102968D01*
X0065846Y0104805D01*
X0065846Y0106795D01*
X0065846Y0104805D01*
X0065407Y0103744D01*
X0065520Y0104018D02*
X0066173Y0104018D01*
X0066131Y0103019D02*
X0066586Y0103019D01*
X0065846Y0105016D02*
X0065846Y0105016D01*
X0065846Y0106015D02*
X0065846Y0106015D01*
X0065756Y0107013D02*
X0065937Y0107013D01*
X0066351Y0108012D02*
X0065342Y0108012D01*
X0064707Y0109010D02*
X0066986Y0109010D01*
X0067984Y0110009D02*
X0063709Y0110009D01*
X0057984Y0110009D02*
X0053709Y0110009D01*
X0054707Y0109010D02*
X0056986Y0109010D01*
X0056351Y0108012D02*
X0055342Y0108012D01*
X0055756Y0107013D02*
X0055937Y0107013D01*
X0055846Y0106015D02*
X0055846Y0106015D01*
X0055846Y0105016D02*
X0055846Y0105016D01*
X0073709Y0110009D02*
X0077984Y0110009D01*
X0076986Y0109010D02*
X0074707Y0109010D01*
X0075342Y0108012D02*
X0076351Y0108012D01*
X0075937Y0107013D02*
X0075756Y0107013D01*
X0075846Y0106795D02*
X0075846Y0104805D01*
X0075407Y0103744D01*
X0089263Y0089887D01*
X0089646Y0089887D01*
X0089646Y0094696D01*
X0083044Y0101298D01*
X0081841Y0100800D01*
X0079852Y0100800D01*
X0078014Y0101561D01*
X0076608Y0102968D01*
X0075846Y0104805D01*
X0075846Y0106795D01*
X0075846Y0106015D02*
X0075846Y0106015D01*
X0075846Y0105016D02*
X0075846Y0105016D01*
X0075520Y0104018D02*
X0076173Y0104018D01*
X0076131Y0103019D02*
X0076586Y0103019D01*
X0077130Y0102021D02*
X0077555Y0102021D01*
X0078128Y0101022D02*
X0079315Y0101022D01*
X0079127Y0100024D02*
X0084318Y0100024D01*
X0083320Y0101022D02*
X0082378Y0101022D01*
X0080125Y0099025D02*
X0085317Y0099025D01*
X0086315Y0098027D02*
X0081124Y0098027D01*
X0082122Y0097028D02*
X0087314Y0097028D01*
X0088313Y0096030D02*
X0083121Y0096030D01*
X0084119Y0095031D02*
X0089311Y0095031D01*
X0089646Y0094033D02*
X0085118Y0094033D01*
X0086116Y0093034D02*
X0089646Y0093034D01*
X0089646Y0092036D02*
X0087115Y0092036D01*
X0088113Y0091037D02*
X0089646Y0091037D01*
X0089646Y0090039D02*
X0089112Y0090039D01*
X0096246Y0090039D02*
X0096446Y0090039D01*
X0096446Y0089887D02*
X0096273Y0089887D01*
X0096246Y0089861D01*
X0096246Y0102904D01*
X0095407Y0103744D01*
X0095846Y0104805D01*
X0096446Y0103357D01*
X0096446Y0089887D01*
X0096446Y0091037D02*
X0096246Y0091037D01*
X0096246Y0092036D02*
X0096446Y0092036D01*
X0096446Y0093034D02*
X0096246Y0093034D01*
X0096246Y0094033D02*
X0096446Y0094033D01*
X0096446Y0095031D02*
X0096246Y0095031D01*
X0096246Y0096030D02*
X0096446Y0096030D01*
X0096446Y0097028D02*
X0096246Y0097028D01*
X0096246Y0098027D02*
X0096446Y0098027D01*
X0096446Y0099025D02*
X0096246Y0099025D01*
X0096246Y0100024D02*
X0096446Y0100024D01*
X0096446Y0101022D02*
X0096246Y0101022D01*
X0096246Y0102021D02*
X0096446Y0102021D01*
X0096446Y0103019D02*
X0096131Y0103019D01*
X0096173Y0104018D02*
X0095520Y0104018D01*
X0095846Y0104805D02*
X0095846Y0106795D01*
X0095846Y0104805D01*
X0095846Y0105016D02*
X0095846Y0105016D01*
X0095846Y0106015D02*
X0095846Y0106015D01*
X0095756Y0107013D02*
X0095937Y0107013D01*
X0096351Y0108012D02*
X0095342Y0108012D01*
X0094707Y0109010D02*
X0096986Y0109010D01*
X0097984Y0110009D02*
X0093709Y0110009D01*
X0087984Y0110009D02*
X0083709Y0110009D01*
X0084707Y0109010D02*
X0086986Y0109010D01*
X0086351Y0108012D02*
X0085342Y0108012D01*
X0085756Y0107013D02*
X0085937Y0107013D01*
X0085846Y0106795D02*
X0085846Y0104805D01*
X0085846Y0106795D01*
X0085846Y0106015D02*
X0085846Y0106015D01*
X0085846Y0105016D02*
X0085846Y0105016D01*
X0085846Y0104805D02*
X0085407Y0103744D01*
X0092846Y0096304D01*
X0092846Y0101216D01*
X0091841Y0100800D01*
X0089852Y0100800D01*
X0088014Y0101561D01*
X0086608Y0102968D01*
X0085846Y0104805D01*
X0085520Y0104018D02*
X0086173Y0104018D01*
X0086131Y0103019D02*
X0086586Y0103019D01*
X0087130Y0102021D02*
X0087555Y0102021D01*
X0088128Y0101022D02*
X0089315Y0101022D01*
X0089127Y0100024D02*
X0092846Y0100024D01*
X0092846Y0101022D02*
X0092378Y0101022D01*
X0092846Y0099025D02*
X0090125Y0099025D01*
X0091124Y0098027D02*
X0092846Y0098027D01*
X0092846Y0097028D02*
X0092122Y0097028D01*
X0099846Y0097028D02*
X0118446Y0097028D01*
X0118446Y0096030D02*
X0099846Y0096030D01*
X0099846Y0095031D02*
X0105391Y0095031D01*
X0104946Y0094587D02*
X0102194Y0091835D01*
X0102194Y0090069D01*
X0102127Y0090087D01*
X0100945Y0090087D01*
X0100945Y0085635D01*
X0100945Y0085635D01*
X0100945Y0090087D01*
X0099846Y0090087D01*
X0099846Y0100802D01*
X0099852Y0100800D01*
X0101841Y0100800D01*
X0103679Y0101561D01*
X0105085Y0102968D01*
X0105846Y0104805D01*
X0106608Y0102968D01*
X0108014Y0101561D01*
X0109852Y0100800D01*
X0111841Y0100800D01*
X0113679Y0101561D01*
X0115085Y0102968D01*
X0115846Y0104805D01*
X0115846Y0106795D01*
X0115846Y0104805D01*
X0116608Y0102968D01*
X0118014Y0101561D01*
X0118446Y0101382D01*
X0118446Y0089807D01*
X0118291Y0089962D01*
X0118246Y0089962D01*
X0118246Y0092087D01*
X0117133Y0093200D01*
X0114633Y0095700D01*
X0106059Y0095700D01*
X0104946Y0094587D01*
X0104392Y0094033D02*
X0099846Y0094033D01*
X0099846Y0093034D02*
X0103394Y0093034D01*
X0102395Y0092036D02*
X0099846Y0092036D01*
X0099846Y0091037D02*
X0102194Y0091037D01*
X0100945Y0090039D02*
X0100945Y0090039D01*
X0100945Y0089040D02*
X0100945Y0089040D01*
X0100945Y0088042D02*
X0100945Y0088042D01*
X0100945Y0087043D02*
X0100945Y0087043D01*
X0100945Y0086045D02*
X0100945Y0086045D01*
X0100945Y0085635D02*
X0100945Y0081182D01*
X0101541Y0081182D01*
X0099035Y0078676D01*
X0099019Y0078683D01*
X0097674Y0078683D01*
X0096430Y0078168D01*
X0095479Y0077216D01*
X0094964Y0075973D01*
X0094964Y0074627D01*
X0095479Y0073384D01*
X0096430Y0072432D01*
X0097674Y0071917D01*
X0099019Y0071917D01*
X0100263Y0072432D01*
X0101214Y0073384D01*
X0101729Y0074627D01*
X0101729Y0075973D01*
X0101722Y0075989D01*
X0104881Y0079148D01*
X0105246Y0079513D01*
X0105246Y0076296D01*
X0106242Y0075300D01*
X0106928Y0074614D01*
X0106928Y0073876D01*
X0106980Y0073824D01*
X0106928Y0073772D01*
X0106928Y0070726D01*
X0106980Y0070674D01*
X0106928Y0070622D01*
X0106928Y0067576D01*
X0106980Y0067524D01*
X0106928Y0067472D01*
X0106928Y0064427D01*
X0106980Y0064375D01*
X0106928Y0064323D01*
X0106928Y0061277D01*
X0106980Y0061225D01*
X0106928Y0061173D01*
X0106928Y0058128D01*
X0106980Y0058076D01*
X0106928Y0058024D01*
X0106928Y0054978D01*
X0106980Y0054926D01*
X0106928Y0054874D01*
X0106928Y0052102D01*
X0106232Y0052102D01*
X0102646Y0055687D01*
X0102646Y0056956D01*
X0102144Y0058169D01*
X0101216Y0059098D01*
X0100003Y0059600D01*
X0098690Y0059600D01*
X0097477Y0059098D01*
X0096549Y0058169D01*
X0096046Y0056956D01*
X0096046Y0055644D01*
X0096549Y0054431D01*
X0097477Y0053502D01*
X0098690Y0053000D01*
X0099959Y0053000D01*
X0103545Y0049415D01*
X0104658Y0048302D01*
X0106747Y0048302D01*
X0106728Y0048234D01*
X0106728Y0047052D01*
X0106728Y0045870D01*
X0106831Y0045489D01*
X0107028Y0045147D01*
X0107307Y0044867D01*
X0107649Y0044670D01*
X0108031Y0044568D01*
X0111181Y0044568D01*
X0111181Y0047052D01*
X0111181Y0047052D01*
X0106728Y0047052D01*
X0111181Y0047052D01*
X0111181Y0047052D01*
X0111181Y0044568D01*
X0114331Y0044568D01*
X0114713Y0044670D01*
X0115055Y0044867D01*
X0115334Y0045147D01*
X0115532Y0045489D01*
X0115634Y0045870D01*
X0115634Y0046167D01*
X0117546Y0044254D01*
X0117546Y0043462D01*
X0114065Y0043462D01*
X0113303Y0042701D01*
X0113303Y0041500D01*
X0106379Y0041500D01*
X0106379Y0043457D01*
X0105617Y0044218D01*
X0102572Y0044218D01*
X0102520Y0044166D01*
X0102468Y0044218D01*
X0099446Y0044218D01*
X0099446Y0047304D01*
X0095446Y0051304D01*
X0094451Y0052300D01*
X0087913Y0052300D01*
X0087616Y0052598D01*
X0086644Y0053000D01*
X0087003Y0053000D01*
X0088216Y0053502D01*
X0089144Y0054431D01*
X0089646Y0055644D01*
X0089646Y0056913D01*
X0090746Y0058013D01*
X0090746Y0067426D01*
X0090763Y0067432D01*
X0091714Y0068384D01*
X0092229Y0069627D01*
X0092229Y0070973D01*
X0091714Y0072216D01*
X0090763Y0073168D01*
X0089519Y0073683D01*
X0088174Y0073683D01*
X0086930Y0073168D01*
X0085979Y0072216D01*
X0085972Y0072200D01*
X0075133Y0072200D01*
X0071713Y0075621D01*
X0074346Y0078254D01*
X0074346Y0081241D01*
X0074566Y0081182D01*
X0075748Y0081182D01*
X0075748Y0085635D01*
X0075748Y0081182D01*
X0076930Y0081182D01*
X0077311Y0081284D01*
X0077481Y0081382D01*
X0080420Y0081382D01*
X0080472Y0081434D01*
X0080525Y0081382D01*
X0083570Y0081382D01*
X0083622Y0081434D01*
X0083674Y0081382D01*
X0086720Y0081382D01*
X0086772Y0081434D01*
X0086824Y0081382D01*
X0089869Y0081382D01*
X0089921Y0081434D01*
X0089973Y0081382D01*
X0093019Y0081382D01*
X0093071Y0081434D01*
X0093123Y0081382D01*
X0096168Y0081382D01*
X0096220Y0081434D01*
X0096273Y0081382D01*
X0099212Y0081382D01*
X0099382Y0081284D01*
X0099763Y0081182D01*
X0100945Y0081182D01*
X0100945Y0085635D01*
X0100945Y0085635D01*
X0100945Y0085046D02*
X0100945Y0085046D01*
X0100945Y0084048D02*
X0100945Y0084048D01*
X0100945Y0083049D02*
X0100945Y0083049D01*
X0100945Y0082051D02*
X0100945Y0082051D01*
X0101412Y0081052D02*
X0074346Y0081052D01*
X0074346Y0080054D02*
X0100413Y0080054D01*
X0099415Y0079055D02*
X0074346Y0079055D01*
X0074149Y0078057D02*
X0096319Y0078057D01*
X0095413Y0077058D02*
X0073150Y0077058D01*
X0072152Y0076060D02*
X0095000Y0076060D01*
X0094964Y0075061D02*
X0072272Y0075061D01*
X0073271Y0074063D02*
X0095198Y0074063D01*
X0095799Y0073064D02*
X0090866Y0073064D01*
X0091777Y0072066D02*
X0097316Y0072066D01*
X0099377Y0072066D02*
X0106928Y0072066D01*
X0106928Y0073064D02*
X0100894Y0073064D01*
X0101495Y0074063D02*
X0106928Y0074063D01*
X0106481Y0075061D02*
X0101729Y0075061D01*
X0101793Y0076060D02*
X0105483Y0076060D01*
X0105246Y0077058D02*
X0102791Y0077058D01*
X0103790Y0078057D02*
X0105246Y0078057D01*
X0105246Y0079055D02*
X0104789Y0079055D01*
X0111181Y0079055D02*
X0111181Y0079055D01*
X0111181Y0078548D02*
X0111181Y0081032D01*
X0111069Y0081032D01*
X0111446Y0081944D01*
X0111446Y0083256D01*
X0110944Y0084469D01*
X0110016Y0085398D01*
X0108803Y0085900D01*
X0107490Y0085900D01*
X0106379Y0085440D01*
X0106379Y0089126D01*
X0105994Y0089510D01*
X0105994Y0090261D01*
X0107633Y0091900D01*
X0113059Y0091900D01*
X0114446Y0090513D01*
X0114446Y0089962D01*
X0114065Y0089962D01*
X0113303Y0089201D01*
X0113303Y0083399D01*
X0114065Y0082638D01*
X0118291Y0082638D01*
X0118446Y0082793D01*
X0118446Y0079304D01*
X0115434Y0076292D01*
X0115434Y0076815D01*
X0115532Y0076985D01*
X0115634Y0077366D01*
X0115634Y0078548D01*
X0115634Y0079730D01*
X0115532Y0080111D01*
X0115334Y0080453D01*
X0115055Y0080733D01*
X0114713Y0080930D01*
X0114331Y0081032D01*
X0111181Y0081032D01*
X0111181Y0078548D01*
X0111181Y0078548D01*
X0111181Y0078548D01*
X0115634Y0078548D01*
X0111181Y0078548D01*
X0111181Y0080054D02*
X0111181Y0080054D01*
X0111077Y0081052D02*
X0118446Y0081052D01*
X0118446Y0080054D02*
X0115547Y0080054D01*
X0115634Y0079055D02*
X0118197Y0079055D01*
X0117199Y0078057D02*
X0115634Y0078057D01*
X0115551Y0077058D02*
X0116200Y0077058D01*
X0118446Y0082051D02*
X0111446Y0082051D01*
X0111446Y0083049D02*
X0113654Y0083049D01*
X0113303Y0084048D02*
X0111119Y0084048D01*
X0110367Y0085046D02*
X0113303Y0085046D01*
X0113303Y0086045D02*
X0106379Y0086045D01*
X0106379Y0087043D02*
X0113303Y0087043D01*
X0113303Y0088042D02*
X0106379Y0088042D01*
X0106379Y0089040D02*
X0113303Y0089040D01*
X0114446Y0090039D02*
X0105994Y0090039D01*
X0106771Y0091037D02*
X0113922Y0091037D01*
X0116301Y0094033D02*
X0118446Y0094033D01*
X0118446Y0095031D02*
X0115302Y0095031D01*
X0117299Y0093034D02*
X0118446Y0093034D01*
X0118446Y0092036D02*
X0118246Y0092036D01*
X0118246Y0091037D02*
X0118446Y0091037D01*
X0118446Y0090039D02*
X0118246Y0090039D01*
X0121846Y0090039D02*
X0127646Y0090039D01*
X0127646Y0091037D02*
X0121846Y0091037D01*
X0121846Y0092036D02*
X0127646Y0092036D01*
X0127646Y0093034D02*
X0121846Y0093034D01*
X0121846Y0094033D02*
X0127646Y0094033D01*
X0127646Y0095031D02*
X0121846Y0095031D01*
X0121846Y0096030D02*
X0127646Y0096030D01*
X0127646Y0097028D02*
X0121846Y0097028D01*
X0121846Y0098027D02*
X0127646Y0098027D01*
X0127646Y0099025D02*
X0121846Y0099025D01*
X0121846Y0100024D02*
X0127646Y0100024D01*
X0127646Y0101022D02*
X0122378Y0101022D01*
X0121846Y0100802D02*
X0123679Y0101561D01*
X0125085Y0102968D01*
X0125846Y0104805D01*
X0125846Y0106795D01*
X0125846Y0104805D01*
X0126608Y0102968D01*
X0127646Y0101929D01*
X0127646Y0078904D01*
X0126615Y0077873D01*
X0126615Y0079914D01*
X0125507Y0081021D01*
X0125046Y0081021D01*
X0125046Y0082638D01*
X0125378Y0082638D01*
X0126140Y0083399D01*
X0126140Y0089201D01*
X0125378Y0089962D01*
X0121846Y0089962D01*
X0121846Y0100802D01*
X0124138Y0102021D02*
X0127555Y0102021D01*
X0126586Y0103019D02*
X0125107Y0103019D01*
X0125520Y0104018D02*
X0126173Y0104018D01*
X0125846Y0105016D02*
X0125846Y0105016D01*
X0125846Y0106015D02*
X0125846Y0106015D01*
X0125756Y0107013D02*
X0125937Y0107013D01*
X0126351Y0108012D02*
X0125342Y0108012D01*
X0124707Y0109010D02*
X0126986Y0109010D01*
X0127984Y0110009D02*
X0123709Y0110009D01*
X0117984Y0110009D02*
X0113709Y0110009D01*
X0114707Y0109010D02*
X0116986Y0109010D01*
X0116351Y0108012D02*
X0115342Y0108012D01*
X0115756Y0107013D02*
X0115937Y0107013D01*
X0115846Y0106015D02*
X0115846Y0106015D01*
X0115846Y0105016D02*
X0115846Y0105016D01*
X0115520Y0104018D02*
X0116173Y0104018D01*
X0116586Y0103019D02*
X0115107Y0103019D01*
X0114138Y0102021D02*
X0117555Y0102021D01*
X0118446Y0101022D02*
X0112378Y0101022D01*
X0109315Y0101022D02*
X0102378Y0101022D01*
X0104138Y0102021D02*
X0107555Y0102021D01*
X0106586Y0103019D02*
X0105107Y0103019D01*
X0105520Y0104018D02*
X0106173Y0104018D01*
X0105846Y0104805D02*
X0105846Y0106795D01*
X0105846Y0104805D01*
X0105846Y0105016D02*
X0105846Y0105016D01*
X0105846Y0106015D02*
X0105846Y0106015D01*
X0105756Y0107013D02*
X0105937Y0107013D01*
X0106351Y0108012D02*
X0105342Y0108012D01*
X0104707Y0109010D02*
X0106986Y0109010D01*
X0107984Y0110009D02*
X0103709Y0110009D01*
X0099846Y0100024D02*
X0118446Y0100024D01*
X0118446Y0099025D02*
X0099846Y0099025D01*
X0099846Y0098027D02*
X0118446Y0098027D01*
X0126140Y0089040D02*
X0127646Y0089040D01*
X0127646Y0088042D02*
X0126140Y0088042D01*
X0126140Y0087043D02*
X0127646Y0087043D01*
X0127646Y0086045D02*
X0126140Y0086045D01*
X0126140Y0085046D02*
X0127646Y0085046D01*
X0127646Y0084048D02*
X0126140Y0084048D01*
X0125789Y0083049D02*
X0127646Y0083049D01*
X0127646Y0082051D02*
X0125046Y0082051D01*
X0125046Y0081052D02*
X0127646Y0081052D01*
X0127646Y0080054D02*
X0126475Y0080054D01*
X0126615Y0079055D02*
X0127646Y0079055D01*
X0126799Y0078057D02*
X0126615Y0078057D01*
X0129246Y0075696D02*
X0129246Y0065704D01*
X0128642Y0065100D01*
X0119351Y0065100D01*
X0116751Y0067700D01*
X0117251Y0067700D01*
X0119878Y0070327D01*
X0119878Y0069194D01*
X0120020Y0068662D01*
X0120296Y0068186D01*
X0120685Y0067796D01*
X0121162Y0067521D01*
X0121693Y0067379D01*
X0122862Y0067379D01*
X0122862Y0070363D01*
X0123831Y0070363D01*
X0123831Y0071331D01*
X0126815Y0071331D01*
X0126815Y0072500D01*
X0126672Y0073032D01*
X0126640Y0073089D01*
X0129246Y0075696D01*
X0129246Y0075061D02*
X0128612Y0075061D01*
X0129246Y0074063D02*
X0127613Y0074063D01*
X0126654Y0073064D02*
X0129246Y0073064D01*
X0129246Y0072066D02*
X0126815Y0072066D01*
X0126815Y0070363D02*
X0123831Y0070363D01*
X0123831Y0067379D01*
X0125000Y0067379D01*
X0125531Y0067521D01*
X0126008Y0067796D01*
X0126397Y0068186D01*
X0126672Y0068662D01*
X0126815Y0069194D01*
X0126815Y0070363D01*
X0126815Y0070068D02*
X0129246Y0070068D01*
X0129246Y0069070D02*
X0126782Y0069070D01*
X0126283Y0068071D02*
X0129246Y0068071D01*
X0129246Y0067073D02*
X0117378Y0067073D01*
X0117622Y0068071D02*
X0120410Y0068071D01*
X0119911Y0069070D02*
X0118621Y0069070D01*
X0119619Y0070068D02*
X0119878Y0070068D01*
X0122862Y0070068D02*
X0123831Y0070068D01*
X0123831Y0069070D02*
X0122862Y0069070D01*
X0122862Y0068071D02*
X0123831Y0068071D01*
X0123831Y0071067D02*
X0129246Y0071067D01*
X0129246Y0066074D02*
X0118376Y0066074D01*
X0106928Y0066074D02*
X0090746Y0066074D01*
X0090746Y0065076D02*
X0106928Y0065076D01*
X0106928Y0064077D02*
X0090746Y0064077D01*
X0090746Y0063079D02*
X0106928Y0063079D01*
X0106928Y0062080D02*
X0090746Y0062080D01*
X0090746Y0061082D02*
X0106928Y0061082D01*
X0106928Y0060083D02*
X0090746Y0060083D01*
X0090746Y0059085D02*
X0097464Y0059085D01*
X0096515Y0058086D02*
X0090746Y0058086D01*
X0089821Y0057088D02*
X0096101Y0057088D01*
X0096046Y0056089D02*
X0089646Y0056089D01*
X0089417Y0055091D02*
X0096275Y0055091D01*
X0096887Y0054092D02*
X0088806Y0054092D01*
X0087229Y0053094D02*
X0098464Y0053094D01*
X0095654Y0051097D02*
X0101863Y0051097D01*
X0102861Y0050098D02*
X0096652Y0050098D01*
X0097651Y0049100D02*
X0103860Y0049100D01*
X0106728Y0048101D02*
X0098649Y0048101D01*
X0099446Y0047103D02*
X0106728Y0047103D01*
X0106728Y0046104D02*
X0099446Y0046104D01*
X0099446Y0045106D02*
X0107069Y0045106D01*
X0105728Y0044107D02*
X0117546Y0044107D01*
X0116695Y0045106D02*
X0115293Y0045106D01*
X0115634Y0046104D02*
X0115697Y0046104D01*
X0113711Y0043109D02*
X0106379Y0043109D01*
X0106379Y0042110D02*
X0113303Y0042110D01*
X0111181Y0045106D02*
X0111181Y0045106D01*
X0111181Y0046104D02*
X0111181Y0046104D01*
X0111181Y0050202D02*
X0111746Y0050200D01*
X0114146Y0050200D01*
X0119346Y0045000D01*
X0119346Y0037800D01*
X0122946Y0034200D01*
X0148146Y0034200D01*
X0150946Y0037000D01*
X0150946Y0061400D01*
X0147746Y0064600D01*
X0147346Y0064600D01*
X0141346Y0070600D01*
X0136146Y0070600D01*
X0136047Y0070654D01*
X0139316Y0073064D02*
X0145377Y0073064D01*
X0145377Y0072066D02*
X0142427Y0072066D01*
X0143425Y0071067D02*
X0145377Y0071067D01*
X0145377Y0070068D02*
X0144424Y0070068D01*
X0145377Y0074063D02*
X0139316Y0074063D01*
X0138698Y0075061D02*
X0145995Y0075061D01*
X0151296Y0075061D02*
X0156746Y0075061D01*
X0156746Y0074063D02*
X0151914Y0074063D01*
X0151914Y0073064D02*
X0156746Y0073064D01*
X0156746Y0072066D02*
X0151914Y0072066D01*
X0151914Y0071067D02*
X0156746Y0071067D01*
X0156746Y0070068D02*
X0151914Y0070068D01*
X0151914Y0069070D02*
X0156746Y0069070D01*
X0156746Y0068071D02*
X0151914Y0068071D01*
X0151914Y0067073D02*
X0156746Y0067073D01*
X0156746Y0066074D02*
X0148818Y0066074D01*
X0149816Y0065076D02*
X0156746Y0065076D01*
X0156746Y0064077D02*
X0150815Y0064077D01*
X0151813Y0063079D02*
X0156746Y0063079D01*
X0156746Y0062080D02*
X0152746Y0062080D01*
X0152746Y0061082D02*
X0156746Y0061082D01*
X0156746Y0060083D02*
X0152746Y0060083D01*
X0152746Y0059085D02*
X0156746Y0059085D01*
X0156746Y0058086D02*
X0152746Y0058086D01*
X0152746Y0057088D02*
X0156746Y0057088D01*
X0156746Y0056089D02*
X0152746Y0056089D01*
X0152746Y0055091D02*
X0156746Y0055091D01*
X0156746Y0054092D02*
X0152746Y0054092D01*
X0152746Y0053094D02*
X0156746Y0053094D01*
X0156746Y0052095D02*
X0152746Y0052095D01*
X0152746Y0051097D02*
X0156746Y0051097D01*
X0156746Y0050098D02*
X0152746Y0050098D01*
X0152746Y0049100D02*
X0156746Y0049100D01*
X0156746Y0048101D02*
X0152746Y0048101D01*
X0152746Y0047103D02*
X0156746Y0047103D01*
X0156746Y0046104D02*
X0152746Y0046104D01*
X0152746Y0045106D02*
X0156746Y0045106D01*
X0156746Y0044107D02*
X0152746Y0044107D01*
X0152746Y0043109D02*
X0156746Y0043109D01*
X0156746Y0042110D02*
X0152746Y0042110D01*
X0152746Y0041112D02*
X0156746Y0041112D01*
X0156746Y0040113D02*
X0152746Y0040113D01*
X0152746Y0039115D02*
X0156746Y0039115D01*
X0156746Y0038116D02*
X0152746Y0038116D01*
X0152746Y0037118D02*
X0156746Y0037118D01*
X0156746Y0036119D02*
X0152611Y0036119D01*
X0151613Y0035121D02*
X0156746Y0035121D01*
X0156746Y0034122D02*
X0150614Y0034122D01*
X0149616Y0033124D02*
X0156746Y0033124D01*
X0156746Y0032125D02*
X0103446Y0032125D01*
X0103446Y0031127D02*
X0116255Y0031127D01*
X0116383Y0031220D02*
X0115785Y0030785D01*
X0115261Y0030262D01*
X0114827Y0029663D01*
X0114491Y0029004D01*
X0114262Y0028301D01*
X0114167Y0027700D01*
X0121546Y0027700D01*
X0121546Y0026700D01*
X0114167Y0026700D01*
X0114262Y0026099D01*
X0114491Y0025396D01*
X0114827Y0024737D01*
X0115261Y0024138D01*
X0115785Y0023615D01*
X0116383Y0023180D01*
X0117042Y0022844D01*
X0117746Y0022616D01*
X0118477Y0022500D01*
X0121546Y0022500D01*
X0121546Y0026700D01*
X0122546Y0026700D01*
X0122546Y0022500D01*
X0125616Y0022500D01*
X0126347Y0022616D01*
X0127051Y0022844D01*
X0127710Y0023180D01*
X0128308Y0023615D01*
X0128831Y0024138D01*
X0129266Y0024737D01*
X0129602Y0025396D01*
X0129831Y0026099D01*
X0129926Y0026700D01*
X0122547Y0026700D01*
X0122547Y0027700D01*
X0129926Y0027700D01*
X0129831Y0028301D01*
X0129602Y0029004D01*
X0129266Y0029663D01*
X0128831Y0030262D01*
X0128308Y0030785D01*
X0127710Y0031220D01*
X0127051Y0031556D01*
X0126347Y0031784D01*
X0125616Y0031900D01*
X0122546Y0031900D01*
X0122546Y0027700D01*
X0121546Y0027700D01*
X0121546Y0031900D01*
X0118477Y0031900D01*
X0117746Y0031784D01*
X0117042Y0031556D01*
X0116383Y0031220D01*
X0115164Y0030128D02*
X0103446Y0030128D01*
X0103446Y0029130D02*
X0114555Y0029130D01*
X0114235Y0028131D02*
X0103446Y0028131D01*
X0103446Y0027132D02*
X0121546Y0027132D01*
X0121546Y0026134D02*
X0122546Y0026134D01*
X0122547Y0027132D02*
X0147146Y0027132D01*
X0147146Y0026700D02*
X0139767Y0026700D01*
X0139862Y0026099D01*
X0140091Y0025396D01*
X0140427Y0024737D01*
X0140861Y0024138D01*
X0141385Y0023615D01*
X0141983Y0023180D01*
X0142642Y0022844D01*
X0143346Y0022616D01*
X0144077Y0022500D01*
X0147146Y0022500D01*
X0147146Y0026700D01*
X0147146Y0027700D01*
X0139767Y0027700D01*
X0139862Y0028301D01*
X0140091Y0029004D01*
X0140427Y0029663D01*
X0140861Y0030262D01*
X0141385Y0030785D01*
X0141983Y0031220D01*
X0142642Y0031556D01*
X0143346Y0031784D01*
X0144077Y0031900D01*
X0147146Y0031900D01*
X0147146Y0027700D01*
X0148146Y0027700D01*
X0148146Y0031900D01*
X0151216Y0031900D01*
X0151947Y0031784D01*
X0152651Y0031556D01*
X0153310Y0031220D01*
X0153908Y0030785D01*
X0154431Y0030262D01*
X0154866Y0029663D01*
X0155202Y0029004D01*
X0155431Y0028301D01*
X0155526Y0027700D01*
X0148147Y0027700D01*
X0148147Y0026700D01*
X0155526Y0026700D01*
X0155431Y0026099D01*
X0155202Y0025396D01*
X0154866Y0024737D01*
X0154431Y0024138D01*
X0153908Y0023615D01*
X0153310Y0023180D01*
X0152651Y0022844D01*
X0151947Y0022616D01*
X0151216Y0022500D01*
X0148146Y0022500D01*
X0148146Y0026700D01*
X0147146Y0026700D01*
X0147146Y0026134D02*
X0148146Y0026134D01*
X0148147Y0027132D02*
X0156746Y0027132D01*
X0156746Y0026134D02*
X0155436Y0026134D01*
X0155069Y0025135D02*
X0156746Y0025135D01*
X0156746Y0024137D02*
X0154430Y0024137D01*
X0153228Y0023138D02*
X0156746Y0023138D01*
X0156746Y0022140D02*
X0103446Y0022140D01*
X0103446Y0023138D02*
X0116465Y0023138D01*
X0115263Y0024137D02*
X0103446Y0024137D01*
X0103446Y0025135D02*
X0114623Y0025135D01*
X0114257Y0026134D02*
X0103446Y0026134D01*
X0100046Y0026134D02*
X0093200Y0026134D01*
X0093200Y0027132D02*
X0100046Y0027132D01*
X0100046Y0027331D02*
X0100046Y0018535D01*
X0099424Y0019157D01*
X0097752Y0019850D01*
X0095941Y0019850D01*
X0095064Y0019487D01*
X0093200Y0021351D01*
X0093200Y0027531D01*
X0094204Y0027531D01*
X0094738Y0028065D01*
X0094827Y0027910D01*
X0095107Y0027631D01*
X0095449Y0027434D01*
X0095830Y0027331D01*
X0097709Y0027331D01*
X0097709Y0030316D01*
X0098677Y0030316D01*
X0098677Y0027331D01*
X0100046Y0027331D01*
X0098677Y0028131D02*
X0097709Y0028131D01*
X0097709Y0029130D02*
X0098677Y0029130D01*
X0098677Y0030128D02*
X0097709Y0030128D01*
X0097709Y0031284D02*
X0097709Y0034268D01*
X0095830Y0034268D01*
X0095449Y0034166D01*
X0095107Y0033969D01*
X0094827Y0033690D01*
X0094738Y0033535D01*
X0094204Y0034068D01*
X0090636Y0034068D01*
X0090046Y0034658D01*
X0090046Y0035713D01*
X0093019Y0035713D01*
X0093071Y0035765D01*
X0093123Y0035713D01*
X0096168Y0035713D01*
X0096220Y0035765D01*
X0096273Y0035713D01*
X0099246Y0035713D01*
X0099246Y0034268D01*
X0098677Y0034268D01*
X0098677Y0031284D01*
X0097709Y0031284D01*
X0097709Y0032125D02*
X0098677Y0032125D01*
X0098677Y0033124D02*
X0097709Y0033124D01*
X0097709Y0034122D02*
X0098677Y0034122D01*
X0099246Y0035121D02*
X0090046Y0035121D01*
X0090582Y0034122D02*
X0095372Y0034122D01*
X0102646Y0035121D02*
X0119480Y0035121D01*
X0118482Y0036119D02*
X0106024Y0036119D01*
X0106379Y0037118D02*
X0113303Y0037118D01*
X0120479Y0034122D02*
X0103429Y0034122D01*
X0103446Y0033124D02*
X0121477Y0033124D01*
X0121546Y0031127D02*
X0122546Y0031127D01*
X0122546Y0030128D02*
X0121546Y0030128D01*
X0121546Y0029130D02*
X0122546Y0029130D01*
X0122546Y0028131D02*
X0121546Y0028131D01*
X0121546Y0025135D02*
X0122546Y0025135D01*
X0122546Y0024137D02*
X0121546Y0024137D01*
X0121546Y0023138D02*
X0122546Y0023138D01*
X0127628Y0023138D02*
X0142065Y0023138D01*
X0140863Y0024137D02*
X0128830Y0024137D01*
X0129469Y0025135D02*
X0140223Y0025135D01*
X0139857Y0026134D02*
X0129836Y0026134D01*
X0129858Y0028131D02*
X0139835Y0028131D01*
X0140155Y0029130D02*
X0129538Y0029130D01*
X0128929Y0030128D02*
X0140764Y0030128D01*
X0141855Y0031127D02*
X0127838Y0031127D01*
X0141853Y0045697D02*
X0142849Y0044702D01*
X0143720Y0043831D01*
X0144852Y0044300D01*
X0146841Y0044300D01*
X0148679Y0045061D01*
X0149146Y0045529D01*
X0149146Y0043071D01*
X0148679Y0043539D01*
X0146841Y0044300D01*
X0144852Y0044300D01*
X0143014Y0045061D01*
X0141608Y0046468D01*
X0140846Y0048305D01*
X0140846Y0050295D01*
X0141315Y0051427D01*
X0136242Y0056500D01*
X0126790Y0056500D01*
X0126815Y0056406D01*
X0126815Y0055237D01*
X0123831Y0055237D01*
X0123831Y0054268D01*
X0126815Y0054268D01*
X0126815Y0053100D01*
X0128051Y0053100D01*
X0135453Y0045697D01*
X0141853Y0045697D01*
X0141971Y0046104D02*
X0135046Y0046104D01*
X0134048Y0047103D02*
X0141345Y0047103D01*
X0140931Y0048101D02*
X0133049Y0048101D01*
X0132051Y0049100D02*
X0140846Y0049100D01*
X0140846Y0050098D02*
X0131052Y0050098D01*
X0130054Y0051097D02*
X0141179Y0051097D01*
X0140647Y0052095D02*
X0129055Y0052095D01*
X0128057Y0053094D02*
X0139648Y0053094D01*
X0138650Y0054092D02*
X0126815Y0054092D01*
X0126815Y0056089D02*
X0136653Y0056089D01*
X0137651Y0055091D02*
X0123831Y0055091D01*
X0122862Y0055091D02*
X0120641Y0055091D01*
X0120788Y0055237D02*
X0122862Y0055237D01*
X0122862Y0054268D01*
X0120882Y0054268D01*
X0120451Y0054700D01*
X0115434Y0054700D01*
X0115434Y0054874D01*
X0115408Y0054900D01*
X0120451Y0054900D01*
X0120788Y0055237D01*
X0106928Y0055091D02*
X0103243Y0055091D01*
X0102646Y0056089D02*
X0106928Y0056089D01*
X0106928Y0057088D02*
X0102592Y0057088D01*
X0102178Y0058086D02*
X0106970Y0058086D01*
X0106928Y0059085D02*
X0101228Y0059085D01*
X0104241Y0054092D02*
X0106928Y0054092D01*
X0106928Y0053094D02*
X0105240Y0053094D01*
X0100864Y0052095D02*
X0094655Y0052095D01*
X0086946Y0060083D02*
X0077801Y0060083D01*
X0078799Y0059085D02*
X0084464Y0059085D01*
X0086946Y0061082D02*
X0076802Y0061082D01*
X0069765Y0062080D02*
X0086946Y0062080D01*
X0086946Y0063079D02*
X0069765Y0063079D01*
X0069765Y0064077D02*
X0086946Y0064077D01*
X0086946Y0065076D02*
X0069965Y0065076D01*
X0069965Y0066074D02*
X0086946Y0066074D01*
X0086946Y0067073D02*
X0069965Y0067073D01*
X0069765Y0068071D02*
X0086291Y0068071D01*
X0090746Y0067073D02*
X0106928Y0067073D01*
X0106928Y0068071D02*
X0091402Y0068071D01*
X0091998Y0069070D02*
X0106928Y0069070D01*
X0106928Y0070068D02*
X0092229Y0070068D01*
X0092190Y0071067D02*
X0106928Y0071067D01*
X0086827Y0073064D02*
X0074269Y0073064D01*
X0071891Y0070068D02*
X0069765Y0070068D01*
X0069765Y0069070D02*
X0072889Y0069070D01*
X0070892Y0071067D02*
X0069765Y0071067D01*
X0069765Y0072066D02*
X0069894Y0072066D01*
X0069248Y0075398D02*
X0069346Y0075800D01*
X0072546Y0079000D01*
X0072546Y0085400D01*
X0072598Y0085635D01*
X0070314Y0086045D02*
X0054789Y0086045D01*
X0053790Y0087043D02*
X0070314Y0087043D01*
X0070314Y0088042D02*
X0053765Y0088042D01*
X0053765Y0089040D02*
X0070314Y0089040D01*
X0070314Y0085046D02*
X0055787Y0085046D01*
X0056786Y0084048D02*
X0070314Y0084048D01*
X0070314Y0083049D02*
X0057784Y0083049D01*
X0059263Y0082051D02*
X0070407Y0082051D01*
X0070746Y0081052D02*
X0060193Y0081052D01*
X0060606Y0080054D02*
X0061259Y0080054D01*
X0061259Y0079055D02*
X0060646Y0079055D01*
X0060403Y0078057D02*
X0061259Y0078057D01*
X0061259Y0077058D02*
X0059771Y0077058D01*
X0061259Y0076060D02*
X0058147Y0076060D01*
X0056546Y0076060D02*
X0054158Y0076060D01*
X0054158Y0075061D02*
X0061259Y0075061D01*
X0061259Y0074063D02*
X0054158Y0074063D01*
X0053907Y0077058D02*
X0054921Y0077058D01*
X0053409Y0082051D02*
X0040841Y0082051D01*
X0039843Y0083049D02*
X0052410Y0083049D01*
X0051412Y0084048D02*
X0045970Y0084048D01*
X0045957Y0084040D02*
X0046299Y0084238D01*
X0046578Y0084517D01*
X0046776Y0084859D01*
X0046878Y0085240D01*
X0046878Y0087513D01*
X0044091Y0087513D01*
X0044091Y0083938D01*
X0045575Y0083938D01*
X0045957Y0084040D01*
X0046826Y0085046D02*
X0048015Y0085046D01*
X0048015Y0086045D02*
X0046878Y0086045D01*
X0046878Y0087043D02*
X0048015Y0087043D01*
X0048015Y0088042D02*
X0044091Y0088042D01*
X0043516Y0088042D02*
X0034850Y0088042D01*
X0033852Y0089040D02*
X0040728Y0089040D01*
X0040728Y0087043D02*
X0035849Y0087043D01*
X0036847Y0086045D02*
X0040728Y0086045D01*
X0040780Y0085046D02*
X0037846Y0085046D01*
X0038844Y0084048D02*
X0041636Y0084048D01*
X0043516Y0084048D02*
X0044091Y0084048D01*
X0044091Y0085046D02*
X0043516Y0085046D01*
X0043516Y0086045D02*
X0044091Y0086045D01*
X0044091Y0087043D02*
X0043516Y0087043D01*
X0043516Y0089040D02*
X0044091Y0089040D01*
X0044091Y0090039D02*
X0043516Y0090039D01*
X0043516Y0091037D02*
X0044091Y0091037D01*
X0046605Y0091037D02*
X0048352Y0091037D01*
X0048015Y0090039D02*
X0046878Y0090039D01*
X0046878Y0089040D02*
X0048015Y0089040D01*
X0050890Y0087800D02*
X0050946Y0087800D01*
X0050890Y0087257D01*
X0040546Y0079800D02*
X0040846Y0079300D01*
X0040546Y0079800D02*
X0020946Y0099400D01*
X0020946Y0105800D01*
X0020846Y0105800D01*
X0014946Y0112006D02*
X0156746Y0112006D01*
X0156746Y0112200D02*
X0156746Y0002900D01*
X0014946Y0002900D01*
X0014946Y0112200D01*
X0156746Y0112200D01*
X0147984Y0110009D02*
X0143709Y0110009D01*
X0144707Y0109010D02*
X0146986Y0109010D01*
X0146351Y0108012D02*
X0145342Y0108012D01*
X0145756Y0107013D02*
X0145937Y0107013D01*
X0145846Y0106795D02*
X0145846Y0104805D01*
X0145846Y0106795D01*
X0145846Y0106015D02*
X0145846Y0106015D01*
X0145846Y0105016D02*
X0145846Y0105016D01*
X0145846Y0104805D02*
X0145085Y0102968D01*
X0143679Y0101561D01*
X0142246Y0100968D01*
X0142246Y0094696D01*
X0139316Y0091765D01*
X0139316Y0089373D01*
X0143646Y0093704D01*
X0143646Y0101304D01*
X0146228Y0103885D01*
X0145846Y0104805D01*
X0145520Y0104018D02*
X0146173Y0104018D01*
X0145362Y0103019D02*
X0145107Y0103019D01*
X0144363Y0102021D02*
X0144138Y0102021D01*
X0143646Y0101022D02*
X0142378Y0101022D01*
X0142246Y0100024D02*
X0143646Y0100024D01*
X0143646Y0099025D02*
X0142246Y0099025D01*
X0142246Y0098027D02*
X0143646Y0098027D01*
X0143646Y0097028D02*
X0142246Y0097028D01*
X0142246Y0096030D02*
X0143646Y0096030D01*
X0143646Y0095031D02*
X0142246Y0095031D01*
X0141583Y0094033D02*
X0143646Y0094033D01*
X0142977Y0093034D02*
X0140585Y0093034D01*
X0139586Y0092036D02*
X0141978Y0092036D01*
X0140980Y0091037D02*
X0139316Y0091037D01*
X0139316Y0090039D02*
X0139981Y0090039D01*
X0142792Y0088042D02*
X0145177Y0088042D01*
X0145177Y0089040D02*
X0143791Y0089040D01*
X0144789Y0090039D02*
X0145177Y0090039D01*
X0148161Y0090039D02*
X0149130Y0090039D01*
X0149130Y0091037D02*
X0156746Y0091037D01*
X0156746Y0090039D02*
X0152114Y0090039D01*
X0152114Y0089040D02*
X0156746Y0089040D01*
X0156746Y0088042D02*
X0152114Y0088042D01*
X0151969Y0087043D02*
X0156746Y0087043D01*
X0156746Y0086045D02*
X0140795Y0086045D01*
X0141794Y0087043D02*
X0145322Y0087043D01*
X0148161Y0087043D02*
X0149130Y0087043D01*
X0149130Y0088042D02*
X0148161Y0088042D01*
X0148161Y0089040D02*
X0149130Y0089040D01*
X0149130Y0091430D02*
X0152114Y0091430D01*
X0152114Y0094393D01*
X0152012Y0094775D01*
X0151814Y0095117D01*
X0151535Y0095396D01*
X0151193Y0095593D01*
X0150812Y0095696D01*
X0149130Y0095696D01*
X0149130Y0091430D01*
X0149130Y0092036D02*
X0148161Y0092036D01*
X0148161Y0093034D02*
X0149130Y0093034D01*
X0149130Y0094033D02*
X0148161Y0094033D01*
X0148161Y0095031D02*
X0149130Y0095031D01*
X0151864Y0095031D02*
X0156746Y0095031D01*
X0156746Y0094033D02*
X0152114Y0094033D01*
X0152114Y0093034D02*
X0156746Y0093034D01*
X0156746Y0092036D02*
X0152114Y0092036D01*
X0156746Y0096030D02*
X0147046Y0096030D01*
X0147046Y0097028D02*
X0156746Y0097028D01*
X0156746Y0098027D02*
X0147046Y0098027D01*
X0147046Y0099025D02*
X0156746Y0099025D01*
X0156746Y0100024D02*
X0147174Y0100024D01*
X0148173Y0101022D02*
X0149315Y0101022D01*
X0152378Y0101022D02*
X0156746Y0101022D01*
X0156746Y0102021D02*
X0154138Y0102021D01*
X0155107Y0103019D02*
X0156746Y0103019D01*
X0138846Y0101216D02*
X0138846Y0096104D01*
X0138238Y0095496D01*
X0133540Y0095496D01*
X0132779Y0094734D01*
X0132779Y0090036D01*
X0131046Y0088304D01*
X0131046Y0100800D01*
X0131841Y0100800D01*
X0133679Y0101561D01*
X0135085Y0102968D01*
X0135846Y0104805D01*
X0135846Y0106795D01*
X0135846Y0104805D01*
X0136608Y0102968D01*
X0138014Y0101561D01*
X0138846Y0101216D01*
X0138846Y0101022D02*
X0132378Y0101022D01*
X0131046Y0100024D02*
X0138846Y0100024D01*
X0138846Y0099025D02*
X0131046Y0099025D01*
X0131046Y0098027D02*
X0138846Y0098027D01*
X0138846Y0097028D02*
X0131046Y0097028D01*
X0131046Y0096030D02*
X0138772Y0096030D01*
X0133076Y0095031D02*
X0131046Y0095031D01*
X0131046Y0094033D02*
X0132779Y0094033D01*
X0132779Y0093034D02*
X0131046Y0093034D01*
X0131046Y0092036D02*
X0132779Y0092036D01*
X0132779Y0091037D02*
X0131046Y0091037D01*
X0131046Y0090039D02*
X0132779Y0090039D01*
X0131783Y0089040D02*
X0131046Y0089040D01*
X0137800Y0083049D02*
X0156746Y0083049D01*
X0156746Y0082051D02*
X0136801Y0082051D01*
X0135803Y0081052D02*
X0156746Y0081052D01*
X0156746Y0080054D02*
X0134804Y0080054D01*
X0134246Y0079055D02*
X0156746Y0079055D01*
X0156746Y0078057D02*
X0134246Y0078057D01*
X0134246Y0077058D02*
X0156746Y0077058D01*
X0156746Y0076060D02*
X0134246Y0076060D01*
X0138798Y0084048D02*
X0156746Y0084048D01*
X0156746Y0085046D02*
X0139797Y0085046D01*
X0137555Y0102021D02*
X0134138Y0102021D01*
X0135107Y0103019D02*
X0136586Y0103019D01*
X0136173Y0104018D02*
X0135520Y0104018D01*
X0135846Y0105016D02*
X0135846Y0105016D01*
X0135846Y0106015D02*
X0135846Y0106015D01*
X0135756Y0107013D02*
X0135937Y0107013D01*
X0136351Y0108012D02*
X0135342Y0108012D01*
X0134707Y0109010D02*
X0136986Y0109010D01*
X0137984Y0110009D02*
X0133709Y0110009D01*
X0075748Y0085635D02*
X0075748Y0085635D01*
X0075748Y0085046D02*
X0075748Y0085046D01*
X0075748Y0084048D02*
X0075748Y0084048D01*
X0075748Y0083049D02*
X0075748Y0083049D01*
X0075748Y0082051D02*
X0075748Y0082051D01*
X0070746Y0080054D02*
X0069765Y0080054D01*
X0069765Y0079055D02*
X0070056Y0079055D01*
X0061059Y0067073D02*
X0054158Y0067073D01*
X0054158Y0066074D02*
X0061059Y0066074D01*
X0061059Y0065076D02*
X0054158Y0065076D01*
X0053943Y0064077D02*
X0057437Y0064077D01*
X0056438Y0063079D02*
X0036397Y0063079D01*
X0036429Y0064077D02*
X0040750Y0064077D01*
X0040535Y0065076D02*
X0036429Y0065076D01*
X0036429Y0064182D02*
X0032075Y0064182D01*
X0032075Y0064182D01*
X0036429Y0064182D01*
X0035653Y0062080D02*
X0039045Y0062080D01*
X0038296Y0061082D02*
X0032920Y0061082D01*
X0032476Y0060083D02*
X0038296Y0060083D01*
X0038296Y0059085D02*
X0031175Y0059085D01*
X0028841Y0059085D02*
X0025599Y0059085D01*
X0025697Y0058914D02*
X0025499Y0059256D01*
X0025220Y0059536D01*
X0024878Y0059733D01*
X0024497Y0059835D01*
X0021846Y0059835D01*
X0021846Y0055292D01*
X0020846Y0055292D01*
X0020846Y0054292D01*
X0016894Y0054292D01*
X0016894Y0051051D01*
X0016996Y0050670D01*
X0017193Y0050328D01*
X0017473Y0050049D01*
X0017815Y0049851D01*
X0018196Y0049749D01*
X0020846Y0049749D01*
X0020846Y0054292D01*
X0021846Y0054292D01*
X0021846Y0049749D01*
X0024497Y0049749D01*
X0024878Y0049851D01*
X0025220Y0050049D01*
X0025499Y0050328D01*
X0025697Y0050670D01*
X0025799Y0051051D01*
X0025799Y0054292D01*
X0021846Y0054292D01*
X0021846Y0055292D01*
X0025799Y0055292D01*
X0025799Y0058533D01*
X0025697Y0058914D01*
X0025799Y0058086D02*
X0038296Y0058086D01*
X0038476Y0057088D02*
X0025799Y0057088D01*
X0025799Y0056089D02*
X0038771Y0056089D01*
X0038156Y0055091D02*
X0021846Y0055091D01*
X0021846Y0056089D02*
X0020846Y0056089D01*
X0020846Y0055292D02*
X0020846Y0059835D01*
X0018196Y0059835D01*
X0017815Y0059733D01*
X0017473Y0059536D01*
X0017193Y0059256D01*
X0016996Y0058914D01*
X0016894Y0058533D01*
X0016894Y0055292D01*
X0020846Y0055292D01*
X0020846Y0055091D02*
X0014946Y0055091D01*
X0014946Y0056089D02*
X0016894Y0056089D01*
X0016894Y0057088D02*
X0014946Y0057088D01*
X0014946Y0058086D02*
X0016894Y0058086D01*
X0017094Y0059085D02*
X0014946Y0059085D01*
X0014946Y0060083D02*
X0027539Y0060083D01*
X0027095Y0061082D02*
X0014946Y0061082D01*
X0014946Y0062080D02*
X0027035Y0062080D01*
X0027311Y0063079D02*
X0025048Y0063079D01*
X0024878Y0062981D02*
X0025220Y0063178D01*
X0025499Y0063458D01*
X0025697Y0063800D01*
X0025799Y0064181D01*
X0025799Y0068800D01*
X0021846Y0068800D01*
X0021846Y0062879D01*
X0024497Y0062879D01*
X0024878Y0062981D01*
X0025771Y0064077D02*
X0027720Y0064077D01*
X0028165Y0064182D02*
X0028165Y0064182D01*
X0027720Y0065076D02*
X0025799Y0065076D01*
X0025799Y0066074D02*
X0027920Y0066074D01*
X0027920Y0067073D02*
X0025799Y0067073D01*
X0025799Y0068071D02*
X0027920Y0068071D01*
X0027920Y0069070D02*
X0021846Y0069070D01*
X0021846Y0068800D02*
X0021846Y0069800D01*
X0020846Y0069800D01*
X0020846Y0068800D01*
X0016894Y0068800D01*
X0016894Y0064181D01*
X0016996Y0063800D01*
X0017193Y0063458D01*
X0017473Y0063178D01*
X0017815Y0062981D01*
X0018196Y0062879D01*
X0020846Y0062879D01*
X0020846Y0068800D01*
X0021846Y0068800D01*
X0021846Y0068071D02*
X0020846Y0068071D01*
X0020846Y0067073D02*
X0021846Y0067073D01*
X0021846Y0066074D02*
X0020846Y0066074D01*
X0020846Y0065076D02*
X0021846Y0065076D01*
X0021846Y0064077D02*
X0020846Y0064077D01*
X0020846Y0063079D02*
X0021846Y0063079D01*
X0017645Y0063079D02*
X0014946Y0063079D01*
X0014946Y0064077D02*
X0016922Y0064077D01*
X0016894Y0065076D02*
X0014946Y0065076D01*
X0014946Y0066074D02*
X0016894Y0066074D01*
X0016894Y0067073D02*
X0014946Y0067073D01*
X0014946Y0068071D02*
X0016894Y0068071D01*
X0016894Y0069800D02*
X0016894Y0074419D01*
X0016996Y0074800D01*
X0017193Y0075142D01*
X0017473Y0075422D01*
X0017815Y0075619D01*
X0018196Y0075721D01*
X0020846Y0075721D01*
X0020846Y0069800D01*
X0016894Y0069800D01*
X0016894Y0070068D02*
X0014946Y0070068D01*
X0014946Y0069070D02*
X0020846Y0069070D01*
X0020846Y0070068D02*
X0021846Y0070068D01*
X0021846Y0069800D02*
X0021846Y0075721D01*
X0024497Y0075721D01*
X0024878Y0075619D01*
X0025220Y0075422D01*
X0025499Y0075142D01*
X0025697Y0074800D01*
X0025799Y0074419D01*
X0025799Y0069800D01*
X0021846Y0069800D01*
X0021846Y0071067D02*
X0020846Y0071067D01*
X0020846Y0072066D02*
X0021846Y0072066D01*
X0021846Y0073064D02*
X0020846Y0073064D01*
X0020846Y0074063D02*
X0021846Y0074063D01*
X0021846Y0075061D02*
X0020846Y0075061D01*
X0017147Y0075061D02*
X0014946Y0075061D01*
X0014946Y0074063D02*
X0016894Y0074063D01*
X0016894Y0073064D02*
X0014946Y0073064D01*
X0014946Y0072066D02*
X0016894Y0072066D01*
X0016894Y0071067D02*
X0014946Y0071067D01*
X0014946Y0076060D02*
X0027088Y0076060D01*
X0027035Y0077058D02*
X0014946Y0077058D01*
X0014946Y0078057D02*
X0027318Y0078057D01*
X0028078Y0079055D02*
X0025204Y0079055D01*
X0025796Y0080054D02*
X0037747Y0080054D01*
X0037915Y0079055D02*
X0031938Y0079055D01*
X0032697Y0078057D02*
X0036916Y0078057D01*
X0035918Y0077058D02*
X0032981Y0077058D01*
X0036749Y0081052D02*
X0025799Y0081052D01*
X0025799Y0082051D02*
X0035750Y0082051D01*
X0034752Y0083049D02*
X0025799Y0083049D01*
X0021846Y0083049D02*
X0020846Y0083049D01*
X0020846Y0082051D02*
X0021846Y0082051D01*
X0021846Y0081052D02*
X0020846Y0081052D01*
X0020846Y0080054D02*
X0021846Y0080054D01*
X0021846Y0079055D02*
X0020846Y0079055D01*
X0017489Y0079055D02*
X0014946Y0079055D01*
X0014946Y0080054D02*
X0016897Y0080054D01*
X0016894Y0081052D02*
X0014946Y0081052D01*
X0014946Y0082051D02*
X0016894Y0082051D01*
X0016894Y0083049D02*
X0014946Y0083049D01*
X0020846Y0086045D02*
X0021846Y0086045D01*
X0021846Y0087043D02*
X0020846Y0087043D01*
X0020846Y0088042D02*
X0021846Y0088042D01*
X0025546Y0075061D02*
X0027522Y0075061D01*
X0027920Y0074063D02*
X0025799Y0074063D01*
X0025799Y0073064D02*
X0027920Y0073064D01*
X0027920Y0072066D02*
X0025799Y0072066D01*
X0025799Y0071067D02*
X0027920Y0071067D01*
X0027920Y0070068D02*
X0025799Y0070068D01*
X0036229Y0067073D02*
X0040535Y0067073D01*
X0040535Y0066074D02*
X0036229Y0066074D01*
X0043648Y0062080D02*
X0055440Y0062080D01*
X0057818Y0059085D02*
X0061259Y0059085D01*
X0061259Y0058128D02*
X0061311Y0058076D01*
X0061259Y0058024D01*
X0061259Y0057317D01*
X0060846Y0056904D01*
X0060572Y0056630D01*
X0060403Y0056700D01*
X0059090Y0056700D01*
X0057877Y0056198D01*
X0056949Y0055269D01*
X0056446Y0054056D01*
X0056446Y0052744D01*
X0056796Y0051900D01*
X0056076Y0051900D01*
X0056172Y0052068D01*
X0056315Y0052600D01*
X0056315Y0053768D01*
X0053331Y0053768D01*
X0053331Y0054737D01*
X0056315Y0054737D01*
X0056315Y0055906D01*
X0056172Y0056438D01*
X0055897Y0056914D01*
X0055508Y0057304D01*
X0055341Y0057400D01*
X0056133Y0057400D01*
X0057246Y0058513D01*
X0059633Y0060900D01*
X0061259Y0060900D01*
X0061259Y0058128D01*
X0061300Y0058086D02*
X0056820Y0058086D01*
X0055724Y0057088D02*
X0061030Y0057088D01*
X0057769Y0056089D02*
X0056266Y0056089D01*
X0056315Y0055091D02*
X0056875Y0055091D01*
X0056461Y0054092D02*
X0053331Y0054092D01*
X0052362Y0054092D02*
X0044596Y0054092D01*
X0044596Y0053675D02*
X0044596Y0054868D01*
X0044464Y0055360D01*
X0044209Y0055802D01*
X0043849Y0056163D01*
X0043495Y0056367D01*
X0044396Y0057268D01*
X0044396Y0057400D01*
X0050352Y0057400D01*
X0050185Y0057304D01*
X0049796Y0056914D01*
X0049520Y0056438D01*
X0049378Y0055906D01*
X0049378Y0054737D01*
X0052362Y0054737D01*
X0052362Y0053768D01*
X0049378Y0053768D01*
X0049378Y0052600D01*
X0049458Y0052300D01*
X0044596Y0052300D01*
X0044596Y0052925D01*
X0041722Y0052925D01*
X0041722Y0053675D01*
X0044596Y0053675D01*
X0044537Y0055091D02*
X0049378Y0055091D01*
X0049427Y0056089D02*
X0043922Y0056089D01*
X0044216Y0057088D02*
X0049969Y0057088D01*
X0049378Y0053094D02*
X0041722Y0053094D01*
X0040971Y0053094D02*
X0025799Y0053094D01*
X0025799Y0054092D02*
X0038096Y0054092D01*
X0038096Y0052095D02*
X0025799Y0052095D01*
X0025799Y0051097D02*
X0038311Y0051097D01*
X0039599Y0050098D02*
X0025270Y0050098D01*
X0021846Y0050098D02*
X0020846Y0050098D01*
X0020846Y0051097D02*
X0021846Y0051097D01*
X0021846Y0052095D02*
X0020846Y0052095D01*
X0020846Y0053094D02*
X0021846Y0053094D01*
X0021846Y0054092D02*
X0020846Y0054092D01*
X0020846Y0057088D02*
X0021846Y0057088D01*
X0021846Y0058086D02*
X0020846Y0058086D01*
X0020846Y0059085D02*
X0021846Y0059085D01*
X0016894Y0054092D02*
X0014946Y0054092D01*
X0014946Y0053094D02*
X0016894Y0053094D01*
X0016894Y0052095D02*
X0014946Y0052095D01*
X0014946Y0051097D02*
X0016894Y0051097D01*
X0017423Y0050098D02*
X0014946Y0050098D01*
X0014946Y0049100D02*
X0039842Y0049100D01*
X0038844Y0048101D02*
X0014946Y0048101D01*
X0014946Y0047103D02*
X0037845Y0047103D01*
X0036847Y0046104D02*
X0014946Y0046104D01*
X0014946Y0045106D02*
X0035848Y0045106D01*
X0035646Y0044107D02*
X0035110Y0044107D01*
X0029583Y0044107D02*
X0025110Y0044107D01*
X0026109Y0043109D02*
X0028584Y0043109D01*
X0027586Y0042110D02*
X0027107Y0042110D01*
X0027346Y0041871D02*
X0027346Y0037729D01*
X0025584Y0035967D01*
X0028051Y0033500D01*
X0028051Y0033500D01*
X0028513Y0033038D01*
X0030275Y0034800D01*
X0034418Y0034800D01*
X0034780Y0034438D01*
X0035646Y0035304D01*
X0035646Y0036029D01*
X0034418Y0034800D01*
X0030275Y0034800D01*
X0027346Y0037729D01*
X0027346Y0041871D01*
X0027346Y0041112D02*
X0027346Y0041112D01*
X0027346Y0040113D02*
X0027346Y0040113D01*
X0027346Y0039115D02*
X0027346Y0039115D01*
X0027346Y0038116D02*
X0027346Y0038116D01*
X0026735Y0037118D02*
X0027958Y0037118D01*
X0028956Y0036119D02*
X0025737Y0036119D01*
X0026430Y0035121D02*
X0029955Y0035121D01*
X0029597Y0034122D02*
X0027429Y0034122D01*
X0028427Y0033124D02*
X0028599Y0033124D01*
X0034738Y0035121D02*
X0035463Y0035121D01*
X0026608Y0026134D02*
X0026034Y0026134D01*
X0025036Y0025135D02*
X0027607Y0025135D01*
X0028605Y0024137D02*
X0014946Y0024137D01*
X0014946Y0025135D02*
X0019657Y0025135D01*
X0018659Y0026134D02*
X0014946Y0026134D01*
X0014946Y0027132D02*
X0017660Y0027132D01*
X0017146Y0028131D02*
X0014946Y0028131D01*
X0014946Y0029130D02*
X0017146Y0029130D01*
X0014946Y0030128D02*
X0021846Y0030128D01*
X0021846Y0029130D02*
X0022846Y0029130D01*
X0022846Y0028131D02*
X0021846Y0028131D01*
X0021846Y0027132D02*
X0022846Y0027132D01*
X0022846Y0026134D02*
X0021846Y0026134D01*
X0021846Y0025135D02*
X0022846Y0025135D01*
X0028846Y0023896D02*
X0028846Y0023896D01*
X0029604Y0023138D02*
X0014946Y0023138D01*
X0014946Y0022140D02*
X0047646Y0022140D01*
X0047646Y0021141D02*
X0014946Y0021141D01*
X0014946Y0020143D02*
X0047646Y0020143D01*
X0047646Y0019144D02*
X0014946Y0019144D01*
X0014946Y0018146D02*
X0047646Y0018146D01*
X0047646Y0017147D02*
X0046917Y0017147D01*
X0051046Y0017147D02*
X0051776Y0017147D01*
X0051514Y0017039D02*
X0051046Y0016571D01*
X0051046Y0018449D01*
X0051890Y0018100D01*
X0053203Y0018100D01*
X0054416Y0018602D01*
X0055344Y0019531D01*
X0055713Y0020421D01*
X0055946Y0020654D01*
X0058305Y0023013D01*
X0062503Y0023013D01*
X0063265Y0023774D01*
X0063265Y0029576D01*
X0062503Y0030337D01*
X0060688Y0030337D01*
X0062451Y0032100D01*
X0071835Y0032100D01*
X0071835Y0031284D01*
X0075016Y0031284D01*
X0075016Y0030316D01*
X0075984Y0030316D01*
X0075984Y0027331D01*
X0077863Y0027331D01*
X0078244Y0027434D01*
X0078586Y0027631D01*
X0078866Y0027910D01*
X0078955Y0028065D01*
X0079489Y0027531D01*
X0080493Y0027531D01*
X0080493Y0021351D01*
X0078629Y0019487D01*
X0077752Y0019850D01*
X0075941Y0019850D01*
X0074269Y0019157D01*
X0072989Y0017877D01*
X0072296Y0016205D01*
X0072296Y0014395D01*
X0072989Y0012723D01*
X0073412Y0012300D01*
X0059346Y0012300D01*
X0059346Y0013795D01*
X0058585Y0015632D01*
X0057179Y0017039D01*
X0055341Y0017800D01*
X0053352Y0017800D01*
X0051514Y0017039D01*
X0051779Y0018146D02*
X0051046Y0018146D01*
X0053314Y0018146D02*
X0073258Y0018146D01*
X0072687Y0017147D02*
X0056917Y0017147D01*
X0058069Y0016149D02*
X0072296Y0016149D01*
X0072296Y0015150D02*
X0058785Y0015150D01*
X0059198Y0014152D02*
X0072397Y0014152D01*
X0072811Y0013153D02*
X0059346Y0013153D01*
X0054958Y0019144D02*
X0074256Y0019144D01*
X0079285Y0020143D02*
X0055598Y0020143D01*
X0056433Y0021141D02*
X0080284Y0021141D01*
X0080493Y0022140D02*
X0057432Y0022140D01*
X0054146Y0021400D02*
X0052546Y0021400D01*
X0054146Y0021400D02*
X0059346Y0026600D01*
X0060146Y0026600D01*
X0060390Y0026675D01*
X0063265Y0027132D02*
X0080493Y0027132D01*
X0080493Y0026134D02*
X0063265Y0026134D01*
X0063265Y0025135D02*
X0080493Y0025135D01*
X0080493Y0024137D02*
X0063265Y0024137D01*
X0062629Y0023138D02*
X0080493Y0023138D01*
X0075016Y0027331D02*
X0075016Y0030316D01*
X0071835Y0030316D01*
X0071835Y0028634D01*
X0071937Y0028253D01*
X0072134Y0027910D01*
X0072414Y0027631D01*
X0072756Y0027434D01*
X0073137Y0027331D01*
X0075016Y0027331D01*
X0075016Y0028131D02*
X0075984Y0028131D01*
X0075984Y0029130D02*
X0075016Y0029130D01*
X0075016Y0030128D02*
X0075984Y0030128D01*
X0075984Y0031284D02*
X0075016Y0031284D01*
X0075016Y0034265D01*
X0076451Y0035700D01*
X0076463Y0035713D01*
X0077271Y0035713D01*
X0077323Y0035765D01*
X0077375Y0035713D01*
X0080315Y0035713D01*
X0080484Y0035615D01*
X0080866Y0035513D01*
X0082047Y0035513D01*
X0082047Y0039965D01*
X0082047Y0039965D01*
X0082047Y0035513D01*
X0083229Y0035513D01*
X0083497Y0035584D01*
X0083497Y0034508D01*
X0083057Y0034068D01*
X0079489Y0034068D01*
X0078955Y0033535D01*
X0078866Y0033690D01*
X0078586Y0033969D01*
X0078244Y0034166D01*
X0077863Y0034268D01*
X0075984Y0034268D01*
X0075984Y0031284D01*
X0075984Y0032125D02*
X0075016Y0032125D01*
X0075016Y0031127D02*
X0061477Y0031127D01*
X0062712Y0030128D02*
X0071835Y0030128D01*
X0071835Y0029130D02*
X0063265Y0029130D01*
X0063265Y0028131D02*
X0072007Y0028131D01*
X0075016Y0033124D02*
X0075984Y0033124D01*
X0075984Y0034122D02*
X0075016Y0034122D01*
X0075871Y0035121D02*
X0083497Y0035121D01*
X0083111Y0034122D02*
X0078321Y0034122D01*
X0082047Y0036119D02*
X0082047Y0036119D01*
X0082047Y0037118D02*
X0082047Y0037118D01*
X0082047Y0038116D02*
X0082047Y0038116D01*
X0082047Y0039115D02*
X0082047Y0039115D01*
X0093200Y0025135D02*
X0100046Y0025135D01*
X0100046Y0024137D02*
X0093200Y0024137D01*
X0093200Y0023138D02*
X0100046Y0023138D01*
X0100046Y0022140D02*
X0093200Y0022140D01*
X0093409Y0021141D02*
X0100046Y0021141D01*
X0100046Y0020143D02*
X0094408Y0020143D01*
X0099437Y0019144D02*
X0100046Y0019144D01*
X0103446Y0019144D02*
X0156746Y0019144D01*
X0156746Y0018146D02*
X0103446Y0018146D01*
X0103446Y0017147D02*
X0156746Y0017147D01*
X0156746Y0016149D02*
X0103446Y0016149D01*
X0103446Y0015150D02*
X0156746Y0015150D01*
X0156746Y0014152D02*
X0103446Y0014152D01*
X0103446Y0013153D02*
X0116236Y0013153D01*
X0115237Y0012155D02*
X0102505Y0012155D01*
X0101507Y0011156D02*
X0114703Y0011156D01*
X0114903Y0007162D02*
X0099913Y0007162D01*
X0098914Y0006164D02*
X0115719Y0006164D01*
X0117311Y0005165D02*
X0014946Y0005165D01*
X0014946Y0004167D02*
X0156746Y0004167D01*
X0156746Y0005165D02*
X0152382Y0005165D01*
X0153974Y0006164D02*
X0156746Y0006164D01*
X0156746Y0007162D02*
X0154790Y0007162D01*
X0155204Y0008161D02*
X0156746Y0008161D01*
X0156746Y0009159D02*
X0155346Y0009159D01*
X0155346Y0010158D02*
X0156746Y0010158D01*
X0156746Y0011156D02*
X0154990Y0011156D01*
X0154456Y0012155D02*
X0156746Y0012155D01*
X0156746Y0013153D02*
X0153457Y0013153D01*
X0156746Y0020143D02*
X0103446Y0020143D01*
X0103446Y0021141D02*
X0156746Y0021141D01*
X0156746Y0028131D02*
X0155458Y0028131D01*
X0155138Y0029130D02*
X0156746Y0029130D01*
X0156746Y0030128D02*
X0154529Y0030128D01*
X0153438Y0031127D02*
X0156746Y0031127D01*
X0148146Y0031127D02*
X0147146Y0031127D01*
X0147146Y0030128D02*
X0148146Y0030128D01*
X0148146Y0029130D02*
X0147146Y0029130D01*
X0147146Y0028131D02*
X0148146Y0028131D01*
X0148146Y0025135D02*
X0147146Y0025135D01*
X0147146Y0024137D02*
X0148146Y0024137D01*
X0148146Y0023138D02*
X0147146Y0023138D01*
X0141836Y0013153D02*
X0127857Y0013153D01*
X0128856Y0012155D02*
X0140837Y0012155D01*
X0140303Y0011156D02*
X0129390Y0011156D01*
X0129190Y0007162D02*
X0140503Y0007162D01*
X0141319Y0006164D02*
X0128374Y0006164D01*
X0126782Y0005165D02*
X0142911Y0005165D01*
X0156746Y0003168D02*
X0014946Y0003168D01*
X0014946Y0006164D02*
X0051379Y0006164D01*
X0050380Y0007162D02*
X0014946Y0007162D01*
X0014946Y0008161D02*
X0022481Y0008161D01*
X0020916Y0009159D02*
X0014946Y0009159D01*
X0014946Y0010158D02*
X0020029Y0010158D01*
X0019615Y0011156D02*
X0014946Y0011156D01*
X0014946Y0012155D02*
X0019346Y0012155D01*
X0019346Y0013153D02*
X0014946Y0013153D01*
X0014946Y0014152D02*
X0019494Y0014152D01*
X0019908Y0015150D02*
X0014946Y0015150D01*
X0014946Y0016149D02*
X0020624Y0016149D01*
X0021776Y0017147D02*
X0014946Y0017147D01*
X0026917Y0017147D02*
X0031776Y0017147D01*
X0030624Y0016149D02*
X0028069Y0016149D01*
X0028785Y0015150D02*
X0029908Y0015150D01*
X0029494Y0014152D02*
X0029198Y0014152D01*
X0029346Y0013153D02*
X0029346Y0013153D01*
X0029346Y0012155D02*
X0029346Y0012155D01*
X0029078Y0011156D02*
X0029615Y0011156D01*
X0030029Y0010158D02*
X0028664Y0010158D01*
X0027777Y0009159D02*
X0030916Y0009159D01*
X0032481Y0008161D02*
X0026212Y0008161D01*
X0036212Y0008161D02*
X0042481Y0008161D01*
X0040916Y0009159D02*
X0037777Y0009159D01*
X0038664Y0010158D02*
X0040029Y0010158D01*
X0039615Y0011156D02*
X0039078Y0011156D01*
X0039346Y0012155D02*
X0039346Y0012155D01*
X0039346Y0013153D02*
X0039346Y0013153D01*
X0039198Y0014152D02*
X0039494Y0014152D01*
X0039908Y0015150D02*
X0038785Y0015150D01*
X0038069Y0016149D02*
X0040624Y0016149D01*
X0041776Y0017147D02*
X0036917Y0017147D01*
X0047777Y0009159D02*
X0048383Y0009159D01*
X0049382Y0008161D02*
X0046212Y0008161D01*
X0017146Y0031127D02*
X0014946Y0031127D01*
X0014946Y0032125D02*
X0017318Y0032125D01*
X0018316Y0033124D02*
X0014946Y0033124D01*
X0014946Y0034122D02*
X0019315Y0034122D01*
X0019955Y0035121D02*
X0014946Y0035121D01*
X0014946Y0036119D02*
X0018956Y0036119D01*
X0017958Y0037118D02*
X0014946Y0037118D01*
X0014946Y0038116D02*
X0017346Y0038116D01*
X0017346Y0039115D02*
X0014946Y0039115D01*
X0014946Y0040113D02*
X0017346Y0040113D01*
X0017346Y0041112D02*
X0014946Y0041112D01*
X0014946Y0042110D02*
X0017586Y0042110D01*
X0018584Y0043109D02*
X0014946Y0043109D01*
X0014946Y0044107D02*
X0019583Y0044107D01*
X0047250Y0064077D02*
X0047443Y0064077D01*
X0058817Y0060083D02*
X0061259Y0060083D01*
X0065512Y0059650D02*
X0065746Y0059800D01*
X0056446Y0053094D02*
X0056315Y0053094D01*
X0056180Y0052095D02*
X0056715Y0052095D01*
X0142445Y0045106D02*
X0142970Y0045106D01*
X0143443Y0044107D02*
X0144386Y0044107D01*
X0147306Y0044107D02*
X0149146Y0044107D01*
X0149109Y0043109D02*
X0149146Y0043109D01*
X0149146Y0045106D02*
X0148723Y0045106D01*
D28*
X0134346Y0052800D03*
X0127346Y0066800D03*
X0110346Y0088800D03*
X0102846Y0097300D03*
X0115346Y0098300D03*
X0098346Y0075300D03*
X0088846Y0070300D03*
X0095846Y0064300D03*
X0080846Y0063800D03*
X0096846Y0024300D03*
X0071346Y0019800D03*
D29*
X0076846Y0015300D02*
X0082193Y0020646D01*
X0082193Y0030800D01*
X0085197Y0033804D01*
X0085197Y0039965D01*
X0088346Y0039965D02*
X0088346Y0033954D01*
X0091500Y0030800D01*
X0091500Y0020646D01*
X0096846Y0015300D01*
X0098546Y0010600D02*
X0101746Y0013800D01*
X0101746Y0033400D01*
X0100946Y0034200D01*
X0100946Y0039800D01*
X0100945Y0039965D01*
X0104094Y0039965D02*
X0104146Y0039800D01*
X0116178Y0039800D01*
X0123265Y0039800D02*
X0123346Y0039800D01*
X0123346Y0047847D01*
X0121346Y0051400D02*
X0127346Y0051400D01*
X0134749Y0043997D01*
X0141149Y0043997D01*
X0145846Y0039300D01*
X0145846Y0049300D02*
X0136946Y0058200D01*
X0121346Y0058200D01*
X0119746Y0056600D01*
X0111346Y0056600D01*
X0111181Y0056501D01*
X0111181Y0059650D02*
X0111346Y0059800D01*
X0145346Y0059800D01*
X0145846Y0059300D01*
X0133846Y0063800D02*
X0131446Y0061400D01*
X0117346Y0061400D01*
X0115746Y0063000D01*
X0111346Y0063000D01*
X0111181Y0062800D01*
X0111181Y0065950D02*
X0111346Y0066200D01*
X0115846Y0066200D01*
X0118646Y0063400D01*
X0129346Y0063400D01*
X0130946Y0065000D01*
X0130946Y0085800D01*
X0135746Y0090600D01*
X0136047Y0090946D01*
X0136146Y0091000D01*
X0140546Y0095400D01*
X0140546Y0105800D01*
X0140846Y0105800D01*
X0145346Y0100600D02*
X0150546Y0105800D01*
X0150846Y0105800D01*
X0145346Y0100600D02*
X0145346Y0093000D01*
X0132546Y0080200D01*
X0132546Y0066100D01*
X0133846Y0064800D01*
X0133846Y0063800D01*
X0125346Y0074200D02*
X0121346Y0074200D01*
X0116546Y0069400D01*
X0111346Y0069400D01*
X0111181Y0069099D01*
X0111181Y0072249D02*
X0111346Y0072600D01*
X0114146Y0072600D01*
X0120146Y0078600D01*
X0120146Y0105400D01*
X0120546Y0105800D01*
X0120846Y0105800D01*
X0129346Y0104600D02*
X0130546Y0105800D01*
X0130846Y0105800D01*
X0129346Y0104600D02*
X0129346Y0078200D01*
X0125346Y0074200D01*
X0123346Y0077753D02*
X0123346Y0086200D01*
X0123265Y0086300D01*
X0108146Y0082600D02*
X0106946Y0081400D01*
X0106946Y0077000D01*
X0108546Y0075400D01*
X0110946Y0075400D01*
X0111181Y0075398D01*
X0098146Y0085800D02*
X0097795Y0085635D01*
X0098146Y0085800D02*
X0098146Y0103400D01*
X0100546Y0105800D01*
X0100846Y0105800D01*
X0094546Y0102200D02*
X0090946Y0105800D01*
X0090846Y0105800D01*
X0094546Y0102200D02*
X0094546Y0085800D01*
X0094646Y0085635D01*
X0091496Y0085635D02*
X0091346Y0085800D01*
X0091346Y0095400D01*
X0080946Y0105800D01*
X0080846Y0105800D01*
X0072946Y0100600D02*
X0066146Y0100600D01*
X0060946Y0105800D01*
X0060846Y0105800D01*
X0057746Y0099000D02*
X0050946Y0105800D01*
X0050846Y0105800D01*
X0057746Y0099000D02*
X0071346Y0099000D01*
X0081746Y0088600D01*
X0081746Y0085800D01*
X0082047Y0085635D01*
X0084946Y0085800D02*
X0085197Y0085635D01*
X0084946Y0085800D02*
X0084946Y0088600D01*
X0072946Y0100600D01*
X0069746Y0097400D02*
X0049346Y0097400D01*
X0040946Y0105800D01*
X0040846Y0105800D01*
X0069746Y0097400D02*
X0078546Y0088600D01*
X0078546Y0085800D01*
X0078898Y0085635D01*
X0088146Y0085800D02*
X0088346Y0085635D01*
X0088146Y0085800D02*
X0088146Y0088600D01*
X0070946Y0105800D01*
X0070846Y0105800D01*
X0050693Y0074300D02*
X0052744Y0072249D01*
X0065512Y0072249D01*
X0065512Y0069099D02*
X0052992Y0069099D01*
X0050693Y0066800D01*
X0044000Y0066800D02*
X0041500Y0069300D01*
X0032075Y0069300D01*
X0032075Y0071859D02*
X0041559Y0071859D01*
X0044000Y0074300D01*
X0062546Y0056200D02*
X0065346Y0056200D01*
X0065512Y0056501D01*
X0062546Y0056200D02*
X0059746Y0053400D01*
X0055346Y0050200D02*
X0054946Y0050600D01*
X0043746Y0050600D01*
X0037346Y0044200D01*
X0037346Y0034600D01*
X0032546Y0029800D01*
X0032346Y0029800D01*
X0027346Y0027800D02*
X0030546Y0024600D01*
X0049346Y0024600D01*
X0049346Y0010600D01*
X0052146Y0007800D01*
X0098146Y0007800D01*
X0099746Y0009400D01*
X0122046Y0009400D01*
X0147646Y0009400D01*
X0098546Y0010600D02*
X0056546Y0010600D01*
X0054346Y0012800D01*
X0050946Y0024600D02*
X0049346Y0024600D01*
X0050946Y0024600D02*
X0052946Y0026600D01*
X0053303Y0026675D01*
X0053346Y0027000D01*
X0054946Y0027000D01*
X0061746Y0033800D01*
X0072146Y0033800D01*
X0075746Y0037400D01*
X0075746Y0039800D01*
X0075748Y0039965D01*
X0069746Y0045400D02*
X0066146Y0041800D01*
X0062946Y0043400D02*
X0062946Y0036200D01*
X0062146Y0035400D01*
X0046946Y0035400D01*
X0042546Y0039800D01*
X0042346Y0039800D01*
X0052928Y0039300D02*
X0052946Y0039400D01*
X0052946Y0047000D01*
X0052846Y0047347D01*
X0055346Y0050200D02*
X0065346Y0050200D01*
X0065512Y0050202D01*
X0065746Y0053000D02*
X0065512Y0053351D01*
X0065746Y0053000D02*
X0068546Y0053000D01*
X0069746Y0051800D01*
X0069746Y0045400D01*
X0065346Y0045800D02*
X0062946Y0043400D01*
X0065346Y0045800D02*
X0065346Y0047000D01*
X0065512Y0047052D01*
X0059746Y0047000D02*
X0059746Y0039400D01*
X0060015Y0039300D01*
X0082546Y0046200D02*
X0086946Y0046200D01*
X0089746Y0049000D01*
X0092946Y0049000D01*
X0094546Y0047400D01*
X0094546Y0040200D01*
X0094646Y0039965D01*
X0091496Y0039965D02*
X0091346Y0040200D01*
X0091346Y0045800D01*
X0093746Y0050600D02*
X0097746Y0046600D01*
X0097746Y0040200D01*
X0097795Y0039965D01*
X0086546Y0050600D02*
X0085746Y0049800D01*
X0086546Y0050600D02*
X0093746Y0050600D01*
X0111181Y0053351D02*
X0111346Y0053000D01*
X0119746Y0053000D01*
X0121346Y0051400D01*
X0027346Y0031800D02*
X0027346Y0027800D01*
X0027346Y0031800D02*
X0022546Y0036600D01*
X0022546Y0039800D01*
X0022346Y0039800D01*
D30*
X0052546Y0021400D03*
X0066146Y0041800D03*
X0059746Y0047000D03*
X0059746Y0053400D03*
X0082546Y0046200D03*
X0085746Y0049800D03*
X0091346Y0045800D03*
X0086346Y0056300D03*
X0099346Y0056300D03*
X0108146Y0082600D03*
X0057346Y0079300D03*
D31*
X0057346Y0080800D01*
X0050890Y0087257D01*
X0057346Y0079300D02*
X0040846Y0079300D01*
X0035965Y0074418D01*
X0032075Y0074418D01*
X0041346Y0059300D02*
X0055346Y0059300D01*
X0058846Y0062800D01*
X0065512Y0062800D01*
X0065661Y0059800D02*
X0065746Y0059800D01*
X0075397Y0059800D01*
X0078898Y0056300D01*
X0086346Y0056300D01*
X0086346Y0056300D01*
X0088846Y0058800D01*
X0088846Y0070300D01*
X0074346Y0070300D01*
X0069248Y0075398D01*
X0065512Y0075398D01*
X0078898Y0056300D02*
X0078898Y0039965D01*
X0099346Y0056300D02*
X0105445Y0050202D01*
X0111181Y0050202D01*
X0111083Y0050300D01*
X0098346Y0075300D02*
X0104094Y0081048D01*
X0104094Y0085635D01*
X0104094Y0091048D01*
X0106846Y0093800D01*
X0113846Y0093800D01*
X0116346Y0091300D01*
X0116346Y0086468D01*
X0116178Y0086300D01*
M02*
