G75*
%MOIN*%
%OFA0B0*%
%FSLAX25Y25*%
%IPPOS*%
%LPD*%
%AMOC8*
5,1,8,0,0,1.08239X$1,22.5*
%
%ADD10R,0.07400X0.07400*%
%ADD11OC8,0.07400*%
%ADD12C,0.06400*%
%ADD13C,0.06500*%
%ADD14C,0.07400*%
%ADD15C,0.01000*%
%ADD16C,0.04165*%
%ADD17C,0.00800*%
%ADD18C,0.04000*%
%ADD19C,0.01200*%
D10*
X0042346Y0039800D03*
D11*
X0032346Y0039800D03*
X0022346Y0039800D03*
X0022346Y0029800D03*
X0032346Y0029800D03*
X0042346Y0029800D03*
D12*
X0118846Y0027200D02*
X0125246Y0027200D01*
X0144446Y0027200D02*
X0150846Y0027200D01*
X0150846Y0009400D02*
X0144446Y0009400D01*
X0125246Y0009400D02*
X0118846Y0009400D01*
D13*
X0096846Y0015300D03*
X0076846Y0015300D03*
D14*
X0054346Y0012800D03*
X0044346Y0012800D03*
X0034346Y0012800D03*
X0024346Y0012800D03*
X0145846Y0039300D03*
X0145846Y0049300D03*
X0145846Y0059300D03*
X0140846Y0105800D03*
X0150846Y0105800D03*
X0130846Y0105800D03*
X0120846Y0105800D03*
X0110846Y0105800D03*
X0100846Y0105800D03*
X0090846Y0105800D03*
X0080846Y0105800D03*
X0070846Y0105800D03*
X0060846Y0105800D03*
X0050846Y0105800D03*
X0040846Y0105800D03*
X0030846Y0105800D03*
X0020846Y0105800D03*
D15*
X0014946Y0112200D02*
X0014946Y0002900D01*
X0156746Y0002900D01*
X0156746Y0112200D01*
X0014946Y0112200D01*
X0014946Y0111615D02*
X0156746Y0111615D01*
X0156746Y0110617D02*
X0152283Y0110617D01*
X0151841Y0110800D02*
X0149852Y0110800D01*
X0148014Y0110039D01*
X0146608Y0108632D01*
X0145846Y0106795D01*
X0145085Y0108632D01*
X0143679Y0110039D01*
X0141841Y0110800D01*
X0139852Y0110800D01*
X0138014Y0110039D01*
X0136608Y0108632D01*
X0135846Y0106795D01*
X0135085Y0108632D01*
X0133679Y0110039D01*
X0131841Y0110800D01*
X0129852Y0110800D01*
X0128014Y0110039D01*
X0126608Y0108632D01*
X0125846Y0106795D01*
X0125085Y0108632D01*
X0123679Y0110039D01*
X0121841Y0110800D01*
X0119852Y0110800D01*
X0118014Y0110039D01*
X0116608Y0108632D01*
X0115846Y0106795D01*
X0115085Y0108632D01*
X0113679Y0110039D01*
X0111841Y0110800D01*
X0109852Y0110800D01*
X0108014Y0110039D01*
X0106608Y0108632D01*
X0105846Y0106795D01*
X0105085Y0108632D01*
X0103679Y0110039D01*
X0101841Y0110800D01*
X0099852Y0110800D01*
X0098014Y0110039D01*
X0096608Y0108632D01*
X0095846Y0106795D01*
X0095085Y0108632D01*
X0093679Y0110039D01*
X0091841Y0110800D01*
X0089852Y0110800D01*
X0088014Y0110039D01*
X0086608Y0108632D01*
X0085846Y0106795D01*
X0085085Y0108632D01*
X0083679Y0110039D01*
X0081841Y0110800D01*
X0079852Y0110800D01*
X0078014Y0110039D01*
X0076608Y0108632D01*
X0075846Y0106795D01*
X0075085Y0108632D01*
X0073679Y0110039D01*
X0071841Y0110800D01*
X0069852Y0110800D01*
X0068014Y0110039D01*
X0066608Y0108632D01*
X0065846Y0106795D01*
X0065085Y0108632D01*
X0063679Y0110039D01*
X0061841Y0110800D01*
X0059852Y0110800D01*
X0058014Y0110039D01*
X0056608Y0108632D01*
X0055846Y0106795D01*
X0055085Y0108632D01*
X0053679Y0110039D01*
X0051841Y0110800D01*
X0049852Y0110800D01*
X0048014Y0110039D01*
X0046608Y0108632D01*
X0045846Y0106795D01*
X0045085Y0108632D01*
X0043679Y0110039D01*
X0041841Y0110800D01*
X0039852Y0110800D01*
X0038014Y0110039D01*
X0036608Y0108632D01*
X0035924Y0106982D01*
X0035918Y0107018D01*
X0035665Y0107796D01*
X0035294Y0108525D01*
X0034813Y0109188D01*
X0034234Y0109766D01*
X0033572Y0110247D01*
X0032843Y0110619D01*
X0032064Y0110872D01*
X0031346Y0110986D01*
X0031346Y0106300D01*
X0030346Y0106300D01*
X0030346Y0110986D01*
X0029629Y0110872D01*
X0028850Y0110619D01*
X0028121Y0110247D01*
X0027459Y0109766D01*
X0026880Y0109188D01*
X0026399Y0108525D01*
X0026027Y0107796D01*
X0025774Y0107018D01*
X0025769Y0106982D01*
X0025085Y0108632D01*
X0023679Y0110039D01*
X0021841Y0110800D01*
X0019852Y0110800D01*
X0018014Y0110039D01*
X0016608Y0108632D01*
X0015846Y0106795D01*
X0015846Y0104805D01*
X0016608Y0102968D01*
X0018014Y0101561D01*
X0019852Y0100800D01*
X0021841Y0100800D01*
X0023679Y0101561D01*
X0025085Y0102968D01*
X0025769Y0104618D01*
X0025774Y0104582D01*
X0026027Y0103804D01*
X0026399Y0103075D01*
X0026880Y0102412D01*
X0027459Y0101834D01*
X0028121Y0101353D01*
X0028850Y0100981D01*
X0029629Y0100728D01*
X0030346Y0100614D01*
X0030346Y0105300D01*
X0031346Y0105300D01*
X0031346Y0100614D01*
X0032064Y0100728D01*
X0032843Y0100981D01*
X0033572Y0101353D01*
X0034234Y0101834D01*
X0034813Y0102412D01*
X0035294Y0103075D01*
X0035665Y0103804D01*
X0035918Y0104582D01*
X0035924Y0104618D01*
X0036608Y0102968D01*
X0038014Y0101561D01*
X0039852Y0100800D01*
X0041841Y0100800D01*
X0043679Y0101561D01*
X0045085Y0102968D01*
X0045846Y0104805D01*
X0045846Y0106795D01*
X0045846Y0104805D01*
X0046608Y0102968D01*
X0048014Y0101561D01*
X0049852Y0100800D01*
X0051841Y0100800D01*
X0053679Y0101561D01*
X0055085Y0102968D01*
X0055846Y0104805D01*
X0055846Y0106795D01*
X0055846Y0104805D01*
X0056608Y0102968D01*
X0058014Y0101561D01*
X0059852Y0100800D01*
X0061841Y0100800D01*
X0063679Y0101561D01*
X0065085Y0102968D01*
X0065846Y0104805D01*
X0065846Y0106795D01*
X0065846Y0104805D01*
X0066608Y0102968D01*
X0068014Y0101561D01*
X0069852Y0100800D01*
X0071841Y0100800D01*
X0073679Y0101561D01*
X0075085Y0102968D01*
X0075846Y0104805D01*
X0075846Y0106795D01*
X0075846Y0104805D01*
X0076608Y0102968D01*
X0078014Y0101561D01*
X0079852Y0100800D01*
X0081841Y0100800D01*
X0083679Y0101561D01*
X0085085Y0102968D01*
X0085846Y0104805D01*
X0085846Y0106795D01*
X0085846Y0104805D01*
X0086608Y0102968D01*
X0088014Y0101561D01*
X0089852Y0100800D01*
X0091841Y0100800D01*
X0093679Y0101561D01*
X0095085Y0102968D01*
X0095846Y0104805D01*
X0095846Y0106795D01*
X0095846Y0104805D01*
X0096608Y0102968D01*
X0098014Y0101561D01*
X0099852Y0100800D01*
X0101841Y0100800D01*
X0103679Y0101561D01*
X0105085Y0102968D01*
X0105846Y0104805D01*
X0106608Y0102968D01*
X0107959Y0101617D01*
X0106446Y0100104D01*
X0106446Y0097504D01*
X0104142Y0095200D01*
X0103146Y0094204D01*
X0103146Y0085196D01*
X0104142Y0084200D01*
X0104917Y0083426D01*
X0104846Y0083256D01*
X0104846Y0081944D01*
X0105349Y0080731D01*
X0106277Y0079802D01*
X0107490Y0079300D01*
X0108803Y0079300D01*
X0110016Y0079802D01*
X0110944Y0080731D01*
X0111446Y0081944D01*
X0111446Y0083256D01*
X0110944Y0084469D01*
X0110016Y0085398D01*
X0108803Y0085900D01*
X0107490Y0085900D01*
X0107321Y0085830D01*
X0106546Y0086604D01*
X0106546Y0092796D01*
X0109846Y0096096D01*
X0109846Y0098696D01*
X0110451Y0099300D01*
X0111446Y0100296D01*
X0111446Y0100800D01*
X0111841Y0100800D01*
X0113679Y0101561D01*
X0115085Y0102968D01*
X0115846Y0104805D01*
X0115846Y0106795D01*
X0115846Y0104805D01*
X0116608Y0102968D01*
X0118014Y0101561D01*
X0119852Y0100800D01*
X0121841Y0100800D01*
X0123679Y0101561D01*
X0125085Y0102968D01*
X0125846Y0104805D01*
X0125846Y0106795D01*
X0125846Y0104805D01*
X0126608Y0102968D01*
X0128014Y0101561D01*
X0129852Y0100800D01*
X0131841Y0100800D01*
X0133679Y0101561D01*
X0135085Y0102968D01*
X0135846Y0104805D01*
X0135846Y0106795D01*
X0135846Y0104805D01*
X0136608Y0102968D01*
X0138014Y0101561D01*
X0139852Y0100800D01*
X0141841Y0100800D01*
X0143679Y0101561D01*
X0145085Y0102968D01*
X0145846Y0104805D01*
X0145846Y0106795D01*
X0145846Y0104805D01*
X0146608Y0102968D01*
X0148014Y0101561D01*
X0149852Y0100800D01*
X0151841Y0100800D01*
X0153679Y0101561D01*
X0155085Y0102968D01*
X0155846Y0104805D01*
X0155846Y0106795D01*
X0155085Y0108632D01*
X0153679Y0110039D01*
X0151841Y0110800D01*
X0154099Y0109618D02*
X0156746Y0109618D01*
X0156746Y0108620D02*
X0155090Y0108620D01*
X0155504Y0107621D02*
X0156746Y0107621D01*
X0156746Y0106623D02*
X0155846Y0106623D01*
X0155846Y0105624D02*
X0156746Y0105624D01*
X0156746Y0104626D02*
X0155772Y0104626D01*
X0155358Y0103627D02*
X0156746Y0103627D01*
X0156746Y0102629D02*
X0154746Y0102629D01*
X0153748Y0101630D02*
X0156746Y0101630D01*
X0156746Y0100632D02*
X0111446Y0100632D01*
X0110784Y0099633D02*
X0156746Y0099633D01*
X0156746Y0098635D02*
X0109846Y0098635D01*
X0109846Y0097636D02*
X0156746Y0097636D01*
X0156746Y0096638D02*
X0109846Y0096638D01*
X0109390Y0095639D02*
X0156746Y0095639D01*
X0156746Y0094641D02*
X0108391Y0094641D01*
X0107393Y0093642D02*
X0156746Y0093642D01*
X0156746Y0092644D02*
X0106546Y0092644D01*
X0106546Y0091645D02*
X0156746Y0091645D01*
X0156746Y0090647D02*
X0106546Y0090647D01*
X0106546Y0089648D02*
X0156746Y0089648D01*
X0156746Y0088650D02*
X0106546Y0088650D01*
X0106546Y0087651D02*
X0156746Y0087651D01*
X0156746Y0086653D02*
X0106546Y0086653D01*
X0109396Y0085654D02*
X0156746Y0085654D01*
X0156746Y0084656D02*
X0110758Y0084656D01*
X0111280Y0083657D02*
X0156746Y0083657D01*
X0156746Y0082659D02*
X0111446Y0082659D01*
X0111329Y0081660D02*
X0156746Y0081660D01*
X0156746Y0080662D02*
X0110875Y0080662D01*
X0109679Y0079663D02*
X0156746Y0079663D01*
X0156746Y0078665D02*
X0099063Y0078665D01*
X0099019Y0078683D02*
X0097674Y0078683D01*
X0096430Y0078168D01*
X0095479Y0077216D01*
X0094964Y0075973D01*
X0094964Y0074627D01*
X0094970Y0074611D01*
X0092559Y0072200D01*
X0091721Y0072200D01*
X0091714Y0072216D01*
X0090763Y0073168D01*
X0089519Y0073683D01*
X0088174Y0073683D01*
X0088157Y0073676D01*
X0087133Y0074700D01*
X0078133Y0074700D01*
X0071633Y0081200D01*
X0060113Y0081200D01*
X0059216Y0082098D01*
X0058003Y0082600D01*
X0056690Y0082600D01*
X0055477Y0082098D01*
X0054549Y0081169D01*
X0054046Y0079956D01*
X0054046Y0078644D01*
X0054549Y0077431D01*
X0055477Y0076502D01*
X0056690Y0076000D01*
X0058003Y0076000D01*
X0059216Y0076502D01*
X0060113Y0077400D01*
X0070059Y0077400D01*
X0075446Y0072013D01*
X0076559Y0070900D01*
X0085464Y0070900D01*
X0085464Y0069627D01*
X0085979Y0068384D01*
X0086930Y0067432D01*
X0088174Y0066917D01*
X0089519Y0066917D01*
X0090763Y0067432D01*
X0091714Y0068384D01*
X0091721Y0068400D01*
X0094133Y0068400D01*
X0095246Y0069513D01*
X0097657Y0071924D01*
X0097674Y0071917D01*
X0099019Y0071917D01*
X0100263Y0072432D01*
X0101214Y0073384D01*
X0101729Y0074627D01*
X0101729Y0075973D01*
X0101214Y0077216D01*
X0100263Y0078168D01*
X0099019Y0078683D01*
X0097630Y0078665D02*
X0074169Y0078665D01*
X0073170Y0079663D02*
X0106614Y0079663D01*
X0105418Y0080662D02*
X0072172Y0080662D01*
X0075167Y0077666D02*
X0095929Y0077666D01*
X0095252Y0076668D02*
X0076166Y0076668D01*
X0077164Y0075669D02*
X0094964Y0075669D01*
X0094964Y0074670D02*
X0087163Y0074670D01*
X0089545Y0073672D02*
X0094031Y0073672D01*
X0093033Y0072673D02*
X0091257Y0072673D01*
X0095246Y0069513D02*
X0095246Y0069513D01*
X0095411Y0069678D02*
X0156746Y0069678D01*
X0156746Y0070676D02*
X0096410Y0070676D01*
X0097408Y0071675D02*
X0156746Y0071675D01*
X0156746Y0072673D02*
X0100504Y0072673D01*
X0101333Y0073672D02*
X0156746Y0073672D01*
X0156746Y0074670D02*
X0101729Y0074670D01*
X0101729Y0075669D02*
X0156746Y0075669D01*
X0156746Y0076668D02*
X0101441Y0076668D01*
X0100764Y0077666D02*
X0156746Y0077666D01*
X0156746Y0068679D02*
X0094413Y0068679D01*
X0091011Y0067681D02*
X0156746Y0067681D01*
X0156746Y0066682D02*
X0014946Y0066682D01*
X0014946Y0065684D02*
X0156746Y0065684D01*
X0156746Y0064685D02*
X0030859Y0064685D01*
X0030599Y0064793D02*
X0029416Y0064793D01*
X0028324Y0064340D01*
X0027487Y0063504D01*
X0027035Y0062411D01*
X0027035Y0061228D01*
X0027487Y0060135D01*
X0028324Y0059299D01*
X0029416Y0058846D01*
X0030599Y0058846D01*
X0031692Y0059299D01*
X0032528Y0060135D01*
X0032981Y0061228D01*
X0032981Y0062411D01*
X0032528Y0063504D01*
X0031692Y0064340D01*
X0030599Y0064793D01*
X0029157Y0064685D02*
X0014946Y0064685D01*
X0014946Y0063687D02*
X0027670Y0063687D01*
X0027149Y0062688D02*
X0014946Y0062688D01*
X0014946Y0061690D02*
X0027035Y0061690D01*
X0027257Y0060691D02*
X0014946Y0060691D01*
X0014946Y0059693D02*
X0027930Y0059693D01*
X0032086Y0059693D02*
X0140846Y0059693D01*
X0140846Y0060295D02*
X0140846Y0058305D01*
X0141608Y0056468D01*
X0143014Y0055061D01*
X0144852Y0054300D01*
X0146841Y0054300D01*
X0148679Y0055061D01*
X0150085Y0056468D01*
X0150846Y0058305D01*
X0150846Y0060295D01*
X0150085Y0062132D01*
X0148679Y0063539D01*
X0146841Y0064300D01*
X0144852Y0064300D01*
X0143014Y0063539D01*
X0141608Y0062132D01*
X0140846Y0060295D01*
X0141011Y0060691D02*
X0032759Y0060691D01*
X0032981Y0061690D02*
X0141424Y0061690D01*
X0142164Y0062688D02*
X0032866Y0062688D01*
X0032345Y0063687D02*
X0143372Y0063687D01*
X0148321Y0063687D02*
X0156746Y0063687D01*
X0156746Y0062688D02*
X0149529Y0062688D01*
X0150269Y0061690D02*
X0156746Y0061690D01*
X0156746Y0060691D02*
X0150682Y0060691D01*
X0150846Y0059693D02*
X0156746Y0059693D01*
X0156746Y0058694D02*
X0150846Y0058694D01*
X0150594Y0057696D02*
X0156746Y0057696D01*
X0156746Y0056697D02*
X0150180Y0056697D01*
X0149316Y0055699D02*
X0156746Y0055699D01*
X0156746Y0054700D02*
X0147807Y0054700D01*
X0146841Y0054300D02*
X0148679Y0053539D01*
X0150085Y0052132D01*
X0150846Y0050295D01*
X0150846Y0048305D01*
X0150085Y0046468D01*
X0148679Y0045061D01*
X0146841Y0044300D01*
X0144852Y0044300D01*
X0143014Y0045061D01*
X0141608Y0046468D01*
X0140846Y0048305D01*
X0140846Y0050295D01*
X0141608Y0052132D01*
X0143014Y0053539D01*
X0144852Y0054300D01*
X0146841Y0054300D01*
X0148285Y0053702D02*
X0156746Y0053702D01*
X0156746Y0052703D02*
X0149514Y0052703D01*
X0150262Y0051705D02*
X0156746Y0051705D01*
X0156746Y0050706D02*
X0150676Y0050706D01*
X0150846Y0049708D02*
X0156746Y0049708D01*
X0156746Y0048709D02*
X0150846Y0048709D01*
X0150600Y0047711D02*
X0156746Y0047711D01*
X0156746Y0046712D02*
X0150186Y0046712D01*
X0149331Y0045714D02*
X0156746Y0045714D01*
X0156746Y0044715D02*
X0147843Y0044715D01*
X0148249Y0043717D02*
X0156746Y0043717D01*
X0156746Y0042718D02*
X0149499Y0042718D01*
X0150085Y0042132D02*
X0148679Y0043539D01*
X0146841Y0044300D01*
X0144852Y0044300D01*
X0143014Y0043539D01*
X0141608Y0042132D01*
X0140846Y0040295D01*
X0140846Y0038305D01*
X0141608Y0036468D01*
X0143014Y0035061D01*
X0144852Y0034300D01*
X0146841Y0034300D01*
X0148679Y0035061D01*
X0150085Y0036468D01*
X0150846Y0038305D01*
X0150846Y0040295D01*
X0150085Y0042132D01*
X0150256Y0041720D02*
X0156746Y0041720D01*
X0156746Y0040721D02*
X0150670Y0040721D01*
X0150846Y0039723D02*
X0156746Y0039723D01*
X0156746Y0038724D02*
X0150846Y0038724D01*
X0150606Y0037726D02*
X0156746Y0037726D01*
X0156746Y0036727D02*
X0150193Y0036727D01*
X0149346Y0035729D02*
X0156746Y0035729D01*
X0156746Y0034730D02*
X0147879Y0034730D01*
X0143814Y0034730D02*
X0088281Y0034730D01*
X0089279Y0035729D02*
X0142347Y0035729D01*
X0141500Y0036727D02*
X0090278Y0036727D01*
X0091276Y0037726D02*
X0141087Y0037726D01*
X0140846Y0038724D02*
X0092275Y0038724D01*
X0093046Y0039496D02*
X0093046Y0042932D01*
X0093216Y0043002D01*
X0094144Y0043931D01*
X0094646Y0045144D01*
X0094646Y0046456D01*
X0094144Y0047669D01*
X0093216Y0048598D01*
X0092003Y0049100D01*
X0090690Y0049100D01*
X0089477Y0048598D01*
X0088549Y0047669D01*
X0088046Y0046456D01*
X0088046Y0045144D01*
X0088549Y0043931D01*
X0089477Y0043002D01*
X0089646Y0042932D01*
X0089646Y0040904D01*
X0087446Y0038704D01*
X0087446Y0046932D01*
X0087616Y0047002D01*
X0088544Y0047931D01*
X0089046Y0049144D01*
X0089046Y0050456D01*
X0088544Y0051669D01*
X0087616Y0052598D01*
X0086644Y0053000D01*
X0087003Y0053000D01*
X0088216Y0053502D01*
X0089113Y0054400D01*
X0096580Y0054400D01*
X0097477Y0053502D01*
X0098690Y0053000D01*
X0100003Y0053000D01*
X0101216Y0053502D01*
X0102144Y0054431D01*
X0102646Y0055644D01*
X0102646Y0056956D01*
X0102144Y0058169D01*
X0101216Y0059098D01*
X0100003Y0059600D01*
X0098690Y0059600D01*
X0097477Y0059098D01*
X0096580Y0058200D01*
X0089113Y0058200D01*
X0088216Y0059098D01*
X0087003Y0059600D01*
X0085690Y0059600D01*
X0084477Y0059098D01*
X0083549Y0058169D01*
X0083046Y0056956D01*
X0083046Y0055646D01*
X0069446Y0042046D01*
X0069446Y0042456D01*
X0068944Y0043669D01*
X0068016Y0044598D01*
X0066803Y0045100D01*
X0065490Y0045100D01*
X0065321Y0045030D01*
X0064851Y0045500D01*
X0062697Y0045500D01*
X0063046Y0046344D01*
X0063046Y0047656D01*
X0062544Y0048869D01*
X0061616Y0049798D01*
X0061446Y0049868D01*
X0061446Y0050532D01*
X0061616Y0050602D01*
X0062544Y0051531D01*
X0063046Y0052744D01*
X0063046Y0054056D01*
X0062544Y0055269D01*
X0061616Y0056198D01*
X0060403Y0056700D01*
X0059090Y0056700D01*
X0057877Y0056198D01*
X0056949Y0055269D01*
X0056446Y0054056D01*
X0056446Y0052744D01*
X0056949Y0051531D01*
X0057877Y0050602D01*
X0058046Y0050532D01*
X0058046Y0049868D01*
X0057877Y0049798D01*
X0056949Y0048869D01*
X0056446Y0047656D01*
X0056446Y0046344D01*
X0056796Y0045500D01*
X0050451Y0045500D01*
X0048646Y0047304D01*
X0047651Y0048300D01*
X0037042Y0048300D01*
X0033542Y0044800D01*
X0030275Y0044800D01*
X0027346Y0041871D01*
X0024418Y0044800D01*
X0020275Y0044800D01*
X0017346Y0041871D01*
X0017346Y0037729D01*
X0020134Y0034941D01*
X0017146Y0031954D01*
X0017146Y0030300D01*
X0021846Y0030300D01*
X0021846Y0029300D01*
X0017146Y0029300D01*
X0017146Y0027646D01*
X0020193Y0024600D01*
X0021846Y0024600D01*
X0021846Y0029300D01*
X0022846Y0029300D01*
X0022846Y0024600D01*
X0024500Y0024600D01*
X0027488Y0027588D01*
X0030275Y0024800D01*
X0034418Y0024800D01*
X0037346Y0027729D01*
X0037346Y0031871D01*
X0034418Y0034800D01*
X0037346Y0037729D01*
X0037346Y0041871D01*
X0036384Y0042833D01*
X0037346Y0043796D01*
X0037346Y0035562D01*
X0038108Y0034800D01*
X0046585Y0034800D01*
X0047346Y0035562D01*
X0047346Y0043796D01*
X0049042Y0042100D01*
X0062846Y0042100D01*
X0062846Y0041144D01*
X0063349Y0039931D01*
X0064277Y0039002D01*
X0065490Y0038500D01*
X0065901Y0038500D01*
X0052101Y0024700D01*
X0051890Y0024700D01*
X0051821Y0024671D01*
X0050346Y0026146D01*
X0049292Y0027200D01*
X0047692Y0027200D01*
X0047255Y0027637D01*
X0047346Y0027729D01*
X0047346Y0031871D01*
X0044418Y0034800D01*
X0040275Y0034800D01*
X0037346Y0031871D01*
X0037346Y0027729D01*
X0040275Y0024800D01*
X0044418Y0024800D01*
X0044709Y0025092D01*
X0046201Y0023600D01*
X0047801Y0023600D01*
X0049275Y0022126D01*
X0049246Y0022056D01*
X0049246Y0021500D01*
X0039842Y0021500D01*
X0035908Y0017565D01*
X0035341Y0017800D01*
X0033352Y0017800D01*
X0031514Y0017039D01*
X0030108Y0015632D01*
X0029346Y0013795D01*
X0028585Y0015632D01*
X0027179Y0017039D01*
X0025341Y0017800D01*
X0023352Y0017800D01*
X0021514Y0017039D01*
X0020108Y0015632D01*
X0019346Y0013795D01*
X0019346Y0011805D01*
X0020108Y0009968D01*
X0021514Y0008561D01*
X0023352Y0007800D01*
X0025341Y0007800D01*
X0025908Y0008035D01*
X0029842Y0004100D01*
X0057651Y0004100D01*
X0058646Y0005096D01*
X0064142Y0010592D01*
X0064142Y0010729D01*
X0065751Y0012337D01*
X0066746Y0013333D01*
X0066746Y0019033D01*
X0070682Y0022969D01*
X0074274Y0022969D01*
X0074692Y0022550D01*
X0076101Y0022550D01*
X0093046Y0039496D01*
X0093046Y0039723D02*
X0140846Y0039723D01*
X0141023Y0040721D02*
X0093046Y0040721D01*
X0093046Y0041720D02*
X0141437Y0041720D01*
X0142194Y0042718D02*
X0093046Y0042718D01*
X0093930Y0043717D02*
X0143444Y0043717D01*
X0143850Y0044715D02*
X0094469Y0044715D01*
X0094646Y0045714D02*
X0142362Y0045714D01*
X0141506Y0046712D02*
X0094541Y0046712D01*
X0094103Y0047711D02*
X0141093Y0047711D01*
X0140846Y0048709D02*
X0092946Y0048709D01*
X0089747Y0048709D02*
X0088867Y0048709D01*
X0089046Y0049708D02*
X0140846Y0049708D01*
X0141017Y0050706D02*
X0088943Y0050706D01*
X0088509Y0051705D02*
X0141431Y0051705D01*
X0142179Y0052703D02*
X0087361Y0052703D01*
X0088415Y0053702D02*
X0097278Y0053702D01*
X0101415Y0053702D02*
X0143408Y0053702D01*
X0143886Y0054700D02*
X0102256Y0054700D01*
X0102646Y0055699D02*
X0142377Y0055699D01*
X0141513Y0056697D02*
X0102646Y0056697D01*
X0102340Y0057696D02*
X0141099Y0057696D01*
X0140846Y0058694D02*
X0101619Y0058694D01*
X0097074Y0058694D02*
X0088619Y0058694D01*
X0086346Y0056300D02*
X0086146Y0056200D01*
X0052146Y0022200D01*
X0052546Y0021400D01*
X0048546Y0025400D01*
X0046946Y0025400D01*
X0042546Y0029800D01*
X0042346Y0029800D01*
X0038333Y0026742D02*
X0036359Y0026742D01*
X0037346Y0027740D02*
X0037346Y0027740D01*
X0037346Y0028739D02*
X0037346Y0028739D01*
X0037346Y0029737D02*
X0037346Y0029737D01*
X0037346Y0030736D02*
X0037346Y0030736D01*
X0037346Y0031734D02*
X0037346Y0031734D01*
X0036484Y0032733D02*
X0038208Y0032733D01*
X0039207Y0033732D02*
X0035486Y0033732D01*
X0034487Y0034730D02*
X0040205Y0034730D01*
X0037346Y0035729D02*
X0035346Y0035729D01*
X0034418Y0034800D02*
X0030275Y0034800D01*
X0027346Y0037729D01*
X0024559Y0034941D01*
X0027488Y0032012D01*
X0030275Y0034800D01*
X0034418Y0034800D01*
X0036345Y0036727D02*
X0037346Y0036727D01*
X0037343Y0037726D02*
X0037346Y0037726D01*
X0037346Y0038724D02*
X0037346Y0038724D01*
X0037346Y0039723D02*
X0037346Y0039723D01*
X0037346Y0040721D02*
X0037346Y0040721D01*
X0037346Y0041720D02*
X0037346Y0041720D01*
X0037346Y0042718D02*
X0036499Y0042718D01*
X0037267Y0043717D02*
X0037346Y0043717D01*
X0034456Y0045714D02*
X0014946Y0045714D01*
X0014946Y0046712D02*
X0035454Y0046712D01*
X0036453Y0047711D02*
X0014946Y0047711D01*
X0014946Y0048709D02*
X0056883Y0048709D01*
X0056469Y0047711D02*
X0048240Y0047711D01*
X0049238Y0046712D02*
X0056446Y0046712D01*
X0056707Y0045714D02*
X0050237Y0045714D01*
X0047426Y0043717D02*
X0047346Y0043717D01*
X0047346Y0042718D02*
X0048424Y0042718D01*
X0047346Y0041720D02*
X0062846Y0041720D01*
X0063021Y0040721D02*
X0047346Y0040721D01*
X0047346Y0039723D02*
X0063557Y0039723D01*
X0064949Y0038724D02*
X0047346Y0038724D01*
X0047346Y0037726D02*
X0065126Y0037726D01*
X0064128Y0036727D02*
X0047346Y0036727D01*
X0047346Y0035729D02*
X0063129Y0035729D01*
X0062131Y0034730D02*
X0044487Y0034730D01*
X0045486Y0033732D02*
X0061132Y0033732D01*
X0060134Y0032733D02*
X0046484Y0032733D01*
X0047346Y0031734D02*
X0059135Y0031734D01*
X0058137Y0030736D02*
X0047346Y0030736D01*
X0047346Y0029737D02*
X0057138Y0029737D01*
X0056140Y0028739D02*
X0047346Y0028739D01*
X0047346Y0027740D02*
X0055141Y0027740D01*
X0054143Y0026742D02*
X0049750Y0026742D01*
X0050749Y0025743D02*
X0053144Y0025743D01*
X0052146Y0024745D02*
X0051747Y0024745D01*
X0048653Y0022748D02*
X0014946Y0022748D01*
X0014946Y0023746D02*
X0046054Y0023746D01*
X0045056Y0024745D02*
X0024645Y0024745D01*
X0025644Y0025743D02*
X0029332Y0025743D01*
X0028333Y0026742D02*
X0026642Y0026742D01*
X0022846Y0026742D02*
X0021846Y0026742D01*
X0021846Y0027740D02*
X0022846Y0027740D01*
X0022846Y0028739D02*
X0021846Y0028739D01*
X0021846Y0029737D02*
X0014946Y0029737D01*
X0014946Y0028739D02*
X0017146Y0028739D01*
X0017146Y0027740D02*
X0014946Y0027740D01*
X0014946Y0026742D02*
X0018051Y0026742D01*
X0019049Y0025743D02*
X0014946Y0025743D01*
X0014946Y0024745D02*
X0020048Y0024745D01*
X0021846Y0024745D02*
X0022846Y0024745D01*
X0022846Y0025743D02*
X0021846Y0025743D01*
X0017146Y0030736D02*
X0014946Y0030736D01*
X0014946Y0031734D02*
X0017146Y0031734D01*
X0017926Y0032733D02*
X0014946Y0032733D01*
X0014946Y0033732D02*
X0018924Y0033732D01*
X0019923Y0034730D02*
X0014946Y0034730D01*
X0014946Y0035729D02*
X0019347Y0035729D01*
X0018348Y0036727D02*
X0014946Y0036727D01*
X0014946Y0037726D02*
X0017350Y0037726D01*
X0017346Y0038724D02*
X0014946Y0038724D01*
X0014946Y0039723D02*
X0017346Y0039723D01*
X0017346Y0040721D02*
X0014946Y0040721D01*
X0014946Y0041720D02*
X0017346Y0041720D01*
X0018194Y0042718D02*
X0014946Y0042718D01*
X0014946Y0043717D02*
X0019192Y0043717D01*
X0020191Y0044715D02*
X0014946Y0044715D01*
X0014946Y0049708D02*
X0057787Y0049708D01*
X0057773Y0050706D02*
X0014946Y0050706D01*
X0014946Y0051705D02*
X0056877Y0051705D01*
X0056463Y0052703D02*
X0014946Y0052703D01*
X0014946Y0053702D02*
X0056446Y0053702D01*
X0056713Y0054700D02*
X0014946Y0054700D01*
X0014946Y0055699D02*
X0057378Y0055699D01*
X0059084Y0056697D02*
X0014946Y0056697D01*
X0014946Y0057696D02*
X0083353Y0057696D01*
X0083046Y0056697D02*
X0060409Y0056697D01*
X0062115Y0055699D02*
X0083046Y0055699D01*
X0082101Y0054700D02*
X0062780Y0054700D01*
X0063046Y0053702D02*
X0081103Y0053702D01*
X0080104Y0052703D02*
X0063030Y0052703D01*
X0062616Y0051705D02*
X0079106Y0051705D01*
X0078107Y0050706D02*
X0061720Y0050706D01*
X0061706Y0049708D02*
X0077109Y0049708D01*
X0076110Y0048709D02*
X0062610Y0048709D01*
X0063024Y0047711D02*
X0075112Y0047711D01*
X0074113Y0046712D02*
X0063046Y0046712D01*
X0062786Y0045714D02*
X0073115Y0045714D01*
X0072116Y0044715D02*
X0067732Y0044715D01*
X0068897Y0043717D02*
X0071118Y0043717D01*
X0070119Y0042718D02*
X0069338Y0042718D01*
X0085285Y0031734D02*
X0117593Y0031734D01*
X0117746Y0031784D02*
X0117042Y0031556D01*
X0116383Y0031220D01*
X0115785Y0030785D01*
X0115261Y0030262D01*
X0114827Y0029663D01*
X0114491Y0029004D01*
X0114262Y0028301D01*
X0114167Y0027700D01*
X0121546Y0027700D01*
X0121546Y0026700D01*
X0114167Y0026700D01*
X0114262Y0026099D01*
X0114491Y0025396D01*
X0114827Y0024737D01*
X0115261Y0024138D01*
X0115785Y0023615D01*
X0116383Y0023180D01*
X0117042Y0022844D01*
X0117746Y0022616D01*
X0118477Y0022500D01*
X0121546Y0022500D01*
X0121546Y0026700D01*
X0122546Y0026700D01*
X0122546Y0022500D01*
X0125616Y0022500D01*
X0126347Y0022616D01*
X0127051Y0022844D01*
X0127710Y0023180D01*
X0128308Y0023615D01*
X0128831Y0024138D01*
X0129266Y0024737D01*
X0129602Y0025396D01*
X0129831Y0026099D01*
X0129926Y0026700D01*
X0122547Y0026700D01*
X0122547Y0027700D01*
X0129926Y0027700D01*
X0129831Y0028301D01*
X0129602Y0029004D01*
X0129266Y0029663D01*
X0128831Y0030262D01*
X0128308Y0030785D01*
X0127710Y0031220D01*
X0127051Y0031556D01*
X0126347Y0031784D01*
X0125616Y0031900D01*
X0122546Y0031900D01*
X0122546Y0027700D01*
X0121546Y0027700D01*
X0121546Y0031900D01*
X0118477Y0031900D01*
X0117746Y0031784D01*
X0115736Y0030736D02*
X0084287Y0030736D01*
X0083288Y0029737D02*
X0114881Y0029737D01*
X0114405Y0028739D02*
X0082290Y0028739D01*
X0081291Y0027740D02*
X0114173Y0027740D01*
X0114378Y0025743D02*
X0079294Y0025743D01*
X0078296Y0024745D02*
X0114822Y0024745D01*
X0115653Y0023746D02*
X0077297Y0023746D01*
X0076299Y0022748D02*
X0117339Y0022748D01*
X0121546Y0022748D02*
X0122546Y0022748D01*
X0122546Y0023746D02*
X0121546Y0023746D01*
X0121546Y0024745D02*
X0122546Y0024745D01*
X0122546Y0025743D02*
X0121546Y0025743D01*
X0121546Y0026742D02*
X0080293Y0026742D01*
X0074494Y0022748D02*
X0070461Y0022748D01*
X0069463Y0021749D02*
X0156746Y0021749D01*
X0156746Y0020751D02*
X0068464Y0020751D01*
X0067466Y0019752D02*
X0075706Y0019752D01*
X0075941Y0019850D02*
X0074269Y0019157D01*
X0072989Y0017877D01*
X0072296Y0016205D01*
X0072296Y0014395D01*
X0072989Y0012723D01*
X0074269Y0011443D01*
X0075941Y0010750D01*
X0077752Y0010750D01*
X0079424Y0011443D01*
X0080704Y0012723D01*
X0081396Y0014395D01*
X0081396Y0016205D01*
X0080704Y0017877D01*
X0079424Y0019157D01*
X0077752Y0019850D01*
X0075941Y0019850D01*
X0077987Y0019752D02*
X0095706Y0019752D01*
X0095941Y0019850D02*
X0094269Y0019157D01*
X0092989Y0017877D01*
X0092296Y0016205D01*
X0092296Y0014395D01*
X0092989Y0012723D01*
X0094269Y0011443D01*
X0095941Y0010750D01*
X0097752Y0010750D01*
X0099424Y0011443D01*
X0100704Y0012723D01*
X0101396Y0014395D01*
X0101396Y0016205D01*
X0100704Y0017877D01*
X0099424Y0019157D01*
X0097752Y0019850D01*
X0095941Y0019850D01*
X0097987Y0019752D02*
X0156746Y0019752D01*
X0156746Y0018754D02*
X0099827Y0018754D01*
X0100754Y0017755D02*
X0156746Y0017755D01*
X0156746Y0016757D02*
X0101168Y0016757D01*
X0101396Y0015758D02*
X0156746Y0015758D01*
X0156746Y0014760D02*
X0101396Y0014760D01*
X0101134Y0013761D02*
X0117617Y0013761D01*
X0117951Y0013900D02*
X0116297Y0013215D01*
X0115032Y0011949D01*
X0114346Y0010295D01*
X0114346Y0008505D01*
X0115032Y0006851D01*
X0116297Y0005585D01*
X0117951Y0004900D01*
X0126142Y0004900D01*
X0127795Y0005585D01*
X0129061Y0006851D01*
X0129746Y0008505D01*
X0129746Y0010295D01*
X0129061Y0011949D01*
X0127795Y0013215D01*
X0126142Y0013900D01*
X0117951Y0013900D01*
X0115845Y0012763D02*
X0100720Y0012763D01*
X0099745Y0011764D02*
X0114955Y0011764D01*
X0114541Y0010766D02*
X0097790Y0010766D01*
X0095903Y0010766D02*
X0077790Y0010766D01*
X0075903Y0010766D02*
X0064179Y0010766D01*
X0063318Y0009767D02*
X0114346Y0009767D01*
X0114346Y0008769D02*
X0062319Y0008769D01*
X0061321Y0007770D02*
X0114651Y0007770D01*
X0115111Y0006772D02*
X0060322Y0006772D01*
X0059324Y0005773D02*
X0116109Y0005773D01*
X0126476Y0013761D02*
X0143217Y0013761D01*
X0143551Y0013900D02*
X0141897Y0013215D01*
X0140632Y0011949D01*
X0139946Y0010295D01*
X0139946Y0008505D01*
X0140632Y0006851D01*
X0141897Y0005585D01*
X0143551Y0004900D01*
X0151742Y0004900D01*
X0153395Y0005585D01*
X0154661Y0006851D01*
X0155346Y0008505D01*
X0155346Y0010295D01*
X0154661Y0011949D01*
X0153395Y0013215D01*
X0151742Y0013900D01*
X0143551Y0013900D01*
X0141445Y0012763D02*
X0128248Y0012763D01*
X0129138Y0011764D02*
X0140555Y0011764D01*
X0140141Y0010766D02*
X0129552Y0010766D01*
X0129746Y0009767D02*
X0139946Y0009767D01*
X0139946Y0008769D02*
X0129746Y0008769D01*
X0129442Y0007770D02*
X0140251Y0007770D01*
X0140711Y0006772D02*
X0128982Y0006772D01*
X0127984Y0005773D02*
X0141709Y0005773D01*
X0152076Y0013761D02*
X0156746Y0013761D01*
X0156746Y0012763D02*
X0153848Y0012763D01*
X0154738Y0011764D02*
X0156746Y0011764D01*
X0156746Y0010766D02*
X0155152Y0010766D01*
X0155346Y0009767D02*
X0156746Y0009767D01*
X0156746Y0008769D02*
X0155346Y0008769D01*
X0155042Y0007770D02*
X0156746Y0007770D01*
X0156746Y0006772D02*
X0154582Y0006772D01*
X0153584Y0005773D02*
X0156746Y0005773D01*
X0156746Y0004775D02*
X0058325Y0004775D01*
X0049913Y0010438D02*
X0049112Y0011239D01*
X0049346Y0011805D01*
X0049913Y0010438D01*
X0049777Y0010766D02*
X0049585Y0010766D01*
X0049363Y0011764D02*
X0049329Y0011764D01*
X0049346Y0011805D02*
X0049346Y0013795D01*
X0048585Y0015632D01*
X0047179Y0017039D01*
X0045341Y0017800D01*
X0043352Y0017800D01*
X0041514Y0017039D01*
X0040108Y0015632D01*
X0039346Y0013795D01*
X0038643Y0015493D01*
X0041251Y0018100D01*
X0048642Y0018100D01*
X0050242Y0016500D01*
X0050975Y0016500D01*
X0050108Y0015632D01*
X0049346Y0013795D01*
X0049346Y0011805D01*
X0049346Y0012763D02*
X0049346Y0012763D01*
X0049346Y0013761D02*
X0049346Y0013761D01*
X0048947Y0014760D02*
X0049746Y0014760D01*
X0050234Y0015758D02*
X0048459Y0015758D01*
X0047461Y0016757D02*
X0049985Y0016757D01*
X0048987Y0017755D02*
X0045449Y0017755D01*
X0043244Y0017755D02*
X0040906Y0017755D01*
X0041232Y0016757D02*
X0039907Y0016757D01*
X0040234Y0015758D02*
X0038909Y0015758D01*
X0038947Y0014760D02*
X0039746Y0014760D01*
X0039346Y0013795D02*
X0039346Y0011805D01*
X0038585Y0009968D01*
X0037179Y0008561D01*
X0035341Y0007800D01*
X0033352Y0007800D01*
X0031514Y0008561D01*
X0030108Y0009968D01*
X0029346Y0011805D01*
X0029346Y0013795D01*
X0029346Y0011805D01*
X0028643Y0010107D01*
X0031251Y0007500D01*
X0048042Y0007500D01*
X0047039Y0008503D01*
X0045341Y0007800D01*
X0043352Y0007800D01*
X0041514Y0008561D01*
X0040108Y0009968D01*
X0039346Y0011805D01*
X0039346Y0013795D01*
X0039346Y0013761D02*
X0039346Y0013761D01*
X0039346Y0012763D02*
X0039346Y0012763D01*
X0039329Y0011764D02*
X0039363Y0011764D01*
X0039777Y0010766D02*
X0038916Y0010766D01*
X0038385Y0009767D02*
X0040308Y0009767D01*
X0041307Y0008769D02*
X0037386Y0008769D01*
X0031307Y0008769D02*
X0029982Y0008769D01*
X0030308Y0009767D02*
X0028983Y0009767D01*
X0028916Y0010766D02*
X0029777Y0010766D01*
X0029363Y0011764D02*
X0029329Y0011764D01*
X0029346Y0012763D02*
X0029346Y0012763D01*
X0029346Y0013761D02*
X0029346Y0013761D01*
X0028947Y0014760D02*
X0029746Y0014760D01*
X0030234Y0015758D02*
X0028459Y0015758D01*
X0027461Y0016757D02*
X0031232Y0016757D01*
X0033244Y0017755D02*
X0025449Y0017755D01*
X0023244Y0017755D02*
X0014946Y0017755D01*
X0014946Y0016757D02*
X0021232Y0016757D01*
X0020234Y0015758D02*
X0014946Y0015758D01*
X0014946Y0014760D02*
X0019746Y0014760D01*
X0019346Y0013761D02*
X0014946Y0013761D01*
X0014946Y0012763D02*
X0019346Y0012763D01*
X0019363Y0011764D02*
X0014946Y0011764D01*
X0014946Y0010766D02*
X0019777Y0010766D01*
X0020308Y0009767D02*
X0014946Y0009767D01*
X0014946Y0008769D02*
X0021307Y0008769D01*
X0026172Y0007770D02*
X0014946Y0007770D01*
X0014946Y0006772D02*
X0027171Y0006772D01*
X0028169Y0005773D02*
X0014946Y0005773D01*
X0014946Y0004775D02*
X0029168Y0004775D01*
X0030980Y0007770D02*
X0047772Y0007770D01*
X0036098Y0017755D02*
X0035449Y0017755D01*
X0037096Y0018754D02*
X0014946Y0018754D01*
X0014946Y0019752D02*
X0038095Y0019752D01*
X0039093Y0020751D02*
X0014946Y0020751D01*
X0014946Y0021749D02*
X0049246Y0021749D01*
X0039332Y0025743D02*
X0035361Y0025743D01*
X0028208Y0032733D02*
X0026767Y0032733D01*
X0025769Y0033732D02*
X0029207Y0033732D01*
X0030205Y0034730D02*
X0024770Y0034730D01*
X0025346Y0035729D02*
X0029347Y0035729D01*
X0028348Y0036727D02*
X0026345Y0036727D01*
X0027343Y0037726D02*
X0027350Y0037726D01*
X0027346Y0037729D02*
X0027346Y0041871D01*
X0027346Y0037729D01*
X0027346Y0038724D02*
X0027346Y0038724D01*
X0027346Y0039723D02*
X0027346Y0039723D01*
X0027346Y0040721D02*
X0027346Y0040721D01*
X0027346Y0041720D02*
X0027346Y0041720D01*
X0026499Y0042718D02*
X0028194Y0042718D01*
X0029192Y0043717D02*
X0025501Y0043717D01*
X0024502Y0044715D02*
X0030191Y0044715D01*
X0014946Y0058694D02*
X0084074Y0058694D01*
X0086682Y0067681D02*
X0014946Y0067681D01*
X0014946Y0068679D02*
X0085856Y0068679D01*
X0085464Y0069678D02*
X0014946Y0069678D01*
X0014946Y0070676D02*
X0085464Y0070676D01*
X0075784Y0071675D02*
X0014946Y0071675D01*
X0014946Y0072673D02*
X0074786Y0072673D01*
X0073787Y0073672D02*
X0014946Y0073672D01*
X0014946Y0074670D02*
X0027913Y0074670D01*
X0028324Y0074260D02*
X0029416Y0073807D01*
X0030599Y0073807D01*
X0031692Y0074260D01*
X0032528Y0075096D01*
X0032981Y0076189D01*
X0032981Y0077372D01*
X0032528Y0078465D01*
X0031692Y0079301D01*
X0030599Y0079754D01*
X0029416Y0079754D01*
X0028324Y0079301D01*
X0027487Y0078465D01*
X0027035Y0077372D01*
X0027035Y0076189D01*
X0027487Y0075096D01*
X0028324Y0074260D01*
X0027250Y0075669D02*
X0014946Y0075669D01*
X0014946Y0076668D02*
X0027035Y0076668D01*
X0027157Y0077666D02*
X0014946Y0077666D01*
X0014946Y0078665D02*
X0027687Y0078665D01*
X0029198Y0079663D02*
X0014946Y0079663D01*
X0014946Y0080662D02*
X0054339Y0080662D01*
X0054046Y0079663D02*
X0030818Y0079663D01*
X0032328Y0078665D02*
X0054046Y0078665D01*
X0054451Y0077666D02*
X0032859Y0077666D01*
X0032981Y0076668D02*
X0055312Y0076668D01*
X0059381Y0076668D02*
X0070792Y0076668D01*
X0071790Y0075669D02*
X0032766Y0075669D01*
X0032103Y0074670D02*
X0072789Y0074670D01*
X0059653Y0081660D02*
X0104964Y0081660D01*
X0104846Y0082659D02*
X0014946Y0082659D01*
X0014946Y0083657D02*
X0104685Y0083657D01*
X0103687Y0084656D02*
X0014946Y0084656D01*
X0014946Y0085654D02*
X0103146Y0085654D01*
X0103146Y0086653D02*
X0014946Y0086653D01*
X0014946Y0087651D02*
X0103146Y0087651D01*
X0103146Y0088650D02*
X0014946Y0088650D01*
X0014946Y0089648D02*
X0103146Y0089648D01*
X0103146Y0090647D02*
X0014946Y0090647D01*
X0014946Y0091645D02*
X0103146Y0091645D01*
X0103146Y0092644D02*
X0014946Y0092644D01*
X0014946Y0093642D02*
X0103146Y0093642D01*
X0103583Y0094641D02*
X0014946Y0094641D01*
X0014946Y0095639D02*
X0104581Y0095639D01*
X0105580Y0096638D02*
X0014946Y0096638D01*
X0014946Y0097636D02*
X0106446Y0097636D01*
X0106446Y0098635D02*
X0014946Y0098635D01*
X0014946Y0099633D02*
X0106446Y0099633D01*
X0106974Y0100632D02*
X0031456Y0100632D01*
X0031346Y0100632D02*
X0030346Y0100632D01*
X0030237Y0100632D02*
X0014946Y0100632D01*
X0014946Y0101630D02*
X0017945Y0101630D01*
X0016947Y0102629D02*
X0014946Y0102629D01*
X0014946Y0103627D02*
X0016334Y0103627D01*
X0015921Y0104626D02*
X0014946Y0104626D01*
X0014946Y0105624D02*
X0015846Y0105624D01*
X0015846Y0106623D02*
X0014946Y0106623D01*
X0014946Y0107621D02*
X0016189Y0107621D01*
X0016603Y0108620D02*
X0014946Y0108620D01*
X0014946Y0109618D02*
X0017594Y0109618D01*
X0019410Y0110617D02*
X0014946Y0110617D01*
X0022283Y0110617D02*
X0028846Y0110617D01*
X0030346Y0110617D02*
X0031346Y0110617D01*
X0031346Y0109618D02*
X0030346Y0109618D01*
X0030346Y0108620D02*
X0031346Y0108620D01*
X0031346Y0107621D02*
X0030346Y0107621D01*
X0030346Y0106623D02*
X0031346Y0106623D01*
X0031346Y0104626D02*
X0030346Y0104626D01*
X0030346Y0103627D02*
X0031346Y0103627D01*
X0031346Y0102629D02*
X0030346Y0102629D01*
X0030346Y0101630D02*
X0031346Y0101630D01*
X0033954Y0101630D02*
X0037945Y0101630D01*
X0036947Y0102629D02*
X0034970Y0102629D01*
X0035576Y0103627D02*
X0036334Y0103627D01*
X0036189Y0107621D02*
X0035722Y0107621D01*
X0035225Y0108620D02*
X0036603Y0108620D01*
X0037594Y0109618D02*
X0034382Y0109618D01*
X0032847Y0110617D02*
X0039410Y0110617D01*
X0042283Y0110617D02*
X0049410Y0110617D01*
X0047594Y0109618D02*
X0044099Y0109618D01*
X0045090Y0108620D02*
X0046603Y0108620D01*
X0046189Y0107621D02*
X0045504Y0107621D01*
X0045846Y0106623D02*
X0045846Y0106623D01*
X0045846Y0105624D02*
X0045846Y0105624D01*
X0045772Y0104626D02*
X0045921Y0104626D01*
X0046334Y0103627D02*
X0045358Y0103627D01*
X0044746Y0102629D02*
X0046947Y0102629D01*
X0047945Y0101630D02*
X0043748Y0101630D01*
X0053748Y0101630D02*
X0057945Y0101630D01*
X0056947Y0102629D02*
X0054746Y0102629D01*
X0055358Y0103627D02*
X0056334Y0103627D01*
X0055921Y0104626D02*
X0055772Y0104626D01*
X0055846Y0105624D02*
X0055846Y0105624D01*
X0055846Y0106623D02*
X0055846Y0106623D01*
X0055504Y0107621D02*
X0056189Y0107621D01*
X0056603Y0108620D02*
X0055090Y0108620D01*
X0054099Y0109618D02*
X0057594Y0109618D01*
X0059410Y0110617D02*
X0052283Y0110617D01*
X0062283Y0110617D02*
X0069410Y0110617D01*
X0067594Y0109618D02*
X0064099Y0109618D01*
X0065090Y0108620D02*
X0066603Y0108620D01*
X0066189Y0107621D02*
X0065504Y0107621D01*
X0065846Y0106623D02*
X0065846Y0106623D01*
X0065846Y0105624D02*
X0065846Y0105624D01*
X0065772Y0104626D02*
X0065921Y0104626D01*
X0066334Y0103627D02*
X0065358Y0103627D01*
X0064746Y0102629D02*
X0066947Y0102629D01*
X0067945Y0101630D02*
X0063748Y0101630D01*
X0073748Y0101630D02*
X0077945Y0101630D01*
X0076947Y0102629D02*
X0074746Y0102629D01*
X0075358Y0103627D02*
X0076334Y0103627D01*
X0075921Y0104626D02*
X0075772Y0104626D01*
X0075846Y0105624D02*
X0075846Y0105624D01*
X0075846Y0106623D02*
X0075846Y0106623D01*
X0075504Y0107621D02*
X0076189Y0107621D01*
X0076603Y0108620D02*
X0075090Y0108620D01*
X0074099Y0109618D02*
X0077594Y0109618D01*
X0079410Y0110617D02*
X0072283Y0110617D01*
X0082283Y0110617D02*
X0089410Y0110617D01*
X0092283Y0110617D02*
X0099410Y0110617D01*
X0097594Y0109618D02*
X0094099Y0109618D01*
X0095090Y0108620D02*
X0096603Y0108620D01*
X0096189Y0107621D02*
X0095504Y0107621D01*
X0095846Y0106623D02*
X0095846Y0106623D01*
X0095846Y0105624D02*
X0095846Y0105624D01*
X0095772Y0104626D02*
X0095921Y0104626D01*
X0096334Y0103627D02*
X0095358Y0103627D01*
X0094746Y0102629D02*
X0096947Y0102629D01*
X0097945Y0101630D02*
X0093748Y0101630D01*
X0087945Y0101630D02*
X0083748Y0101630D01*
X0084746Y0102629D02*
X0086947Y0102629D01*
X0086334Y0103627D02*
X0085358Y0103627D01*
X0085772Y0104626D02*
X0085921Y0104626D01*
X0085846Y0105624D02*
X0085846Y0105624D01*
X0085846Y0106623D02*
X0085846Y0106623D01*
X0085504Y0107621D02*
X0086189Y0107621D01*
X0086603Y0108620D02*
X0085090Y0108620D01*
X0084099Y0109618D02*
X0087594Y0109618D01*
X0102283Y0110617D02*
X0109410Y0110617D01*
X0107594Y0109618D02*
X0104099Y0109618D01*
X0105090Y0108620D02*
X0106603Y0108620D01*
X0106189Y0107621D02*
X0105504Y0107621D01*
X0105846Y0106795D02*
X0105846Y0104805D01*
X0105846Y0106795D01*
X0105846Y0106623D02*
X0105846Y0106623D01*
X0105846Y0105624D02*
X0105846Y0105624D01*
X0105772Y0104626D02*
X0105921Y0104626D01*
X0106334Y0103627D02*
X0105358Y0103627D01*
X0104746Y0102629D02*
X0106947Y0102629D01*
X0107945Y0101630D02*
X0103748Y0101630D01*
X0113748Y0101630D02*
X0117945Y0101630D01*
X0116947Y0102629D02*
X0114746Y0102629D01*
X0115358Y0103627D02*
X0116334Y0103627D01*
X0115921Y0104626D02*
X0115772Y0104626D01*
X0115846Y0105624D02*
X0115846Y0105624D01*
X0115846Y0106623D02*
X0115846Y0106623D01*
X0115504Y0107621D02*
X0116189Y0107621D01*
X0116603Y0108620D02*
X0115090Y0108620D01*
X0114099Y0109618D02*
X0117594Y0109618D01*
X0119410Y0110617D02*
X0112283Y0110617D01*
X0122283Y0110617D02*
X0129410Y0110617D01*
X0132283Y0110617D02*
X0139410Y0110617D01*
X0137594Y0109618D02*
X0134099Y0109618D01*
X0135090Y0108620D02*
X0136603Y0108620D01*
X0136189Y0107621D02*
X0135504Y0107621D01*
X0135846Y0106623D02*
X0135846Y0106623D01*
X0135846Y0105624D02*
X0135846Y0105624D01*
X0135772Y0104626D02*
X0135921Y0104626D01*
X0136334Y0103627D02*
X0135358Y0103627D01*
X0134746Y0102629D02*
X0136947Y0102629D01*
X0137945Y0101630D02*
X0133748Y0101630D01*
X0127945Y0101630D02*
X0123748Y0101630D01*
X0124746Y0102629D02*
X0126947Y0102629D01*
X0126334Y0103627D02*
X0125358Y0103627D01*
X0125772Y0104626D02*
X0125921Y0104626D01*
X0125846Y0105624D02*
X0125846Y0105624D01*
X0125846Y0106623D02*
X0125846Y0106623D01*
X0125504Y0107621D02*
X0126189Y0107621D01*
X0126603Y0108620D02*
X0125090Y0108620D01*
X0124099Y0109618D02*
X0127594Y0109618D01*
X0142283Y0110617D02*
X0149410Y0110617D01*
X0147594Y0109618D02*
X0144099Y0109618D01*
X0145090Y0108620D02*
X0146603Y0108620D01*
X0146189Y0107621D02*
X0145504Y0107621D01*
X0145846Y0106623D02*
X0145846Y0106623D01*
X0145846Y0105624D02*
X0145846Y0105624D01*
X0145772Y0104626D02*
X0145921Y0104626D01*
X0146334Y0103627D02*
X0145358Y0103627D01*
X0144746Y0102629D02*
X0146947Y0102629D01*
X0147945Y0101630D02*
X0143748Y0101630D01*
X0088590Y0047711D02*
X0088324Y0047711D01*
X0088152Y0046712D02*
X0087446Y0046712D01*
X0087446Y0045714D02*
X0088046Y0045714D01*
X0088224Y0044715D02*
X0087446Y0044715D01*
X0087446Y0043717D02*
X0088763Y0043717D01*
X0089646Y0042718D02*
X0087446Y0042718D01*
X0087446Y0041720D02*
X0089646Y0041720D01*
X0089463Y0040721D02*
X0087446Y0040721D01*
X0087446Y0039723D02*
X0088465Y0039723D01*
X0087466Y0038724D02*
X0087446Y0038724D01*
X0087282Y0033732D02*
X0156746Y0033732D01*
X0156746Y0032733D02*
X0086284Y0032733D01*
X0079827Y0018754D02*
X0093866Y0018754D01*
X0092939Y0017755D02*
X0080754Y0017755D01*
X0081168Y0016757D02*
X0092525Y0016757D01*
X0092296Y0015758D02*
X0081396Y0015758D01*
X0081396Y0014760D02*
X0092296Y0014760D01*
X0092559Y0013761D02*
X0081134Y0013761D01*
X0080720Y0012763D02*
X0092973Y0012763D01*
X0093948Y0011764D02*
X0079745Y0011764D01*
X0073948Y0011764D02*
X0065178Y0011764D01*
X0066176Y0012763D02*
X0072973Y0012763D01*
X0072559Y0013761D02*
X0066746Y0013761D01*
X0066746Y0014760D02*
X0072296Y0014760D01*
X0072296Y0015758D02*
X0066746Y0015758D01*
X0066746Y0016757D02*
X0072525Y0016757D01*
X0072939Y0017755D02*
X0066746Y0017755D01*
X0066746Y0018754D02*
X0073866Y0018754D01*
X0121546Y0027740D02*
X0122546Y0027740D01*
X0122547Y0026742D02*
X0147146Y0026742D01*
X0147146Y0026700D02*
X0139767Y0026700D01*
X0139862Y0026099D01*
X0140091Y0025396D01*
X0140427Y0024737D01*
X0140861Y0024138D01*
X0141385Y0023615D01*
X0141983Y0023180D01*
X0142642Y0022844D01*
X0143346Y0022616D01*
X0144077Y0022500D01*
X0147146Y0022500D01*
X0147146Y0026700D01*
X0147146Y0027700D01*
X0139767Y0027700D01*
X0139862Y0028301D01*
X0140091Y0029004D01*
X0140427Y0029663D01*
X0140861Y0030262D01*
X0141385Y0030785D01*
X0141983Y0031220D01*
X0142642Y0031556D01*
X0143346Y0031784D01*
X0144077Y0031900D01*
X0147146Y0031900D01*
X0147146Y0027700D01*
X0148146Y0027700D01*
X0148146Y0031900D01*
X0151216Y0031900D01*
X0151947Y0031784D01*
X0152651Y0031556D01*
X0153310Y0031220D01*
X0153908Y0030785D01*
X0154431Y0030262D01*
X0154866Y0029663D01*
X0155202Y0029004D01*
X0155431Y0028301D01*
X0155526Y0027700D01*
X0148147Y0027700D01*
X0148147Y0026700D01*
X0155526Y0026700D01*
X0155431Y0026099D01*
X0155202Y0025396D01*
X0154866Y0024737D01*
X0154431Y0024138D01*
X0153908Y0023615D01*
X0153310Y0023180D01*
X0152651Y0022844D01*
X0151947Y0022616D01*
X0151216Y0022500D01*
X0148146Y0022500D01*
X0148146Y0026700D01*
X0147146Y0026700D01*
X0147146Y0025743D02*
X0148146Y0025743D01*
X0148146Y0024745D02*
X0147146Y0024745D01*
X0147146Y0023746D02*
X0148146Y0023746D01*
X0148146Y0022748D02*
X0147146Y0022748D01*
X0142939Y0022748D02*
X0126754Y0022748D01*
X0128440Y0023746D02*
X0141253Y0023746D01*
X0140422Y0024745D02*
X0129270Y0024745D01*
X0129715Y0025743D02*
X0139978Y0025743D01*
X0139773Y0027740D02*
X0129919Y0027740D01*
X0129688Y0028739D02*
X0140005Y0028739D01*
X0140481Y0029737D02*
X0129212Y0029737D01*
X0128357Y0030736D02*
X0141336Y0030736D01*
X0143193Y0031734D02*
X0126500Y0031734D01*
X0122546Y0031734D02*
X0121546Y0031734D01*
X0121546Y0030736D02*
X0122546Y0030736D01*
X0122546Y0029737D02*
X0121546Y0029737D01*
X0121546Y0028739D02*
X0122546Y0028739D01*
X0147146Y0028739D02*
X0148146Y0028739D01*
X0148146Y0029737D02*
X0147146Y0029737D01*
X0147146Y0030736D02*
X0148146Y0030736D01*
X0148146Y0031734D02*
X0147146Y0031734D01*
X0147146Y0027740D02*
X0148146Y0027740D01*
X0148147Y0026742D02*
X0156746Y0026742D01*
X0156746Y0027740D02*
X0155519Y0027740D01*
X0155288Y0028739D02*
X0156746Y0028739D01*
X0156746Y0029737D02*
X0154812Y0029737D01*
X0153957Y0030736D02*
X0156746Y0030736D01*
X0156746Y0031734D02*
X0152100Y0031734D01*
X0155315Y0025743D02*
X0156746Y0025743D01*
X0156746Y0024745D02*
X0154870Y0024745D01*
X0154040Y0023746D02*
X0156746Y0023746D01*
X0156746Y0022748D02*
X0152354Y0022748D01*
X0156746Y0003776D02*
X0014946Y0003776D01*
X0014946Y0081660D02*
X0055040Y0081660D01*
X0027739Y0101630D02*
X0023748Y0101630D01*
X0024746Y0102629D02*
X0026723Y0102629D01*
X0026117Y0103627D02*
X0025358Y0103627D01*
X0025504Y0107621D02*
X0025971Y0107621D01*
X0026468Y0108620D02*
X0025090Y0108620D01*
X0024099Y0109618D02*
X0027311Y0109618D01*
D16*
X0088846Y0070300D03*
X0095846Y0064300D03*
X0098346Y0075300D03*
X0080846Y0063800D03*
X0110346Y0088800D03*
X0102846Y0097300D03*
X0115346Y0098300D03*
X0127346Y0066800D03*
X0134346Y0052800D03*
X0096846Y0024300D03*
X0071346Y0019800D03*
D17*
X0069978Y0024669D02*
X0065046Y0019737D01*
X0065046Y0014037D01*
X0062442Y0011433D01*
X0062442Y0011296D01*
X0056946Y0005800D01*
X0030546Y0005800D01*
X0024546Y0011800D01*
X0024546Y0012600D01*
X0024346Y0012800D01*
X0034346Y0012800D02*
X0034546Y0013000D01*
X0034546Y0013800D01*
X0040546Y0019800D01*
X0049346Y0019800D01*
X0050946Y0018200D01*
X0054546Y0018200D01*
X0082546Y0046200D01*
X0085746Y0049800D02*
X0085746Y0037000D01*
X0075023Y0026276D01*
X0069323Y0026276D01*
X0063346Y0020300D01*
X0063346Y0014800D01*
X0063446Y0014700D01*
X0056146Y0007400D01*
X0050546Y0007400D01*
X0045346Y0012600D01*
X0044546Y0012600D01*
X0044346Y0012800D01*
X0069978Y0024669D02*
X0074978Y0024669D01*
X0075396Y0024250D01*
X0091346Y0040200D01*
X0091346Y0045800D01*
X0066146Y0041800D02*
X0064146Y0043800D01*
X0049746Y0043800D01*
X0046946Y0046600D01*
X0037746Y0046600D01*
X0032546Y0041400D01*
X0032546Y0039800D01*
X0032346Y0039800D01*
X0059746Y0047000D02*
X0059746Y0053400D01*
X0104846Y0085900D02*
X0104846Y0093500D01*
X0108146Y0096800D01*
X0108146Y0099400D01*
X0109746Y0101000D01*
X0109746Y0102200D01*
X0110546Y0103000D01*
X0110546Y0105800D01*
X0110846Y0105800D01*
X0104846Y0085900D02*
X0108146Y0082600D01*
D18*
X0108146Y0082600D03*
X0099346Y0056300D03*
X0086346Y0056300D03*
X0085746Y0049800D03*
X0082546Y0046200D03*
X0091346Y0045800D03*
X0066146Y0041800D03*
X0059746Y0047000D03*
X0059746Y0053400D03*
X0057346Y0079300D03*
X0052546Y0021400D03*
D19*
X0086346Y0056300D02*
X0099346Y0056300D01*
X0093346Y0070300D02*
X0088846Y0070300D01*
X0086346Y0072800D01*
X0077346Y0072800D01*
X0070846Y0079300D01*
X0057346Y0079300D01*
X0093346Y0070300D02*
X0098346Y0075300D01*
M02*
